<?xml version="1.0" encoding="UTF-8"?><svg xmlns="http://www.w3.org/2000/svg" xmlns:xlink="http://www.w3.org/1999/xlink" fill-opacity="1" color-rendering="auto" color-interpolation="auto" text-rendering="auto" stroke="black" stroke-linecap="square" width="876" stroke-miterlimit="10" shape-rendering="auto" stroke-opacity="1" fill="black" stroke-dasharray="none" font-weight="normal" stroke-width="1" height="636" font-family="'Dialog'" font-style="normal" stroke-linejoin="miter" font-size="12px" stroke-dashoffset="0" image-rendering="auto">
  <!--Generated by ySVG 2.5-->
  <defs id="genericDefs"/>
  <g>
    <defs id="defs1">
      <clipPath clipPathUnits="userSpaceOnUse" id="clipPath1">
        <path d="M0 0 L876 0 L876 636 L0 636 L0 0 Z"/>
      </clipPath>
      <clipPath clipPathUnits="userSpaceOnUse" id="clipPath2">
        <path d="M790 -3 L2530 -3 L2530 1260.2877 L790 1260.2877 L790 -3 Z"/>
      </clipPath>
      <clipPath clipPathUnits="userSpaceOnUse" id="clipPath3">
        <path d="M786 -7 L2526 -7 L2526 1256.2877 L786 1256.2877 L786 -7 Z"/>
      </clipPath>
    </defs>
    <g fill="yellow" text-rendering="geometricPrecision" shape-rendering="geometricPrecision" transform="matrix(0.5034,0,0,0.5034,-397.7241,1.5103)" stroke="yellow">
      <rect x="1258.542" y="403.2855" clip-path="url(#clipPath2)" width="180" rx="4" ry="4" height="48" stroke="none"/>
    </g>
    <g text-rendering="geometricPrecision" stroke-miterlimit="1.45" shape-rendering="geometricPrecision" transform="matrix(0.5034,0,0,0.5034,-397.7241,1.5103)" stroke-linecap="butt">
      <rect x="1258.542" y="403.2855" clip-path="url(#clipPath2)" fill="none" width="180" rx="4" ry="4" height="48"/>
      <text x="1318.3271" font-size="16px" y="433.3324" clip-path="url(#clipPath2)" font-family="sans-serif" stroke="none" xml:space="preserve">bf:Work</text>
    </g>
    <g fill="yellow" text-rendering="geometricPrecision" shape-rendering="geometricPrecision" transform="matrix(0.5034,0,0,0.5034,-397.7241,1.5103)" stroke="yellow">
      <rect x="865.8766" y="532.431" clip-path="url(#clipPath2)" width="100" rx="4" ry="4" height="48" stroke="none"/>
    </g>
    <g text-rendering="geometricPrecision" stroke-miterlimit="1.45" shape-rendering="geometricPrecision" transform="matrix(0.5034,0,0,0.5034,-397.7241,1.5103)" stroke-linecap="butt">
      <rect x="865.8766" y="532.431" clip-path="url(#clipPath2)" fill="none" width="100" rx="4" ry="4" height="48"/>
      <text x="888.4664" font-size="16px" y="562.4778" clip-path="url(#clipPath2)" font-family="sans-serif" stroke="none" xml:space="preserve">bf:date</text>
    </g>
    <g fill="yellow" text-rendering="geometricPrecision" shape-rendering="geometricPrecision" transform="matrix(0.5034,0,0,0.5034,-397.7241,1.5103)" stroke="yellow">
      <rect x="1563.3088" y="566.0472" clip-path="url(#clipPath2)" width="100" rx="4" ry="4" height="48" stroke="none"/>
    </g>
    <g text-rendering="geometricPrecision" stroke-miterlimit="1.45" shape-rendering="geometricPrecision" transform="matrix(0.5034,0,0,0.5034,-397.7241,1.5103)" stroke-linecap="butt">
      <rect x="1563.3088" y="566.0472" clip-path="url(#clipPath2)" fill="none" width="100" rx="4" ry="4" height="48"/>
      <text x="1567.2892" font-size="16px" y="596.0941" clip-path="url(#clipPath2)" font-family="sans-serif" stroke="none" xml:space="preserve">bf:language</text>
    </g>
    <g fill="yellow" text-rendering="geometricPrecision" shape-rendering="geometricPrecision" transform="matrix(0.5034,0,0,0.5034,-397.7241,1.5103)" stroke="yellow">
      <rect x="1010.8766" y="566.0472" clip-path="url(#clipPath2)" width="100" rx="4" ry="4" height="48" stroke="none"/>
    </g>
    <g text-rendering="geometricPrecision" stroke-miterlimit="1.45" shape-rendering="geometricPrecision" transform="matrix(0.5034,0,0,0.5034,-397.7241,1.5103)" stroke-linecap="butt">
      <rect x="1010.8766" y="566.0472" clip-path="url(#clipPath2)" fill="none" width="100" rx="4" ry="4" height="48"/>
      <text x="1023.6461" font-size="16px" y="596.0941" clip-path="url(#clipPath2)" font-family="sans-serif" stroke="none" xml:space="preserve">bf:person</text>
    </g>
    <g fill="yellow" text-rendering="geometricPrecision" shape-rendering="geometricPrecision" transform="matrix(0.5034,0,0,0.5034,-397.7241,1.5103)" stroke="yellow">
      <rect x="1721.3956" y="532.431" clip-path="url(#clipPath2)" width="100" rx="4" ry="4" height="48" stroke="none"/>
    </g>
    <g text-rendering="geometricPrecision" stroke-miterlimit="1.45" shape-rendering="geometricPrecision" transform="matrix(0.5034,0,0,0.5034,-397.7241,1.5103)" stroke-linecap="butt">
      <rect x="1721.3956" y="532.431" clip-path="url(#clipPath2)" fill="none" width="100" rx="4" ry="4" height="48"/>
      <text x="1745.8214" font-size="16px" y="562.4778" clip-path="url(#clipPath2)" font-family="sans-serif" stroke="none" xml:space="preserve">bf:title</text>
    </g>
    <g fill="yellow" text-rendering="geometricPrecision" shape-rendering="geometricPrecision" transform="matrix(0.5034,0,0,0.5034,-397.7241,1.5103)" stroke="yellow">
      <rect x="2032.5274" y="403.2855" clip-path="url(#clipPath2)" width="180" rx="4" ry="4" height="48" stroke="none"/>
    </g>
    <g font-size="16px" stroke-linecap="butt" transform="matrix(0.5034,0,0,0.5034,-397.7241,1.5103)" text-rendering="geometricPrecision" font-family="sans-serif" shape-rendering="geometricPrecision" stroke-miterlimit="1.45">
      <text x="2074.1406" xml:space="preserve" y="433.3324" clip-path="url(#clipPath2)" stroke="none">bf:electronic</text>
      <rect x="2032.5274" y="403.2855" clip-path="url(#clipPath2)" fill="none" width="180" rx="4" ry="4" height="48"/>
    </g>
    <g fill="yellow" text-rendering="geometricPrecision" shape-rendering="geometricPrecision" transform="matrix(0.5034,0,0,0.5034,-397.7241,1.5103)" stroke="yellow">
      <rect x="1258.542" y="693.4481" clip-path="url(#clipPath2)" width="180" rx="4" ry="4" height="48" stroke="none"/>
    </g>
    <g font-size="16px" stroke-linecap="butt" transform="matrix(0.5034,0,0,0.5034,-397.7241,1.5103)" text-rendering="geometricPrecision" font-family="sans-serif" shape-rendering="geometricPrecision" stroke-miterlimit="1.45">
      <text x="1303.417" xml:space="preserve" y="714.0731" clip-path="url(#clipPath2)" stroke="none">rdac:C1006</text>
      <text x="1306.1865" xml:space="preserve" y="732.9168" clip-path="url(#clipPath2)" stroke="none">Expression</text>
      <rect x="1258.542" y="693.4481" clip-path="url(#clipPath2)" fill="none" width="180" rx="4" ry="4" height="48"/>
    </g>
    <g fill="yellow" text-rendering="geometricPrecision" shape-rendering="geometricPrecision" transform="matrix(0.5034,0,0,0.5034,-397.7241,1.5103)" stroke="yellow">
      <rect x="1258.542" y="1139.8851" clip-path="url(#clipPath2)" width="180" rx="4" ry="4" height="48" stroke="none"/>
    </g>
    <g font-size="16px" stroke-linecap="butt" transform="matrix(0.5034,0,0,0.5034,-397.7241,1.5103)" text-rendering="geometricPrecision" font-family="sans-serif" shape-rendering="geometricPrecision" stroke-miterlimit="1.45">
      <text x="1308.9521" xml:space="preserve" y="1159.6664" clip-path="url(#clipPath2)" stroke="none">rdac:1020</text>
      <text x="1331.1279" xml:space="preserve" y="1178.5101" clip-path="url(#clipPath2)" stroke="none">Text</text>
      <rect x="1258.542" y="1139.8851" clip-path="url(#clipPath2)" fill="none" width="180" rx="4" ry="4" height="48"/>
    </g>
    <g fill="yellow" text-rendering="geometricPrecision" shape-rendering="geometricPrecision" transform="matrix(0.5034,0,0,0.5034,-397.7241,1.5103)" stroke="yellow">
      <rect x="930" y="1066.8291" clip-path="url(#clipPath2)" width="180" rx="4" ry="4" height="48" stroke="none"/>
    </g>
    <g font-size="16px" stroke-linecap="butt" transform="matrix(0.5034,0,0,0.5034,-397.7241,1.5103)" text-rendering="geometricPrecision" font-family="sans-serif" shape-rendering="geometricPrecision" stroke-miterlimit="1.45">
      <text x="969.8164" xml:space="preserve" y="1087.4541" clip-path="url(#clipPath2)" stroke="none">rdac:C10011</text>
      <text x="959.5547" xml:space="preserve" y="1106.2979" clip-path="url(#clipPath2)" stroke="none">collective agent</text>
      <rect x="930" y="1066.8291" clip-path="url(#clipPath2)" fill="none" width="180" rx="4" ry="4" height="48"/>
    </g>
    <g fill="yellow" text-rendering="geometricPrecision" shape-rendering="geometricPrecision" transform="matrix(0.5034,0,0,0.5034,-397.7241,1.5103)" stroke="yellow">
      <rect x="1681.3956" y="756" clip-path="url(#clipPath2)" width="180" rx="4" ry="4" height="48" stroke="none"/>
    </g>
    <g font-size="16px" stroke-linecap="butt" transform="matrix(0.5034,0,0,0.5034,-397.7241,1.5103)" text-rendering="geometricPrecision" font-family="sans-serif" shape-rendering="geometricPrecision" stroke-miterlimit="1.45">
      <text x="1732.0831" xml:space="preserve" y="786.0469" clip-path="url(#clipPath2)" stroke="none">bf:Filesize</text>
      <rect x="1681.3956" y="756" clip-path="url(#clipPath2)" fill="none" width="180" rx="4" ry="4" height="48"/>
    </g>
    <g fill="yellow" text-rendering="geometricPrecision" shape-rendering="geometricPrecision" transform="matrix(0.5034,0,0,0.5034,-397.7241,1.5103)" stroke="yellow">
      <rect x="2340" y="756" clip-path="url(#clipPath2)" width="180" rx="4" ry="4" height="48" stroke="none"/>
    </g>
    <g font-size="16px" stroke-linecap="butt" transform="matrix(0.5034,0,0,0.5034,-397.7241,1.5103)" text-rendering="geometricPrecision" font-family="sans-serif" shape-rendering="geometricPrecision" stroke-miterlimit="1.45">
      <text x="2389.457" xml:space="preserve" y="786.0469" clip-path="url(#clipPath2)" stroke="none">bf:Filetype</text>
      <rect x="2340" y="756" clip-path="url(#clipPath2)" fill="none" width="180" rx="4" ry="4" height="48"/>
    </g>
    <g fill="yellow" text-rendering="geometricPrecision" shape-rendering="geometricPrecision" transform="matrix(0.5034,0,0,0.5034,-397.7241,1.5103)" stroke="yellow">
      <rect x="2190" y="876" clip-path="url(#clipPath2)" width="180" rx="4" ry="4" height="48" stroke="none"/>
    </g>
    <g font-size="16px" stroke-linecap="butt" transform="matrix(0.5034,0,0,0.5034,-397.7241,1.5103)" text-rendering="geometricPrecision" font-family="sans-serif" shape-rendering="geometricPrecision" stroke-miterlimit="1.45">
      <text x="2206.5234" xml:space="preserve" y="906.0469" clip-path="url(#clipPath2)" stroke="none">bf:EncodingFormat</text>
      <rect x="2190" y="876" clip-path="url(#clipPath2)" fill="none" width="180" rx="4" ry="4" height="48"/>
    </g>
    <g fill="yellow" text-rendering="geometricPrecision" shape-rendering="geometricPrecision" transform="matrix(0.5034,0,0,0.5034,-397.7241,1.5103)" stroke="yellow">
      <rect x="1860" y="876" clip-path="url(#clipPath2)" width="180" rx="4" ry="4" height="48" stroke="none"/>
    </g>
    <g font-size="16px" stroke-linecap="butt" transform="matrix(0.5034,0,0,0.5034,-397.7241,1.5103)" text-rendering="geometricPrecision" font-family="sans-serif" shape-rendering="geometricPrecision" stroke-miterlimit="1.45">
      <text x="1897.3516" xml:space="preserve" y="906.0469" clip-path="url(#clipPath2)" stroke="none">bf:Distributor</text>
      <rect x="1860" y="876" clip-path="url(#clipPath2)" fill="none" width="180" rx="4" ry="4" height="48"/>
    </g>
    <g fill="yellow" text-rendering="geometricPrecision" shape-rendering="geometricPrecision" transform="matrix(0.5034,0,0,0.5034,-397.7241,1.5103)" stroke="yellow">
      <rect x="2081.5274" y="247.5" clip-path="url(#clipPath2)" width="82" rx="4" ry="4" height="45" stroke="none"/>
    </g>
    <g font-size="16px" stroke-linecap="butt" transform="matrix(0.5034,0,0,0.5034,-397.7241,1.5103)" text-rendering="geometricPrecision" font-family="sans-serif" shape-rendering="geometricPrecision" stroke-miterlimit="1.45">
      <text x="2094.7969" xml:space="preserve" y="276.0469" clip-path="url(#clipPath2)" stroke="none">bf:Item</text>
      <rect x="2081.5274" y="247.5" clip-path="url(#clipPath2)" fill="none" width="82" rx="4" ry="4" height="45"/>
    </g>
    <g fill="yellow" text-rendering="geometricPrecision" shape-rendering="geometricPrecision" transform="matrix(0.5034,0,0,0.5034,-397.7241,1.5103)" stroke="yellow">
      <rect x="2032.5274" y="68.6413" clip-path="url(#clipPath2)" width="180" rx="4" ry="4" height="48" stroke="none"/>
    </g>
    <g font-size="16px" stroke-linecap="butt" transform="matrix(0.5034,0,0,0.5034,-397.7241,1.5103)" text-rendering="geometricPrecision" font-family="sans-serif" shape-rendering="geometricPrecision" stroke-miterlimit="1.45">
      <text x="2061.6602" xml:space="preserve" y="98.6882" clip-path="url(#clipPath2)" stroke="none">bf:Organization</text>
      <rect x="2032.5274" y="68.6413" clip-path="url(#clipPath2)" fill="none" width="180" rx="4" ry="4" height="48"/>
    </g>
    <g fill="yellow" text-rendering="geometricPrecision" shape-rendering="geometricPrecision" transform="matrix(0.5034,0,0,0.5034,-397.7241,1.5103)" stroke="yellow">
      <rect x="2340" y="68.6413" clip-path="url(#clipPath2)" width="180" rx="4" ry="4" height="48" stroke="none"/>
    </g>
    <g font-size="16px" stroke-linecap="butt" transform="matrix(0.5034,0,0,0.5034,-397.7241,1.5103)" text-rendering="geometricPrecision" font-family="sans-serif" shape-rendering="geometricPrecision" stroke-miterlimit="1.45">
      <text x="2350.8086" xml:space="preserve" y="98.6882" clip-path="url(#clipPath2)" stroke="none">bf:Electroniclocation</text>
      <rect x="2340" y="68.6413" clip-path="url(#clipPath2)" fill="none" width="180" rx="4" ry="4" height="48"/>
    </g>
    <g fill="yellow" text-rendering="geometricPrecision" shape-rendering="geometricPrecision" transform="matrix(0.5034,0,0,0.5034,-397.7241,1.5103)" stroke="yellow">
      <rect x="1710" y="68.6413" clip-path="url(#clipPath2)" width="180" rx="4" ry="4" height="48" stroke="none"/>
    </g>
    <g font-size="16px" stroke-linecap="butt" transform="matrix(0.5034,0,0,0.5034,-397.7241,1.5103)" text-rendering="geometricPrecision" font-family="sans-serif" shape-rendering="geometricPrecision" stroke-miterlimit="1.45">
      <text x="1751.25" xml:space="preserve" y="98.6882" clip-path="url(#clipPath2)" stroke="none">bf:ShelfMark</text>
      <rect x="1710" y="68.6413" clip-path="url(#clipPath2)" fill="none" width="180" rx="4" ry="4" height="48"/>
    </g>
    <g fill="yellow" text-rendering="geometricPrecision" shape-rendering="geometricPrecision" transform="matrix(0.5034,0,0,0.5034,-397.7241,1.5103)" stroke="yellow">
      <rect x="1588.1724" y="1066.8291" clip-path="url(#clipPath2)" width="180" rx="4" ry="4" height="48" stroke="none"/>
    </g>
    <g font-size="16px" stroke-linecap="butt" transform="matrix(0.5034,0,0,0.5034,-397.7241,1.5103)" text-rendering="geometricPrecision" font-family="sans-serif" shape-rendering="geometricPrecision" stroke-miterlimit="1.45">
      <text x="1625.4575" xml:space="preserve" y="1087.4541" clip-path="url(#clipPath2)" stroke="none">rdac: C10012</text>
      <text x="1650.4575" xml:space="preserve" y="1106.2979" clip-path="url(#clipPath2)" stroke="none">Nomen</text>
      <rect x="1588.1724" y="1066.8291" clip-path="url(#clipPath2)" fill="none" width="180" rx="4" ry="4" height="48"/>
    </g>
    <g fill="yellow" text-rendering="geometricPrecision" shape-rendering="geometricPrecision" transform="matrix(0.5034,0,0,0.5034,-397.7241,1.5103)" stroke="yellow">
      <rect x="1307.542" y="70.1413" clip-path="url(#clipPath2)" width="82" rx="4" ry="4" height="45" stroke="none"/>
    </g>
    <g font-size="16px" stroke-linecap="butt" transform="matrix(0.5034,0,0,0.5034,-397.7241,1.5103)" text-rendering="geometricPrecision" font-family="sans-serif" shape-rendering="geometricPrecision" stroke-miterlimit="1.45">
      <text x="1327.6514" xml:space="preserve" y="98.6882" clip-path="url(#clipPath2)" stroke="none">Event</text>
      <rect x="1307.542" y="70.1413" clip-path="url(#clipPath2)" fill="none" width="82" rx="4" ry="4" height="45"/>
    </g>
    <g stroke-linecap="butt" transform="matrix(0.5034,0,0,0.5034,-397.7241,1.5103)" fill="navy" text-rendering="geometricPrecision" shape-rendering="geometricPrecision" stroke="navy" stroke-miterlimit="1.45">
      <path fill="none" d="M1254.2971 428.6704 L981.425 529.3755" clip-path="url(#clipPath2)"/>
      <path d="M1261.8022 425.9006 C1262.5671 427.9731 1261.5071 430.2732 1259.4346 431.0381 C1257.3621 431.8029 1255.062 430.7429 1254.2971 428.6704 C1253.5322 426.5979 1254.5923 424.2978 1256.6648 423.5329 C1258.7373 422.768 1261.0374 423.8281 1261.8022 425.9006 Z" clip-path="url(#clipPath2)" stroke="none"/>
      <path d="M971.1054 533.184 L984.4406 534.6581 L980.2858 523.4003 Z" clip-path="url(#clipPath2)" stroke="none"/>
      <rect x="1038.8333" y="485.5596" clip-path="url(#clipPath2)" fill="white" width="60.7344" height="22.8438" stroke="none"/>
      <text x="1040.8333" font-size="16px" y="503.0284" clip-path="url(#clipPath2)" font-family="sans-serif" stroke="none" xml:space="preserve">bf:Date</text>
      <path fill="none" d="M1441.9576 430.0157 L1579.5922 558.5579" clip-path="url(#clipPath2)"/>
      <path d="M1436.111 424.5553 C1437.6188 422.9408 1440.15 422.8543 1441.7645 424.3622 C1443.379 425.87 1443.4655 428.4012 1441.9576 430.0157 C1440.4498 431.6302 1437.9186 431.7167 1436.3041 430.2088 C1434.6896 428.701 1434.6031 426.1698 1436.111 424.5553 Z" clip-path="url(#clipPath2)" stroke="none"/>
      <path d="M1587.6313 566.066 L1582.9567 553.4904 L1574.766 562.2604 Z" clip-path="url(#clipPath2)" stroke="none"/>
      <rect x="1489.857" y="512.3644" clip-path="url(#clipPath2)" fill="white" width="105.0078" height="22.8438" stroke="none"/>
      <text x="1491.8571" font-size="16px" y="529.8331" clip-path="url(#clipPath2)" font-family="sans-serif" stroke="none" xml:space="preserve">bf: Language</text>
      <path fill="none" d="M1254.965 429.8319 L1098.411 559.0634" clip-path="url(#clipPath2)"/>
      <path d="M1261.1344 424.739 C1262.5408 426.4427 1262.2998 428.9639 1260.5961 430.3702 C1258.8925 431.7766 1256.3712 431.5356 1254.965 429.8319 C1253.5586 428.1282 1253.7996 425.6071 1255.5033 424.2007 C1257.2069 422.7943 1259.7281 423.0354 1261.1344 424.739 Z" clip-path="url(#clipPath2)" stroke="none"/>
      <path d="M1089.9279 566.066 L1103.0018 563.054 L1095.3625 553.7997 Z" clip-path="url(#clipPath2)" stroke="none"/>
      <rect x="1107.9597" y="510.513" clip-path="url(#clipPath2)" fill="white" width="70.8594" height="22.8438" stroke="none"/>
      <text x="1109.9597" font-size="16px" y="527.9818" clip-path="url(#clipPath2)" font-family="sans-serif" stroke="none" xml:space="preserve">bf:Agent</text>
      <path fill="none" d="M1442.7627 428.7343 L1711.1179 533.0089" clip-path="url(#clipPath2)"/>
      <path d="M1435.3059 425.8367 C1436.1061 423.7776 1438.424 422.757 1440.483 423.5571 C1442.5422 424.3572 1443.5629 426.6751 1442.7627 428.7343 C1441.9625 430.7934 1439.6447 431.814 1437.5856 431.0139 C1435.5264 430.2138 1434.5057 427.8959 1435.3059 425.8367 Z" clip-path="url(#clipPath2)" stroke="none"/>
      <path d="M1721.3711 536.9929 L1712.3589 527.0541 L1708.0127 538.2394 Z" clip-path="url(#clipPath2)" stroke="none"/>
      <rect x="1591.6857" y="486.6968" clip-path="url(#clipPath2)" fill="white" width="59.2812" height="22.8438" stroke="none"/>
    </g>
    <g fill="white" text-rendering="geometricPrecision" stroke-miterlimit="1.6" shape-rendering="geometricPrecision" transform="matrix(0.5034,0,0,0.5034,-397.7241,1.5103)" stroke="white">
      <rect fill="none" x="1591.6857" width="59.2812" height="22.8438" y="486.6968" clip-path="url(#clipPath2)"/>
    </g>
    <g stroke-linecap="butt" font-size="16px" transform="matrix(0.5034,0,0,0.5034,-397.7241,1.5103)" fill="navy" text-rendering="geometricPrecision" font-family="sans-serif" shape-rendering="geometricPrecision" stroke="navy" stroke-miterlimit="1.45">
      <text x="1593.6858" xml:space="preserve" y="504.1655" clip-path="url(#clipPath2)" stroke="none">bf:Title</text>
      <path fill="none" d="M1442.5685 427.2855 L2021.501 427.2855" clip-path="url(#clipPath2)"/>
      <path d="M1434.5685 427.2855 C1434.5685 425.0764 1436.3594 423.2855 1438.5685 423.2855 C1440.7776 423.2855 1442.5685 425.0764 1442.5685 427.2855 C1442.5685 429.4946 1440.7776 431.2855 1438.5685 431.2855 C1436.3594 431.2855 1434.5685 429.4946 1434.5685 427.2855 Z" stroke="none" clip-path="url(#clipPath2)"/>
      <path d="M2032.501 427.2855 L2020.501 421.2855 L2020.501 433.2855 Z" stroke="none" clip-path="url(#clipPath2)"/>
    </g>
    <g stroke-linecap="butt" transform="matrix(0.5034,0,0,0.5034,-397.7241,1.5103)" fill="white" text-rendering="geometricPrecision" shape-rendering="geometricPrecision" stroke="white" stroke-miterlimit="1.45">
      <rect x="1677.2886" width="116.4922" height="22.8438" y="415.8636" clip-path="url(#clipPath2)" stroke="none"/>
    </g>
    <g stroke-linecap="butt" font-size="16px" transform="matrix(0.5034,0,0,0.5034,-397.7241,1.5103)" fill="navy" text-rendering="geometricPrecision" font-family="sans-serif" shape-rendering="geometricPrecision" stroke="navy" stroke-miterlimit="1.45">
      <text x="1679.2886" xml:space="preserve" y="433.3324" clip-path="url(#clipPath2)" stroke="none">bf:hasInstance</text>
      <path fill="none" d="M1348.542 455.265 L1348.542 682.4357" clip-path="url(#clipPath2)"/>
      <path d="M1348.542 447.265 C1350.7511 447.265 1352.542 449.0558 1352.542 451.265 C1352.542 453.4741 1350.7511 455.265 1348.542 455.265 C1346.3329 455.265 1344.542 453.4741 1344.542 451.265 C1344.542 449.0558 1346.3329 447.265 1348.542 447.265 Z" stroke="none" clip-path="url(#clipPath2)"/>
      <path d="M1348.542 693.4357 L1354.542 681.4357 L1342.542 681.4357 Z" stroke="none" clip-path="url(#clipPath2)"/>
    </g>
    <g stroke-linecap="butt" transform="matrix(0.5034,0,0,0.5034,-397.7241,1.5103)" fill="white" text-rendering="geometricPrecision" shape-rendering="geometricPrecision" stroke="white" stroke-miterlimit="1.45">
      <rect x="1280.2178" width="136.6484" height="22.8438" y="560.9449" clip-path="url(#clipPath2)" stroke="none"/>
    </g>
    <g stroke-linecap="butt" font-size="16px" transform="matrix(0.5034,0,0,0.5034,-397.7241,1.5103)" fill="navy" text-rendering="geometricPrecision" font-family="sans-serif" shape-rendering="geometricPrecision" stroke="navy" stroke-miterlimit="1.45">
      <text x="1282.2178" xml:space="preserve" y="578.4136" clip-path="url(#clipPath2)" stroke="none">bf:hasExpression</text>
      <path fill="none" d="M1348.542 745.4539 L1348.542 1128.881" clip-path="url(#clipPath2)"/>
      <path d="M1348.542 737.4539 C1350.7511 737.4539 1352.542 739.2448 1352.542 741.4539 C1352.542 743.6631 1350.7511 745.4539 1348.542 745.4539 C1346.3329 745.4539 1344.542 743.6631 1344.542 741.4539 C1344.542 739.2448 1346.3329 737.4539 1348.542 737.4539 Z" stroke="none" clip-path="url(#clipPath2)"/>
      <path d="M1348.542 1139.881 L1354.542 1127.881 L1342.542 1127.881 Z" stroke="none" clip-path="url(#clipPath2)"/>
    </g>
    <g stroke-linecap="butt" transform="matrix(0.5034,0,0,0.5034,-397.7241,1.5103)" fill="white" text-rendering="geometricPrecision" shape-rendering="geometricPrecision" stroke="white" stroke-miterlimit="1.45">
      <rect x="1279.0342" width="139.0156" height="41.6875" y="919.8228" clip-path="url(#clipPath2)" stroke="none"/>
    </g>
    <g stroke-linecap="butt" font-size="16px" transform="matrix(0.5034,0,0,0.5034,-397.7241,1.5103)" fill="navy" text-rendering="geometricPrecision" font-family="sans-serif" shape-rendering="geometricPrecision" stroke="navy" stroke-miterlimit="1.45">
      <text x="1299.1123" xml:space="preserve" y="937.2916" clip-path="url(#clipPath2)" stroke="none">rdae:P20001</text>
      <text x="1281.0342" xml:space="preserve" y="956.1353" clip-path="url(#clipPath2)" stroke="none">has_content_type</text>
      <path fill="none" d="M1255.7974 720.7537 L1026.1938 1057.7328" clip-path="url(#clipPath2)"/>
      <path d="M1260.302 714.1425 C1262.1277 715.3864 1262.5992 717.8748 1261.3553 719.7004 C1260.1113 721.526 1257.623 721.9976 1255.7974 720.7537 C1253.9717 719.5098 1253.5001 717.0214 1254.744 715.1957 C1255.988 713.3701 1258.4763 712.8985 1260.302 714.1425 Z" stroke="none" clip-path="url(#clipPath2)"/>
      <path d="M1020 1066.8232 L1031.7153 1060.2848 L1021.7985 1053.528 Z" stroke="none" clip-path="url(#clipPath2)"/>
    </g>
    <g stroke-linecap="butt" transform="matrix(0.5034,0,0,0.5034,-397.7241,1.5103)" fill="white" text-rendering="geometricPrecision" shape-rendering="geometricPrecision" stroke="white" stroke-miterlimit="1.45">
      <rect x="966.6824" width="342.2656" height="41.6875" y="873.0673" clip-path="url(#clipPath2)" stroke="none"/>
    </g>
    <g stroke-linecap="butt" font-size="16px" transform="matrix(0.5034,0,0,0.5034,-397.7241,1.5103)" fill="navy" text-rendering="geometricPrecision" font-family="sans-serif" shape-rendering="geometricPrecision" stroke="navy" stroke-miterlimit="1.45">
      <text x="1088.3855" xml:space="preserve" y="890.5361" clip-path="url(#clipPath2)" stroke="none">rdae:P20448</text>
      <text x="968.6824" xml:space="preserve" y="909.3798" clip-path="url(#clipPath2)" stroke="none">has_creator_collective_agent_of_expression</text>
      <path fill="none" d="M2119.6074 454.025 L1805.0793 748.4673" clip-path="url(#clipPath2)"/>
      <path d="M2125.4473 448.5575 C2126.9573 450.1702 2126.8738 452.7014 2125.261 454.2113 C2123.6484 455.7211 2121.1172 455.6377 2119.6074 454.025 C2118.0974 452.4123 2118.1809 449.881 2119.7937 448.3712 C2121.4062 446.8614 2123.9375 446.9448 2125.4473 448.5575 Z" stroke="none" clip-path="url(#clipPath2)"/>
      <path d="M1797.0491 755.9849 L1809.9099 752.164 L1801.7089 743.4037 Z" stroke="none" clip-path="url(#clipPath2)"/>
    </g>
    <g stroke-linecap="butt" transform="matrix(0.5034,0,0,0.5034,-397.7241,1.5103)" fill="white" text-rendering="geometricPrecision" shape-rendering="geometricPrecision" stroke="white" stroke-miterlimit="1.45">
      <rect x="1864.6192" width="190.3281" height="22.8438" y="592.2209" clip-path="url(#clipPath2)" stroke="none"/>
    </g>
    <g stroke-linecap="butt" font-size="16px" transform="matrix(0.5034,0,0,0.5034,-397.7241,1.5103)" fill="navy" text-rendering="geometricPrecision" font-family="sans-serif" shape-rendering="geometricPrecision" stroke="navy" stroke-miterlimit="1.45">
      <text x="1866.6191" xml:space="preserve" y="609.6896" clip-path="url(#clipPath2)" stroke="none">bf: digitalCharacteristic </text>
      <path fill="none" d="M2125.3687 454.1069 L2422.1868 748.2512" clip-path="url(#clipPath2)"/>
      <path d="M2119.686 448.4759 C2121.241 446.9067 2123.7737 446.8952 2125.3428 448.4502 C2126.9121 450.0051 2126.9236 452.5378 2125.3687 454.1069 C2123.8137 455.6761 2121.281 455.6877 2119.7119 454.1327 C2118.1426 452.5777 2118.1311 450.0451 2119.686 448.4759 Z" stroke="none" clip-path="url(#clipPath2)"/>
      <path d="M2430 755.9941 L2425.7 743.2855 L2417.2529 751.8091 Z" stroke="none" clip-path="url(#clipPath2)"/>
    </g>
    <g stroke-linecap="butt" transform="matrix(0.5034,0,0,0.5034,-397.7241,1.5103)" fill="white" text-rendering="geometricPrecision" shape-rendering="geometricPrecision" stroke="white" stroke-miterlimit="1.45">
      <rect x="2186.1622" width="180.2031" height="22.8438" y="592.2209" clip-path="url(#clipPath2)" stroke="none"/>
    </g>
    <g stroke-linecap="butt" font-size="16px" transform="matrix(0.5034,0,0,0.5034,-397.7241,1.5103)" fill="navy" text-rendering="geometricPrecision" font-family="sans-serif" shape-rendering="geometricPrecision" stroke="navy" stroke-miterlimit="1.45">
      <text x="2188.1621" xml:space="preserve" y="609.6896" clip-path="url(#clipPath2)" stroke="none">bf:digitalCharacteristic</text>
      <path fill="none" d="M2123.918 455.0418 L2276.1758 865.6803" clip-path="url(#clipPath2)"/>
      <path d="M2121.1367 447.5409 C2123.208 446.7728 2125.5098 447.8294 2126.2778 449.9007 C2127.0459 451.9721 2125.9893 454.2738 2123.918 455.0418 C2121.8467 455.8099 2119.5449 454.7533 2118.7769 452.682 C2118.0088 450.6106 2119.0654 448.3089 2121.1367 447.5409 Z" stroke="none" clip-path="url(#clipPath2)"/>
      <path d="M2280 875.9941 L2281.4539 862.6567 L2270.2024 866.8286 Z" stroke="none" clip-path="url(#clipPath2)"/>
    </g>
    <g stroke-linecap="butt" transform="matrix(0.5034,0,0,0.5034,-397.7241,1.5103)" fill="white" text-rendering="geometricPrecision" shape-rendering="geometricPrecision" stroke="white" stroke-miterlimit="1.45">
      <rect x="2111.1622" width="180.2031" height="22.8438" y="652.2209" clip-path="url(#clipPath2)" stroke="none"/>
    </g>
    <g stroke-linecap="butt" font-size="16px" transform="matrix(0.5034,0,0,0.5034,-397.7241,1.5103)" fill="navy" text-rendering="geometricPrecision" font-family="sans-serif" shape-rendering="geometricPrecision" stroke="navy" stroke-miterlimit="1.45">
      <text x="2113.1621" xml:space="preserve" y="669.6896" clip-path="url(#clipPath2)" stroke="none">bf:digitalCharacteristic</text>
      <path fill="none" d="M2121.022 454.9972 L1954.14 865.8029" clip-path="url(#clipPath2)"/>
      <path d="M2124.0327 447.5854 C2126.0793 448.4168 2127.0647 450.75 2126.2332 452.7967 C2125.4019 454.8434 2123.0686 455.8286 2121.022 454.9972 C2118.9753 454.1658 2117.99 451.8326 2118.8215 449.7859 C2119.6528 447.7392 2121.9861 446.754 2124.0327 447.5854 Z" stroke="none" clip-path="url(#clipPath2)"/>
      <path d="M1950 875.9941 L1960.0752 867.1346 L1948.9575 862.6182 Z" stroke="none" clip-path="url(#clipPath2)"/>
    </g>
    <g stroke-linecap="butt" transform="matrix(0.5034,0,0,0.5034,-397.7241,1.5103)" fill="white" text-rendering="geometricPrecision" shape-rendering="geometricPrecision" stroke="white" stroke-miterlimit="1.45">
      <rect x="1978.5684" width="115.3906" height="22.8438" y="652.2209" clip-path="url(#clipPath2)" stroke="none"/>
    </g>
    <g stroke-linecap="butt" font-size="16px" transform="matrix(0.5034,0,0,0.5034,-397.7241,1.5103)" fill="navy" text-rendering="geometricPrecision" font-family="sans-serif" shape-rendering="geometricPrecision" stroke="navy" stroke-miterlimit="1.45">
      <text x="1980.5684" xml:space="preserve" y="669.6896" clip-path="url(#clipPath2)" stroke="none">bf:distribution</text>
      <path fill="none" d="M2122.5273 399.2856 L2122.5273 303.4854" clip-path="url(#clipPath2)"/>
      <path d="M2122.5273 407.2856 C2120.3181 407.2856 2118.5273 405.4948 2118.5273 403.2856 C2118.5273 401.0765 2120.3181 399.2856 2122.5273 399.2856 C2124.7366 399.2856 2126.5273 401.0765 2126.5273 403.2856 C2126.5273 405.4948 2124.7366 407.2856 2122.5273 407.2856 Z" stroke="none" clip-path="url(#clipPath2)"/>
      <path d="M2122.5273 292.4854 L2116.5273 304.4854 L2128.5273 304.4854 Z" stroke="none" clip-path="url(#clipPath2)"/>
    </g>
    <g stroke-linecap="butt" transform="matrix(0.5034,0,0,0.5034,-397.7241,1.5103)" fill="white" text-rendering="geometricPrecision" shape-rendering="geometricPrecision" stroke="white" stroke-miterlimit="1.45">
      <rect x="2079.336" width="86.3828" height="22.8438" y="336.4709" clip-path="url(#clipPath2)" stroke="none"/>
    </g>
    <g stroke-linecap="butt" font-size="16px" transform="matrix(0.5034,0,0,0.5034,-397.7241,1.5103)" fill="navy" text-rendering="geometricPrecision" font-family="sans-serif" shape-rendering="geometricPrecision" stroke="navy" stroke-miterlimit="1.45">
      <text x="2081.3359" xml:space="preserve" y="353.9396" clip-path="url(#clipPath2)" stroke="none">bf:hasItem</text>
      <path fill="none" d="M2122.5273 243.5271 L2122.5273 127.6532" clip-path="url(#clipPath2)"/>
      <path d="M2122.5273 251.5271 C2120.3181 251.5271 2118.5273 249.7362 2118.5273 247.5271 C2118.5273 245.3179 2120.3181 243.5271 2122.5273 243.5271 C2124.7366 243.5271 2126.5273 245.3179 2126.5273 247.5271 C2126.5273 249.7362 2124.7366 251.5271 2122.5273 251.5271 Z" stroke="none" clip-path="url(#clipPath2)"/>
      <path d="M2122.5273 116.6532 L2116.5273 128.6532 L2128.5273 128.6532 Z" stroke="none" clip-path="url(#clipPath2)"/>
    </g>
    <g stroke-linecap="butt" transform="matrix(0.5034,0,0,0.5034,-397.7241,1.5103)" fill="white" text-rendering="geometricPrecision" shape-rendering="geometricPrecision" stroke="white" stroke-miterlimit="1.45">
      <rect x="2084.4688" width="76.1172" height="22.8438" y="170.6488" clip-path="url(#clipPath2)" stroke="none"/>
    </g>
    <g stroke-linecap="butt" font-size="16px" transform="matrix(0.5034,0,0,0.5034,-397.7241,1.5103)" fill="navy" text-rendering="geometricPrecision" font-family="sans-serif" shape-rendering="geometricPrecision" stroke="navy" stroke-miterlimit="1.45">
      <text x="2086.4688" xml:space="preserve" y="188.1175" clip-path="url(#clipPath2)" stroke="none">bf:heldBy</text>
      <path fill="none" d="M2166.6804 247.9786 L2420.1565 121.5567" clip-path="url(#clipPath2)"/>
      <path d="M2159.5212 251.5491 C2158.5354 249.5722 2159.3386 247.1703 2161.3157 246.1843 C2163.2925 245.1984 2165.6943 246.0017 2166.6804 247.9786 C2167.6663 249.9555 2166.863 252.3574 2164.886 253.3434 C2162.9092 254.3293 2160.5073 253.526 2159.5212 251.5491 Z" stroke="none" clip-path="url(#clipPath2)"/>
      <path d="M2430 116.6471 L2416.5835 116.6338 L2421.9395 127.3723 Z" stroke="none" clip-path="url(#clipPath2)"/>
    </g>
    <g stroke-linecap="butt" transform="matrix(0.5034,0,0,0.5034,-397.7241,1.5103)" fill="white" text-rendering="geometricPrecision" shape-rendering="geometricPrecision" stroke="white" stroke-miterlimit="1.45">
      <rect x="2214.9968" width="154.375" height="22.8438" y="173.9613" clip-path="url(#clipPath2)" stroke="none"/>
    </g>
    <g stroke-linecap="butt" font-size="16px" transform="matrix(0.5034,0,0,0.5034,-397.7241,1.5103)" fill="navy" text-rendering="geometricPrecision" font-family="sans-serif" shape-rendering="geometricPrecision" stroke="navy" stroke-miterlimit="1.45">
      <text x="2216.9968" xml:space="preserve" y="191.43" clip-path="url(#clipPath2)" stroke="none">bf:Electroniclocator</text>
      <path fill="none" d="M2078.0085 248.8325 L1809.9342 121.3706" clip-path="url(#clipPath2)"/>
      <path d="M2085.2336 252.2678 C2084.2849 254.2629 2081.8984 255.1112 2079.9033 254.1626 C2077.9084 253.2139 2077.0601 250.8276 2078.0085 248.8325 C2078.9573 246.8374 2081.3438 245.9891 2083.3389 246.9377 C2085.3337 247.8864 2086.1821 250.2727 2085.2336 252.2678 Z" stroke="none" clip-path="url(#clipPath2)"/>
      <path d="M1800 116.6472 L1808.2609 127.2187 L1813.4138 116.3814 Z" stroke="none" clip-path="url(#clipPath2)"/>
    </g>
    <g stroke-linecap="butt" transform="matrix(0.5034,0,0,0.5034,-397.7241,1.5103)" fill="white" text-rendering="geometricPrecision" shape-rendering="geometricPrecision" stroke="white" stroke-miterlimit="1.45">
      <rect x="1895.2712" width="101.0391" height="22.8438" y="174.5448" clip-path="url(#clipPath2)" stroke="none"/>
    </g>
    <g stroke-linecap="butt" font-size="16px" transform="matrix(0.5034,0,0,0.5034,-397.7241,1.5103)" fill="navy" text-rendering="geometricPrecision" font-family="sans-serif" shape-rendering="geometricPrecision" stroke="navy" stroke-miterlimit="1.45">
      <text x="1897.2712" xml:space="preserve" y="192.0135" clip-path="url(#clipPath2)" stroke="none">bf:shelfMark</text>
      <path fill="none" d="M1440.7074 720.8372 L1656.8302 1057.576" clip-path="url(#clipPath2)"/>
      <path d="M1436.3864 714.1045 C1438.2455 712.9113 1440.72 713.4511 1441.9132 715.3103 C1443.1064 717.1694 1442.5665 719.6439 1440.7074 720.8372 C1438.8483 722.0304 1436.3738 721.4905 1435.1805 719.6313 C1433.9873 717.7722 1434.5272 715.2977 1436.3864 714.1045 Z" stroke="none" clip-path="url(#clipPath2)"/>
      <path d="M1662.7716 1066.8335 L1661.3395 1053.4938 L1651.2406 1059.9753 Z" stroke="none" clip-path="url(#clipPath2)"/>
    </g>
    <g stroke-linecap="butt" transform="matrix(0.5034,0,0,0.5034,-397.7241,1.5103)" fill="white" text-rendering="geometricPrecision" shape-rendering="geometricPrecision" stroke="white" stroke-miterlimit="1.45">
      <rect x="1438.985" width="226.6094" height="41.6875" y="873.8488" clip-path="url(#clipPath2)" stroke="none"/>
    </g>
    <g stroke-linecap="butt" font-size="16px" transform="matrix(0.5034,0,0,0.5034,-397.7241,1.5103)" fill="navy" text-rendering="geometricPrecision" font-family="sans-serif" shape-rendering="geometricPrecision" stroke="navy" stroke-miterlimit="1.45">
      <text x="1502.86" xml:space="preserve" y="891.3175" clip-path="url(#clipPath2)" stroke="none">rdae:P20006</text>
      <text x="1440.985" xml:space="preserve" y="910.1613" clip-path="url(#clipPath2)" stroke="none">has_language_of_expression</text>
      <path fill="none" d="M1348.542 399.2796 L1348.542 126.1277" clip-path="url(#clipPath2)"/>
      <path d="M1348.542 407.2796 C1346.3329 407.2796 1344.542 405.4888 1344.542 403.2796 C1344.542 401.0705 1346.3329 399.2796 1348.542 399.2796 C1350.7511 399.2796 1352.542 401.0705 1352.542 403.2796 C1352.542 405.4888 1350.7511 407.2796 1348.542 407.2796 Z" stroke="none" clip-path="url(#clipPath2)"/>
      <path d="M1348.542 115.1277 L1342.542 127.1277 L1354.542 127.1277 Z" stroke="none" clip-path="url(#clipPath2)"/>
    </g>
    <g stroke-linecap="butt" transform="matrix(0.5034,0,0,0.5034,-397.7241,1.5103)" fill="white" text-rendering="geometricPrecision" shape-rendering="geometricPrecision" stroke="white" stroke-miterlimit="1.45">
      <rect x="1293.1865" width="110.7109" height="22.8438" y="247.7915" clip-path="url(#clipPath2)" stroke="none"/>
    </g>
    <g stroke-linecap="butt" font-size="16px" transform="matrix(0.5034,0,0,0.5034,-397.7241,1.5103)" fill="navy" text-rendering="geometricPrecision" font-family="sans-serif" shape-rendering="geometricPrecision" stroke="navy" stroke-miterlimit="1.45">
      <text x="1295.1865" xml:space="preserve" y="265.2603" clip-path="url(#clipPath2)" stroke="none">lode:Illustrate</text>
    </g>
    <g fill="rgb(210,210,210)" text-rendering="geometricPrecision" shape-rendering="geometricPrecision" transform="matrix(0.5034,0,0,0.5034,-397.7241,1.5103) translate(4,4)" stroke="rgb(210,210,210)">
      <rect x="800.4883" width="445.8405" height="142.2292" y="70.1413" clip-path="url(#clipPath3)" stroke="none"/>
    </g>
    <g fill="white" text-rendering="geometricPrecision" shape-rendering="geometricPrecision" transform="matrix(0.5034,0,0,0.5034,-397.7241,1.5103)" stroke="white">
      <rect x="800.4883" width="445.8405" height="142.2292" y="70.1413" clip-path="url(#clipPath2)" stroke="none"/>
      <rect x="800.4883" y="70.1413" clip-path="url(#clipPath2)" fill="rgb(183,182,158)" width="445.8405" height="21.666" stroke="none"/>
    </g>
    <g font-size="15px" stroke-linecap="butt" transform="matrix(0.5034,0,0,0.5034,-397.7241,1.5103)" text-rendering="geometricPrecision" font-family="sans-serif" shape-rendering="geometricPrecision" font-weight="bold" stroke-miterlimit="1.45">
      <text x="1167.4612" xml:space="preserve" y="86.6433" clip-path="url(#clipPath2)" stroke="none">Prefixes   </text>
      <rect fill="none" x="800.4883" width="445.8405" height="142.2292" y="70.1413" clip-path="url(#clipPath2)"/>
      <text x="817.4883" xml:space="preserve" font-size="16px" y="124.2761" clip-path="url(#clipPath2)" stroke="none">bf:</text>
      <text x="817.4883" xml:space="preserve" font-size="16px" y="143.1198" clip-path="url(#clipPath2)" stroke="none">rdae:</text>
      <text x="817.4883" xml:space="preserve" font-size="16px" y="161.9636" clip-path="url(#clipPath2)" stroke="none">rdac: </text>
      <text x="817.4883" xml:space="preserve" font-size="16px" y="180.8073" clip-path="url(#clipPath2)" stroke="none">lode:</text>
      <text x="866.9414" font-size="16px" y="124.2761" clip-path="url(#clipPath2)" stroke="none" font-weight="normal" xml:space="preserve">http://id.loc.gov/ontologies/bibframe/</text>
      <text x="866.9414" font-size="16px" y="143.1198" clip-path="url(#clipPath2)" stroke="none" font-weight="normal" xml:space="preserve">http://rdaregistry.info/Elements/e/</text>
      <text x="866.9414" font-size="16px" y="161.9636" clip-path="url(#clipPath2)" stroke="none" font-weight="normal" xml:space="preserve">http://rdaregistry.info/Elements/c/</text>
      <text x="866.9414" font-size="16px" y="180.8073" clip-path="url(#clipPath2)" stroke="none" font-weight="normal" xml:space="preserve">http://linkedevents.org/ontology/</text>
    </g>
  </g>
</svg>
