<?xml version="1.0" encoding="UTF-8"?><svg xmlns="http://www.w3.org/2000/svg" xmlns:xlink="http://www.w3.org/1999/xlink" fill-opacity="1" color-rendering="auto" color-interpolation="auto" text-rendering="auto" stroke="black" stroke-linecap="square" width="876" stroke-miterlimit="10" shape-rendering="auto" stroke-opacity="1" fill="black" stroke-dasharray="none" font-weight="normal" stroke-width="1" height="636" font-family="'Dialog'" font-style="normal" stroke-linejoin="miter" font-size="12px" stroke-dashoffset="0" image-rendering="auto">
  <!--Generated by ySVG 2.5-->
  <defs id="genericDefs"/>
  <g>
    <defs id="defs1">
      <clipPath clipPathUnits="userSpaceOnUse" id="clipPath1">
        <path d="M0 0 L876 0 L876 636 L0 636 L0 0 Z"/>
      </clipPath>
      <clipPath clipPathUnits="userSpaceOnUse" id="clipPath2">
        <path d="M437 -91 L1783 -91 L1783 886.2328 L437 886.2328 L437 -91 Z"/>
      </clipPath>
      <clipPath clipPathUnits="userSpaceOnUse" id="clipPath3">
        <path d="M433 -95 L1779 -95 L1779 882.2328 L433 882.2328 L433 -95 Z"/>
      </clipPath>
    </defs>
    <g fill="yellow" text-rendering="geometricPrecision" shape-rendering="geometricPrecision" transform="matrix(0.6508,0,0,0.6508,-284.4071,59.2244)" stroke="yellow">
      <rect x="647.3667" y="634.0938" clip-path="url(#clipPath2)" width="205.2667" rx="4" ry="4" height="51.8125" stroke="none"/>
    </g>
    <g font-size="16px" stroke-linecap="butt" transform="matrix(0.6508,0,0,0.6508,-284.4071,59.2244)" text-rendering="geometricPrecision" font-family="sans-serif" shape-rendering="geometricPrecision" stroke-miterlimit="1.45">
      <text x="654.1523" xml:space="preserve" y="666.0469" clip-path="url(#clipPath2)" stroke="none">dcterms:PhysicalMedium</text>
      <rect x="647.3667" y="634.0938" clip-path="url(#clipPath2)" fill="none" width="205.2667" rx="4" ry="4" height="51.8125"/>
    </g>
    <g fill="yellow" text-rendering="geometricPrecision" shape-rendering="geometricPrecision" transform="matrix(0.6508,0,0,0.6508,-284.4071,59.2244)" stroke="yellow">
      <rect x="1529.2112" y="188" clip-path="url(#clipPath2)" width="181.5776" rx="4" ry="4" height="44" stroke="none"/>
    </g>
    <g font-size="16px" stroke-linecap="butt" transform="matrix(0.6508,0,0,0.6508,-284.4071,59.2244)" text-rendering="geometricPrecision" font-family="sans-serif" shape-rendering="geometricPrecision" stroke-miterlimit="1.45">
      <text x="1537.625" xml:space="preserve" y="216.0469" clip-path="url(#clipPath2)" stroke="none">schema:Organization</text>
      <rect x="1529.2112" y="188" clip-path="url(#clipPath2)" fill="none" width="181.5776" rx="4" ry="4" height="44"/>
    </g>
    <g fill="rgb(204,255,204)" text-rendering="geometricPrecision" shape-rendering="geometricPrecision" transform="matrix(0.6508,0,0,0.6508,-284.4071,59.2244)" stroke="rgb(204,255,204)">
      <path d="M1190.1307 577 L1414.8365 577 L1389.8693 623 L1165.1635 623 Z" fill-rule="evenodd" clip-path="url(#clipPath2)" stroke="none"/>
    </g>
    <g font-size="16px" stroke-linecap="butt" transform="matrix(0.6508,0,0,0.6508,-284.4071,59.2244)" text-rendering="geometricPrecision" font-family="sans-serif" shape-rendering="geometricPrecision" stroke-miterlimit="1.45">
      <text x="1180.8242" xml:space="preserve" y="606.0469" clip-path="url(#clipPath2)" stroke="none">schema:Duration (ISO 8601)</text>
      <path fill="none" d="M1190.1307 577 L1414.8365 577 L1389.8693 623 L1165.1635 623 Z" fill-rule="evenodd" clip-path="url(#clipPath2)"/>
    </g>
    <g fill="yellow" text-rendering="geometricPrecision" shape-rendering="geometricPrecision" transform="matrix(0.6508,0,0,0.6508,-284.4071,59.2244)" stroke="yellow">
      <rect x="1005.5159" y="664" clip-path="url(#clipPath2)" width="148.9682" rx="4" ry="4" height="52" stroke="none"/>
    </g>
    <g font-size="16px" stroke-linecap="butt" transform="matrix(0.6508,0,0,0.6508,-284.4071,59.2244)" text-rendering="geometricPrecision" font-family="sans-serif" shape-rendering="geometricPrecision" stroke-miterlimit="1.45">
      <text x="1010.5195" xml:space="preserve" y="696.0469" clip-path="url(#clipPath2)" stroke="none">schema:Language</text>
      <rect x="1005.5159" y="664" clip-path="url(#clipPath2)" fill="none" width="148.9682" rx="4" ry="4" height="52"/>
    </g>
    <g fill="yellow" text-rendering="geometricPrecision" shape-rendering="geometricPrecision" transform="matrix(0.6508,0,0,0.6508,-284.4071,59.2244)" stroke="yellow">
      <rect x="480.2462" y="304.4844" clip-path="url(#clipPath2)" width="179.5075" rx="4" ry="4" height="51.0312" stroke="none"/>
    </g>
    <g font-size="16px" stroke-linecap="butt" transform="matrix(0.6508,0,0,0.6508,-284.4071,59.2244)" text-rendering="geometricPrecision" font-family="sans-serif" shape-rendering="geometricPrecision" stroke-miterlimit="1.45">
      <text x="483.1992" xml:space="preserve" y="336.0469" clip-path="url(#clipPath2)" stroke="none">dcterms:PeriodOfTime</text>
      <rect x="480.2462" y="304.4844" clip-path="url(#clipPath2)" fill="none" width="179.5075" rx="4" ry="4" height="51.0312"/>
    </g>
    <g fill="yellow" text-rendering="geometricPrecision" shape-rendering="geometricPrecision" transform="matrix(0.6508,0,0,0.6508,-284.4071,59.2244)" stroke="yellow">
      <rect x="535.5474" y="488.5306" clip-path="url(#clipPath2)" width="128.9053" rx="4" ry="4" height="42.9388" stroke="none"/>
    </g>
    <g font-size="16px" stroke-linecap="butt" transform="matrix(0.6508,0,0,0.6508,-284.4071,59.2244)" text-rendering="geometricPrecision" font-family="sans-serif" shape-rendering="geometricPrecision" stroke-miterlimit="1.45">
      <text x="548.2773" xml:space="preserve" y="516.0469" clip-path="url(#clipPath2)" stroke="none">schema:Place</text>
      <rect x="535.5474" y="488.5306" clip-path="url(#clipPath2)" fill="none" width="128.9053" rx="4" ry="4" height="42.9388"/>
    </g>
    <g fill="yellow" text-rendering="geometricPrecision" shape-rendering="geometricPrecision" transform="matrix(0.6508,0,0,0.6508,-284.4071,59.2244)" stroke="yellow">
      <rect x="1286.6075" y="95.5" clip-path="url(#clipPath2)" width="126.7849" rx="4" ry="4" height="49" stroke="none"/>
    </g>
    <g font-size="16px" stroke-linecap="butt" transform="matrix(0.6508,0,0,0.6508,-284.4071,59.2244)" text-rendering="geometricPrecision" font-family="sans-serif" shape-rendering="geometricPrecision" stroke-miterlimit="1.45">
      <text x="1297.043" xml:space="preserve" y="126.0469" clip-path="url(#clipPath2)" stroke="none">crm:E35_Title</text>
      <rect x="1286.6075" y="95.5" clip-path="url(#clipPath2)" fill="none" width="126.7849" rx="4" ry="4" height="49"/>
    </g>
    <g fill="rgb(204,255,204)" text-rendering="geometricPrecision" shape-rendering="geometricPrecision" transform="matrix(0.6508,0,0,0.6508,-284.4071,59.2244)" stroke="rgb(204,255,204)">
      <path d="M1011.6433 98 L1165.4458 98 L1148.3567 142 L994.5541 142 Z" fill-rule="evenodd" clip-path="url(#clipPath2)" stroke="none"/>
    </g>
    <g font-size="16px" stroke-linecap="butt" transform="matrix(0.6508,0,0,0.6508,-284.4071,59.2244)" text-rendering="geometricPrecision" font-family="sans-serif" shape-rendering="geometricPrecision" stroke-miterlimit="1.45">
      <text x="1011.2773" xml:space="preserve" y="126.0469" clip-path="url(#clipPath2)" stroke="none">Schema:Text/URL</text>
      <path fill="none" d="M1011.6433 98 L1165.4458 98 L1148.3567 142 L994.5541 142 Z" fill-rule="evenodd" clip-path="url(#clipPath2)"/>
    </g>
    <g fill="yellow" text-rendering="geometricPrecision" shape-rendering="geometricPrecision" transform="matrix(0.6508,0,0,0.6508,-284.4071,59.2244)" stroke="yellow">
      <rect x="1587.9781" y="308" clip-path="url(#clipPath2)" width="184.0439" rx="4" ry="4" height="44" stroke="none"/>
    </g>
    <g font-size="16px" stroke-linecap="butt" transform="matrix(0.6508,0,0,0.6508,-284.4071,59.2244)" text-rendering="geometricPrecision" font-family="sans-serif" shape-rendering="geometricPrecision" stroke-miterlimit="1.45">
      <text x="1593.4453" xml:space="preserve" y="336.0469" clip-path="url(#clipPath2)" stroke="none">schema:AlbumRelease</text>
      <rect x="1587.9781" y="308" clip-path="url(#clipPath2)" fill="none" width="184.0439" rx="4" ry="4" height="44"/>
    </g>
    <g fill="yellow" text-rendering="geometricPrecision" shape-rendering="geometricPrecision" transform="matrix(0.6508,0,0,0.6508,-284.4071,59.2244)" stroke="yellow">
      <rect x="1602.9781" y="398" clip-path="url(#clipPath2)" width="154.0439" rx="4" ry="4" height="44" stroke="none"/>
    </g>
    <g font-size="16px" stroke-linecap="butt" transform="matrix(0.6508,0,0,0.6508,-284.4071,59.2244)" text-rendering="geometricPrecision" font-family="sans-serif" shape-rendering="geometricPrecision" stroke-miterlimit="1.45">
      <text x="1617.1133" xml:space="preserve" y="426.0469" clip-path="url(#clipPath2)" stroke="none">schema:ItemList</text>
      <rect x="1602.9781" y="398" clip-path="url(#clipPath2)" fill="none" width="154.0439" rx="4" ry="4" height="44"/>
    </g>
    <g fill="yellow" text-rendering="geometricPrecision" shape-rendering="geometricPrecision" transform="matrix(0.6508,0,0,0.6508,-284.4071,59.2244)" stroke="yellow">
      <rect x="1413.0159" y="489" clip-path="url(#clipPath2)" width="173.9682" rx="4" ry="4" height="42" stroke="none"/>
    </g>
    <g font-size="16px" stroke-linecap="butt" transform="matrix(0.6508,0,0,0.6508,-284.4071,59.2244)" text-rendering="geometricPrecision" font-family="sans-serif" shape-rendering="geometricPrecision" stroke-miterlimit="1.45">
      <text x="1417.625" xml:space="preserve" y="516.0469" clip-path="url(#clipPath2)" stroke="none">schema:Organization</text>
      <rect x="1413.0159" y="489" clip-path="url(#clipPath2)" fill="none" width="173.9682" rx="4" ry="4" height="42"/>
    </g>
    <g fill="yellow" text-rendering="geometricPrecision" shape-rendering="geometricPrecision" transform="matrix(0.6508,0,0,0.6508,-284.4071,59.2244)" stroke="yellow">
      <rect x="1443.8962" y="666.0469" clip-path="url(#clipPath2)" width="112.2075" rx="4" ry="4" height="47.9062" stroke="none"/>
    </g>
    <g font-size="16px" stroke-linecap="butt" transform="matrix(0.6508,0,0,0.6508,-284.4071,59.2244)" text-rendering="geometricPrecision" font-family="sans-serif" shape-rendering="geometricPrecision" stroke-miterlimit="1.45">
      <text x="1460.4336" xml:space="preserve" y="696.0469" clip-path="url(#clipPath2)" stroke="none">foaf:agent</text>
      <rect x="1443.8962" y="666.0469" clip-path="url(#clipPath2)" fill="none" width="112.2075" rx="4" ry="4" height="47.9062"/>
    </g>
    <g fill="yellow" text-rendering="geometricPrecision" shape-rendering="geometricPrecision" transform="matrix(0.6508,0,0,0.6508,-284.4071,59.2244)" stroke="yellow">
      <rect x="971.5704" y="308" clip-path="url(#clipPath2)" width="217.1101" rx="4" ry="4" height="44" stroke="none"/>
    </g>
    <g font-size="16px" stroke-linecap="butt" transform="matrix(0.6508,0,0,0.6508,-284.4071,59.2244)" text-rendering="geometricPrecision" font-family="sans-serif" shape-rendering="geometricPrecision" stroke-miterlimit="1.45">
      <text x="1000.4653" xml:space="preserve" y="336.0469" clip-path="url(#clipPath2)" stroke="none">schema:MusicAlbum</text>
      <rect x="971.5704" y="308" clip-path="url(#clipPath2)" fill="none" width="217.1101" rx="4" ry="4" height="44"/>
    </g>
    <g stroke-linecap="butt" transform="matrix(0.6508,0,0,0.6508,-284.4071,59.2244)" fill="navy" text-rendering="geometricPrecision" shape-rendering="geometricPrecision" stroke="navy" stroke-miterlimit="1.45">
      <path fill="none" d="M1500 534.9619 L1500 655.0433" clip-path="url(#clipPath2)"/>
      <path d="M1500 526.9619 C1502.2091 526.9619 1504 528.7527 1504 530.9619 C1504 533.1711 1502.2091 534.9619 1500 534.9619 C1497.7909 534.9619 1496 533.1711 1496 530.9619 C1496 528.7527 1497.7909 526.9619 1500 526.9619 Z" clip-path="url(#clipPath2)" stroke="none"/>
      <path d="M1500 666.0433 L1506 654.0433 L1494 654.0433 Z" clip-path="url(#clipPath2)" stroke="none"/>
      <rect x="1433.8242" y="587.1016" clip-path="url(#clipPath2)" fill="white" width="132.3516" height="22.8438" stroke="none"/>
      <text x="1435.8242" font-size="16px" y="604.5703" clip-path="url(#clipPath2)" font-family="sans-serif" stroke="none" xml:space="preserve">schema:member</text>
      <path fill="none" d="M1192.6843 330 L1576.9683 330" clip-path="url(#clipPath2)"/>
      <path d="M1184.6843 330 C1184.6843 327.7909 1186.4752 326 1188.6843 326 C1190.8934 326 1192.6843 327.7909 1192.6843 330 C1192.6843 332.2091 1190.8934 334 1188.6843 334 C1186.4752 334 1184.6843 332.2091 1184.6843 330 Z" clip-path="url(#clipPath2)" stroke="none"/>
      <path d="M1587.9683 330 L1575.9683 324 L1575.9683 336 Z" clip-path="url(#clipPath2)" stroke="none"/>
      <rect x="1282.1457" y="318.5781" clip-path="url(#clipPath2)" fill="white" width="212.3672" height="22.8438" stroke="none"/>
      <text x="1284.1458" font-size="16px" y="336.0469" clip-path="url(#clipPath2)" font-family="sans-serif" stroke="none" xml:space="preserve">schema:albumReleaseType</text>
      <path fill="none" d="M1192.64 346.8807 L1592.0837 406.8098" clip-path="url(#clipPath2)"/>
      <path d="M1184.7286 345.6938 C1185.0564 343.5091 1187.0931 342.0037 1189.2778 342.3315 C1191.4625 342.6593 1192.9678 344.696 1192.64 346.8807 C1192.3123 349.0654 1190.2755 350.5707 1188.0908 350.243 C1185.9061 349.9152 1184.4009 347.8784 1184.7286 345.6938 Z" clip-path="url(#clipPath2)" stroke="none"/>
      <path d="M1602.962 408.4419 L1591.9851 400.7279 L1590.2046 412.595 Z" clip-path="url(#clipPath2)" stroke="none"/>
      <rect x="1342.3566" y="365.9436" clip-path="url(#clipPath2)" fill="white" width="106.9453" height="22.8438" stroke="none"/>
      <text x="1344.3567" font-size="16px" y="383.4124" clip-path="url(#clipPath2)" font-family="sans-serif" stroke="none" xml:space="preserve">schema:track</text>
      <path fill="none" d="M1135.1329 353.5817 L1440.8977 484.6629" clip-path="url(#clipPath2)"/>
      <path d="M1127.7802 350.4295 C1128.6506 348.3991 1131.0022 347.4588 1133.0326 348.3292 C1135.0631 349.1996 1136.0034 351.5513 1135.1329 353.5817 C1134.2625 355.6121 1131.9109 356.5525 1129.8805 355.682 C1127.85 354.8116 1126.9097 352.46 1127.7802 350.4295 Z" clip-path="url(#clipPath2)" stroke="none"/>
      <path d="M1451.0078 488.9971 L1442.3427 478.7542 L1437.6145 489.7834 Z" clip-path="url(#clipPath2)" stroke="none"/>
      <rect x="1229.7877" y="409.0781" clip-path="url(#clipPath2)" fill="white" width="122.8828" height="22.8438" stroke="none"/>
      <text x="1231.7876" font-size="16px" y="426.5469" clip-path="url(#clipPath2)" font-family="sans-serif" stroke="none" xml:space="preserve">schema:creator</text>
      <path fill="none" d="M967.5557 330 L670.752 330" clip-path="url(#clipPath2)"/>
      <path d="M975.5557 330 C975.5557 332.2091 973.7648 334 971.5557 334 C969.3465 334 967.5557 332.2091 967.5557 330 C967.5557 327.7909 969.3465 326 971.5557 326 C973.7648 326 975.5557 327.7909 975.5557 330 Z" clip-path="url(#clipPath2)" stroke="none"/>
      <path d="M659.752 330 L671.752 336 L671.752 324 Z" clip-path="url(#clipPath2)" stroke="none"/>
      <rect x="745.9043" y="318.5781" clip-path="url(#clipPath2)" fill="white" width="139.5156" height="22.8438" stroke="none"/>
      <text x="747.9043" font-size="16px" y="336.0469" clip-path="url(#clipPath2)" font-family="sans-serif" stroke="none" xml:space="preserve">dcterms:available</text>
      <path fill="none" d="M1017.683 353.4098 L667.5828 484.6631" clip-path="url(#clipPath2)"/>
      <path d="M1025.174 350.6015 C1025.9495 352.67 1024.9011 354.9756 1022.8326 355.7511 C1020.7641 356.5266 1018.4585 355.4784 1017.683 353.4098 C1016.9075 351.3412 1017.9557 349.0357 1020.0243 348.2602 C1022.0928 347.4847 1024.3984 348.5329 1025.174 350.6015 Z" clip-path="url(#clipPath2)" stroke="none"/>
      <path d="M657.2828 488.5246 L670.6254 489.9302 L666.4129 478.6939 Z" clip-path="url(#clipPath2)" stroke="none"/>
      <rect x="740.2313" y="410.3484" clip-path="url(#clipPath2)" fill="white" width="190.2188" height="22.8438" stroke="none"/>
      <text x="742.2313" font-size="16px" y="427.8172" clip-path="url(#clipPath2)" font-family="sans-serif" stroke="none" xml:space="preserve">schema:locationCreated</text>
      <path fill="none" d="M1111.5809 305.5233 L1309.8536 151.2395" clip-path="url(#clipPath2)"/>
      <path d="M1105.2672 310.4362 C1103.9105 308.6927 1104.2241 306.1796 1105.9677 304.8229 C1107.7111 303.4662 1110.2242 303.7798 1111.5809 305.5233 C1112.9376 307.2668 1112.624 309.7799 1110.8805 311.1366 C1109.1371 312.4933 1106.6239 312.1797 1105.2672 310.4362 Z" clip-path="url(#clipPath2)" stroke="none"/>
      <path d="M1318.535 144.4842 L1305.3798 147.1183 L1312.7491 156.5889 Z" clip-path="url(#clipPath2)" stroke="none"/>
      <rect x="1162.4563" y="214.8281" clip-path="url(#clipPath2)" fill="white" width="102" height="22.8438" stroke="none"/>
      <text x="1164.4563" font-size="16px" y="232.2969" clip-path="url(#clipPath2)" font-family="sans-serif" stroke="none" xml:space="preserve">dcterms:title</text>
      <path fill="none" d="M1080.11 303.9797 L1080.0221 156.983" clip-path="url(#clipPath2)" stroke="green"/>
    </g>
    <g stroke-linecap="butt" transform="matrix(0.6508,0,0,0.6508,-284.4071,59.2244)" fill-opacity="0" fill="rgb(0,0,0)" text-rendering="geometricPrecision" shape-rendering="geometricPrecision" stroke="rgb(0,0,0)" stroke-opacity="0" stroke-miterlimit="1.45">
      <path d="M1080.1146 311.9797 C1077.9055 311.981 1076.1135 310.1912 1076.1123 307.9821 C1076.1111 305.7729 1077.9009 303.981 1080.11 303.9797 C1082.3191 303.9785 1084.1111 305.7683 1084.1123 307.9774 C1084.1135 310.1866 1082.3237 311.9785 1080.1146 311.9797 Z" stroke="none" clip-path="url(#clipPath2)"/>
    </g>
    <g stroke-linecap="butt" transform="matrix(0.6508,0,0,0.6508,-284.4071,59.2244)" fill="green" text-rendering="geometricPrecision" shape-rendering="geometricPrecision" stroke="green" stroke-miterlimit="1.45">
      <path fill="none" d="M1080.1146 311.9797 C1077.9055 311.981 1076.1135 310.1912 1076.1123 307.9821 C1076.1111 305.7729 1077.9009 303.981 1080.11 303.9797 C1082.3191 303.9785 1084.1111 305.7683 1084.1123 307.9774 C1084.1135 310.1866 1082.3237 311.9785 1080.1146 311.9797 Z" clip-path="url(#clipPath2)"/>
      <path fill="white" d="M1080.0132 141.983 L1074.0227 157.9865 L1086.0227 157.9794 Z" clip-path="url(#clipPath2)" stroke="none"/>
      <path fill="none" d="M1080.0132 141.983 L1074.0227 157.9865 L1086.0227 157.9794 Z" clip-path="url(#clipPath2)"/>
      <rect x="1023.9065" y="213.5781" clip-path="url(#clipPath2)" fill="white" width="112.3125" height="22.8438" stroke="none"/>
      <text x="1025.9065" font-size="16px" y="231.0469" clip-path="url(#clipPath2)" font-family="sans-serif" stroke="none" xml:space="preserve">schema:genre</text>
      <path fill="none" d="M1055.8727 354.8492 L791.0103 626.2242" clip-path="url(#clipPath2)" stroke="navy"/>
      <path fill="navy" d="M1061.4603 349.124 C1063.0413 350.667 1063.0721 353.1994 1061.5291 354.7804 C1059.9861 356.3614 1057.4536 356.3922 1055.8727 354.8492 C1054.2917 353.3062 1054.2609 350.7737 1055.804 349.1927 C1057.3469 347.6118 1059.8794 347.581 1061.4603 349.124 Z" clip-path="url(#clipPath2)" stroke="none"/>
      <path fill="navy" d="M783.3271 634.0963 L796.0026 629.6994 L787.4149 621.3178 Z" clip-path="url(#clipPath2)" stroke="none"/>
      <rect x="853.3509" y="481.625" clip-path="url(#clipPath2)" fill="white" width="135.2812" height="22.8438" stroke="none"/>
    </g>
    <g stroke-linecap="butt" font-size="16px" transform="matrix(0.6508,0,0,0.6508,-284.4071,59.2244)" fill="navy" text-rendering="geometricPrecision" font-family="sans-serif" shape-rendering="geometricPrecision" stroke="navy" stroke-miterlimit="1.45">
      <text x="855.3509" xml:space="preserve" y="499.0938" clip-path="url(#clipPath2)" stroke="none">dcterms:medium</text>
      <path fill="none" d="M1080.1165 356.0166 L1080.0129 652.9664" clip-path="url(#clipPath2)"/>
      <path d="M1080.1191 348.0166 C1082.3282 348.0173 1084.1185 349.8088 1084.1178 352.0179 C1084.1171 354.2271 1082.3256 356.0173 1080.1165 356.0166 C1077.9073 356.0159 1076.1171 354.2244 1076.1178 352.0153 C1076.1185 349.8061 1077.91 348.0159 1080.1191 348.0166 Z" stroke="none" clip-path="url(#clipPath2)"/>
      <path d="M1080.009 663.9664 L1086.0133 651.9685 L1074.0133 651.9642 Z" stroke="none" clip-path="url(#clipPath2)"/>
    </g>
    <g stroke-linecap="butt" transform="matrix(0.6508,0,0,0.6508,-284.4071,59.2244)" fill="white" text-rendering="geometricPrecision" shape-rendering="geometricPrecision" stroke="white" stroke-miterlimit="1.45">
      <rect x="1001.3056" width="157.5156" height="22.8438" y="496.5781" clip-path="url(#clipPath2)" stroke="none"/>
    </g>
    <g stroke-linecap="butt" font-size="16px" transform="matrix(0.6508,0,0,0.6508,-284.4071,59.2244)" fill="navy" text-rendering="geometricPrecision" font-family="sans-serif" shape-rendering="geometricPrecision" stroke="navy" stroke-miterlimit="1.45">
      <text x="1003.3056" xml:space="preserve" y="514.0469" clip-path="url(#clipPath2)" stroke="none">schema:inLanguage</text>
    </g>
    <g stroke-linecap="butt" transform="matrix(0.6508,0,0,0.6508,-284.4071,59.2244)" fill="green" text-rendering="geometricPrecision" shape-rendering="geometricPrecision" stroke="green" stroke-miterlimit="1.45">
      <path fill="none" d="M1099.6685 355.1418 L1262.9324 565.178" clip-path="url(#clipPath2)"/>
    </g>
    <g stroke-linecap="butt" transform="matrix(0.6508,0,0,0.6508,-284.4071,59.2244)" fill-opacity="0" fill="rgb(0,0,0)" text-rendering="geometricPrecision" shape-rendering="geometricPrecision" stroke="rgb(0,0,0)" stroke-opacity="0" stroke-miterlimit="1.45">
      <path d="M1094.7588 348.8255 C1096.5029 347.4698 1099.016 347.7846 1100.3717 349.5288 C1101.7275 351.273 1101.4126 353.786 1099.6685 355.1418 C1097.9243 356.4975 1095.4113 356.1827 1094.0555 354.4385 C1092.6997 352.6943 1093.0146 350.1813 1094.7588 348.8255 Z" stroke="none" clip-path="url(#clipPath2)"/>
    </g>
    <g stroke-linecap="butt" transform="matrix(0.6508,0,0,0.6508,-284.4071,59.2244)" fill="green" text-rendering="geometricPrecision" shape-rendering="geometricPrecision" stroke="green" stroke-miterlimit="1.45">
      <path fill="none" d="M1094.7588 348.8255 C1096.5029 347.4698 1099.016 347.7846 1100.3717 349.5288 C1101.7275 351.273 1101.4126 353.786 1099.6685 355.1418 C1097.9243 356.4975 1095.4113 356.1827 1094.0555 354.4385 C1092.6997 352.6943 1093.0146 350.1813 1094.7588 348.8255 Z" clip-path="url(#clipPath2)"/>
      <path fill="white" d="M1272.1381 577.0209 L1267.0558 560.7062 L1257.5815 568.0707 Z" clip-path="url(#clipPath2)" stroke="none"/>
      <path fill="none" d="M1272.1381 577.0209 L1267.0558 560.7062 L1257.5815 568.0707 Z" clip-path="url(#clipPath2)"/>
      <rect x="1117.7835" y="453.0781" clip-path="url(#clipPath2)" fill="white" width="133.7812" height="22.8438" stroke="none"/>
      <text x="1119.7834" font-size="16px" y="470.5469" clip-path="url(#clipPath2)" font-family="sans-serif" stroke="none" xml:space="preserve">schema:duration</text>
      <path fill="none" d="M1182.983 307.1375 L1519.0271 232.4436" clip-path="url(#clipPath2)" stroke="navy"/>
      <path fill="navy" d="M1175.1737 308.8733 C1174.6943 306.7168 1176.054 304.58 1178.2104 304.1007 C1180.3669 303.6213 1182.5038 304.9809 1182.983 307.1375 C1183.4624 309.2939 1182.1028 311.4307 1179.9463 311.9101 C1177.7898 312.3894 1175.653 311.0298 1175.1737 308.8733 Z" clip-path="url(#clipPath2)" stroke="none"/>
      <path fill="navy" d="M1529.765 230.0569 L1516.749 226.8036 L1519.3528 238.5177 Z" clip-path="url(#clipPath2)" stroke="none"/>
      <rect x="1288.4966" y="256.6036" clip-path="url(#clipPath2)" fill="white" width="140.8984" height="22.8438" stroke="none"/>
    </g>
    <g stroke-linecap="butt" font-size="16px" transform="matrix(0.6508,0,0,0.6508,-284.4071,59.2244)" fill="navy" text-rendering="geometricPrecision" font-family="sans-serif" shape-rendering="geometricPrecision" stroke="navy" stroke-miterlimit="1.45">
      <text x="1290.4967" xml:space="preserve" y="274.0724" clip-path="url(#clipPath2)" stroke="none">schema:publisher</text>
    </g>
    <g fill="rgb(210,210,210)" text-rendering="geometricPrecision" shape-rendering="geometricPrecision" transform="matrix(0.6508,0,0,0.6508,-284.4071,59.2244) translate(4,4)" stroke="rgb(210,210,210)">
      <rect x="447.4109" width="544.2406" height="142.2292" y="79.2406" clip-path="url(#clipPath3)" stroke="none"/>
    </g>
    <g fill="white" text-rendering="geometricPrecision" shape-rendering="geometricPrecision" transform="matrix(0.6508,0,0,0.6508,-284.4071,59.2244)" stroke="white">
      <rect x="447.4109" width="544.2406" height="142.2292" y="79.2406" clip-path="url(#clipPath2)" stroke="none"/>
      <rect x="447.4109" y="79.2406" clip-path="url(#clipPath2)" fill="rgb(183,182,158)" width="544.2406" height="21.666" stroke="none"/>
    </g>
    <g font-size="15px" stroke-linecap="butt" transform="matrix(0.6508,0,0,0.6508,-284.4071,59.2244)" text-rendering="geometricPrecision" font-family="sans-serif" shape-rendering="geometricPrecision" font-weight="bold" stroke-miterlimit="1.45">
      <text x="912.7839" xml:space="preserve" y="95.7426" clip-path="url(#clipPath2)" stroke="none">Prefixes   </text>
      <rect fill="none" x="447.4109" width="544.2406" height="142.2292" y="79.2406" clip-path="url(#clipPath2)"/>
      <text x="464.4109" xml:space="preserve" font-size="16px" y="133.3754" clip-path="url(#clipPath2)" stroke="none">schema:</text>
      <text x="464.4109" xml:space="preserve" font-size="16px" y="152.2191" clip-path="url(#clipPath2)" stroke="none">dcterms:</text>
      <text x="464.4109" xml:space="preserve" font-size="16px" y="171.0629" clip-path="url(#clipPath2)" stroke="none">crm:</text>
      <text x="464.4109" xml:space="preserve" font-size="16px" y="189.9066" clip-path="url(#clipPath2)" stroke="none">foaf:</text>
      <text x="577.8781" font-size="16px" y="133.3754" clip-path="url(#clipPath2)" stroke="none" font-weight="normal" xml:space="preserve">https://schema.org/</text>
      <text x="577.8781" font-size="16px" y="152.2191" clip-path="url(#clipPath2)" stroke="none" font-weight="normal" xml:space="preserve">http://purl.org/dc/terms/</text>
      <text x="577.8781" font-size="16px" y="171.0629" clip-path="url(#clipPath2)" stroke="none" font-weight="normal" xml:space="preserve">http://www.cidoc-crm.org/Version/version-7.0.1/</text>
      <text x="577.8781" font-size="16px" y="189.9066" clip-path="url(#clipPath2)" stroke="none" font-weight="normal" xml:space="preserve">http://xmlns.com/foaf/spec/</text>
    </g>
  </g>
</svg>
