<?xml version="1.0" encoding="UTF-8"?><svg xmlns="http://www.w3.org/2000/svg" xmlns:xlink="http://www.w3.org/1999/xlink" fill-opacity="1" color-rendering="auto" color-interpolation="auto" text-rendering="auto" stroke="black" stroke-linecap="square" width="876" stroke-miterlimit="10" shape-rendering="auto" stroke-opacity="1" fill="black" stroke-dasharray="none" font-weight="normal" stroke-width="1" height="564" font-family="'Dialog'" font-style="normal" stroke-linejoin="miter" font-size="12px" stroke-dashoffset="0" image-rendering="auto">
  <!--Generated by ySVG 2.5-->
  <defs id="genericDefs"/>
  <g>
    <defs id="defs1">
      <clipPath clipPathUnits="userSpaceOnUse" id="clipPath1">
        <path d="M0 0 L876 0 L876 564 L0 564 L0 0 Z"/>
      </clipPath>
      <clipPath clipPathUnits="userSpaceOnUse" id="clipPath2">
        <path d="M345 211 L1424 211 L1424 905.6986 L345 905.6986 L345 211 Z"/>
      </clipPath>
      <clipPath clipPathUnits="userSpaceOnUse" id="clipPath3">
        <path d="M341 207 L1420 207 L1420 901.6986 L341 901.6986 L341 207 Z"/>
      </clipPath>
    </defs>
    <g fill="yellow" text-rendering="geometricPrecision" shape-rendering="geometricPrecision" transform="matrix(0.8119,0,0,0.8119,-280.0927,-171.3031)" stroke="yellow">
      <rect x="827.4848" y="535.1211" clip-path="url(#clipPath2)" width="115.9682" rx="4" ry="4" height="61" stroke="none"/>
    </g>
    <g font-size="16px" stroke-linecap="butt" transform="matrix(0.8119,0,0,0.8119,-280.0927,-171.3031)" text-rendering="geometricPrecision" font-family="sans-serif" shape-rendering="geometricPrecision" stroke-miterlimit="1.45">
      <text x="833.8127" xml:space="preserve" y="571.668" clip-path="url(#clipPath2)" stroke="none">crm:E5_Event</text>
      <rect x="827.4848" y="535.1211" clip-path="url(#clipPath2)" fill="none" width="115.9682" rx="4" ry="4" height="61" stroke-width="3"/>
    </g>
    <g fill="yellow" text-rendering="geometricPrecision" shape-rendering="geometricPrecision" transform="matrix(0.8119,0,0,0.8119,-280.0927,-171.3031)" stroke="yellow">
      <rect x="881.5159" y="286.6211" clip-path="url(#clipPath2)" width="140.9682" rx="4" ry="4" height="61" stroke="none"/>
    </g>
    <g font-size="16px" stroke-linecap="butt" transform="matrix(0.8119,0,0,0.8119,-280.0927,-171.3031)" text-rendering="geometricPrecision" font-family="sans-serif" shape-rendering="geometricPrecision" stroke-miterlimit="1.45">
      <text x="896.4688" xml:space="preserve" y="323.168" clip-path="url(#clipPath2)" stroke="none">crm:E53_Place</text>
      <rect x="881.5159" y="286.6211" clip-path="url(#clipPath2)" fill="none" width="140.9682" rx="4" ry="4" height="61" stroke-width="3"/>
    </g>
    <g fill="yellow" text-rendering="geometricPrecision" shape-rendering="geometricPrecision" transform="matrix(0.8119,0,0,0.8119,-280.0927,-171.3031)" stroke="yellow">
      <rect x="1214.9537" y="698.1211" clip-path="url(#clipPath2)" width="187.7736" rx="4" ry="4" height="61" stroke="none"/>
    </g>
    <g font-size="16px" stroke-linecap="butt" transform="matrix(0.8119,0,0,0.8119,-280.0927,-171.3031)" text-rendering="geometricPrecision" font-family="sans-serif" shape-rendering="geometricPrecision" stroke-miterlimit="1.45">
      <text x="1230.9929" xml:space="preserve" y="734.668" clip-path="url(#clipPath2)" stroke="none">crm:E52_Time_Span</text>
      <rect x="1214.9537" y="698.1211" clip-path="url(#clipPath2)" fill="none" width="187.7736" rx="4" ry="4" height="61" stroke-width="3"/>
    </g>
    <g fill="yellow" text-rendering="geometricPrecision" shape-rendering="geometricPrecision" transform="matrix(0.8119,0,0,0.8119,-280.0927,-171.3031)" stroke="yellow">
      <rect x="761.5159" y="775.1211" clip-path="url(#clipPath2)" width="140.9682" rx="4" ry="4" height="61" stroke="none"/>
    </g>
    <g font-size="16px" stroke-linecap="butt" transform="matrix(0.8119,0,0,0.8119,-280.0927,-171.3031)" text-rendering="geometricPrecision" font-family="sans-serif" shape-rendering="geometricPrecision" stroke-miterlimit="1.45">
      <text x="777.4453" xml:space="preserve" y="811.668" clip-path="url(#clipPath2)" stroke="none">crm:E55_Type</text>
      <rect x="761.5159" y="775.1211" clip-path="url(#clipPath2)" fill="none" width="140.9682" rx="4" ry="4" height="61"/>
    </g>
    <g fill="yellow" text-rendering="geometricPrecision" shape-rendering="geometricPrecision" transform="matrix(0.8119,0,0,0.8119,-280.0927,-171.3031)" stroke="yellow">
      <rect x="461.5159" y="636" clip-path="url(#clipPath2)" width="140.9682" rx="4" ry="4" height="44" stroke="none"/>
    </g>
    <g font-size="16px" stroke-linecap="butt" transform="matrix(0.8119,0,0,0.8119,-280.0927,-171.3031)" text-rendering="geometricPrecision" font-family="sans-serif" shape-rendering="geometricPrecision" stroke-miterlimit="1.45">
      <text x="475.3789" xml:space="preserve" y="664.0469" clip-path="url(#clipPath2)" stroke="none">crm:E39_Actor</text>
      <rect x="461.5159" y="636" clip-path="url(#clipPath2)" fill="none" width="140.9682" rx="4" ry="4" height="44"/>
    </g>
    <g fill="yellow" text-rendering="geometricPrecision" shape-rendering="geometricPrecision" transform="matrix(0.8119,0,0,0.8119,-280.0927,-171.3031)" stroke="yellow">
      <rect x="1214.9537" y="466.6211" clip-path="url(#clipPath2)" width="134.0925" rx="4" ry="4" height="61" stroke="none"/>
    </g>
    <g font-size="16px" stroke-linecap="butt" transform="matrix(0.8119,0,0,0.8119,-280.0927,-171.3031)" text-rendering="geometricPrecision" font-family="sans-serif" shape-rendering="geometricPrecision" stroke-miterlimit="1.45">
      <text x="1226.8203" xml:space="preserve" y="503.168" clip-path="url(#clipPath2)" stroke="none">crm:E4_Period</text>
      <rect x="1214.9537" y="466.6211" clip-path="url(#clipPath2)" fill="none" width="134.0925" rx="4" ry="4" height="61" stroke-width="3"/>
    </g>
    <g stroke-linecap="butt" transform="matrix(0.8119,0,0,0.8119,-280.0927,-171.3031)" fill="navy" text-rendering="geometricPrecision" shape-rendering="geometricPrecision" stroke="navy" stroke-miterlimit="1.45">
      <path fill="none" d="M896.4593 531.2344 L896.4765 531.1359 L896.9274 525.1172 L896.7437 516.8604 L895.7717 508.6888 L894.027 500.6612 L891.5256 492.8362 L888.2829 485.2729 L884.3149 478.0297 L879.6372 471.1657 L874.2656 464.7395 L868.2159 458.81 L861.5038 453.4359 L854.145 448.6761 L846.3441 444.6817 L838.3345 441.5544 L830.175 439.2784 L821.9243 437.8381 L813.6411 437.2176 L805.3843 437.4013 L797.2127 438.3733 L789.1851 440.1179 L781.3602 442.6194 L773.7968 445.8621 L766.5536 449.8301 L759.6896 454.5078 L753.2634 459.8793 L747.3339 465.929 L741.9598 472.6412 L737.2 480 L733.2056 487.8008 L730.0782 495.8104 L727.8023 503.97 L726.362 512.2208 L725.7415 520.5039 L725.9252 528.7607 L726.8972 536.9323 L728.6418 544.9599 L731.1433 552.7849 L734.3859 560.3482 L738.354 567.5914 L743.0317 574.4554 L748.4033 580.8815 L754.4529 586.811 L761.1651 592.1851 L768.5239 596.945 L776.3247 600.9394 L784.3344 604.0667 L792.4939 606.3427 L800.7446 607.783 L809.0278 608.4034 L817.2845 608.2198 L825.4562 607.2478 L833.4838 605.5032 L841.3087 603.0016 L845.72 601.1104 L845.8077 601.0624" clip-path="url(#clipPath2)"/>
      <path d="M895.535 539.1808 C893.3406 538.9256 891.7687 536.9398 892.0239 534.7455 C892.2792 532.5511 894.265 530.9792 896.4593 531.2344 C898.6536 531.4897 900.2256 533.4755 899.9703 535.6698 C899.7151 537.8641 897.7293 539.4361 895.535 539.1808 Z" clip-path="url(#clipPath2)" stroke="none"/>
      <path d="M855.6101 596.0712 L842.194 596.1693 L847.639 606.8629 Z" clip-path="url(#clipPath2)" stroke="none"/>
      <rect x="713.1471" y="492.0119" clip-path="url(#clipPath2)" fill="white" width="129.2656" height="22.8438" stroke="none"/>
      <text x="715.147" font-size="16px" y="509.4806" clip-path="url(#clipPath2)" font-family="sans-serif" stroke="none" xml:space="preserve">event:sub_event</text>
      <path fill="none" d="M895.2407 531.2485 L922 437.1211 L941.7076 358.2907" clip-path="url(#clipPath2)"/>
      <path d="M893.053 538.9436 C890.9281 538.3395 889.6952 536.1272 890.2993 534.0023 C890.9034 531.8773 893.1157 530.6444 895.2407 531.2485 C897.3656 531.8526 898.5985 534.0649 897.9944 536.1899 C897.3903 538.3148 895.178 539.5477 893.053 538.9436 Z" clip-path="url(#clipPath2)" stroke="none"/>
      <path d="M944.3755 347.6191 L935.6442 357.8056 L947.2859 360.7161 Z" clip-path="url(#clipPath2)" stroke="none"/>
      <rect x="823.2888" y="470.1367" clip-path="url(#clipPath2)" fill="white" width="172.1562" height="22.8438" stroke="none"/>
      <text x="825.2888" font-size="16px" y="487.6055" clip-path="url(#clipPath2)" font-family="sans-serif" stroke="none" xml:space="preserve">crm:P7_took_place_at</text>
      <path fill="none" d="M947.1741 589.9033 L1211.9257 694.0881" clip-path="url(#clipPath2)"/>
      <path d="M939.7298 586.9738 C940.5388 584.9181 942.861 583.9074 944.9167 584.7164 C946.9724 585.5253 947.9831 587.8475 947.1741 589.9033 C946.3652 591.959 944.043 592.9697 941.9872 592.1607 C939.9315 591.3517 938.9208 589.0295 939.7298 586.9738 Z" clip-path="url(#clipPath2)" stroke="none"/>
      <path d="M1222.1616 698.1161 L1213.1923 688.1387 L1208.798 699.3051 Z" clip-path="url(#clipPath2)" stroke="none"/>
      <rect x="961.3128" y="621.0156" clip-path="url(#clipPath2)" fill="white" width="235.7812" height="41.6875" stroke="none"/>
      <text x="991.1643" font-size="16px" y="638.4843" clip-path="url(#clipPath2)" font-family="sans-serif" stroke="none" xml:space="preserve">crm:P4_has_time_span</text>
      <text x="963.3127" font-size="16px" y="657.3281" clip-path="url(#clipPath2)" font-family="sans-serif" stroke="none" xml:space="preserve">crm:P81_ongoing_throughout</text>
      <path fill="none" d="M877.8045 600.0234 L841.1892 764.3746" clip-path="url(#clipPath2)"/>
      <path d="M879.5443 592.2148 C881.7005 592.6953 883.0591 594.8328 882.5787 596.989 C882.0982 599.1453 879.9608 600.5038 877.8045 600.0234 C875.6483 599.543 874.2897 597.4055 874.7701 595.2493 C875.2505 593.093 877.388 591.7344 879.5443 592.2148 Z" clip-path="url(#clipPath2)" stroke="none"/>
      <path d="M838.7972 775.1113 L847.2631 764.7032 L835.5502 762.0938 Z" clip-path="url(#clipPath2)" stroke="none"/>
      <rect x="791.7579" y="674.1992" clip-path="url(#clipPath2)" fill="white" width="133.9531" height="22.8438" stroke="none"/>
      <text x="793.7579" font-size="16px" y="691.668" clip-path="url(#clipPath2)" font-family="sans-serif" stroke="none" xml:space="preserve">crm:P2_has_type</text>
      <path fill="none" d="M823.6511 581.7772 L613.0958 636.8057" clip-path="url(#clipPath2)"/>
      <path d="M831.3911 579.7543 C831.9496 581.8917 830.6698 584.0771 828.5325 584.6357 C826.3951 585.1943 824.2097 583.9145 823.6511 581.7772 C823.0925 579.6398 824.3723 577.4543 826.5096 576.8958 C828.647 576.3372 830.8325 577.617 831.3911 579.7543 Z" clip-path="url(#clipPath2)" stroke="none"/>
      <path d="M602.4532 639.5871 L615.5804 642.3578 L612.5461 630.7478 Z" clip-path="url(#clipPath2)" stroke="none"/>
      <rect x="616.8048" y="598.7552" clip-path="url(#clipPath2)" fill="white" width="196.3594" height="22.8438" stroke="none"/>
      <text x="618.8047" font-size="16px" y="616.224" clip-path="url(#clipPath2)" font-family="sans-serif" stroke="none" xml:space="preserve">crm:P11_had_participant</text>
      <path fill="none" d="M947.3531 553.0247 L1204.182 500.7479" clip-path="url(#clipPath2)"/>
      <path d="M939.5139 554.6204 C939.0732 552.4557 940.4709 550.3436 942.6356 549.903 C944.8004 549.4623 946.9125 550.86 947.3531 553.0247 C947.7938 555.1895 946.3961 557.3016 944.2313 557.7422 C942.0666 558.1829 939.9545 556.7852 939.5139 554.6204 Z" clip-path="url(#clipPath2)" stroke="none"/>
      <path d="M1214.9609 498.5539 L1202.0054 495.0679 L1204.3988 506.8268 Z" clip-path="url(#clipPath2)" stroke="none"/>
      <rect x="989.7893" y="514.7651" clip-path="url(#clipPath2)" fill="white" width="178.8281" height="22.8438" stroke="none"/>
      <text x="991.7893" font-size="16px" y="532.2338" clip-path="url(#clipPath2)" font-family="sans-serif" stroke="none" xml:space="preserve">crm:P9i_forms_part_of</text>
      <path fill="none" d="M1223.6267 464.6915 L1022.5349 352.9738" clip-path="url(#clipPath2)"/>
      <path d="M1230.6199 468.5767 C1229.547 470.5078 1227.1118 471.2036 1225.1807 470.1307 C1223.2496 469.0578 1222.5538 466.6226 1223.6267 464.6915 C1224.6996 462.7603 1227.1348 462.0646 1229.0659 463.1375 C1230.9969 464.2103 1231.6927 466.6455 1230.6199 468.5767 Z" clip-path="url(#clipPath2)" stroke="none"/>
      <path d="M1012.9191 347.6317 L1020.4952 358.7044 L1026.3229 348.2145 Z" clip-path="url(#clipPath2)" stroke="none"/>
      <rect x="1033.9219" y="395.6992" clip-path="url(#clipPath2)" fill="white" width="172.1562" height="22.8438" stroke="none"/>
      <text x="1035.9219" font-size="16px" y="413.168" clip-path="url(#clipPath2)" font-family="sans-serif" stroke="none" xml:space="preserve">crm:P7_took_place_at</text>
      <path fill="none" d="M1285.996 531.5862 L1304.0403 687.2192" clip-path="url(#clipPath2)"/>
      <path d="M1285.0746 523.6395 C1287.269 523.385 1289.2543 524.9577 1289.5087 527.1522 C1289.7631 529.3466 1288.1904 531.3318 1285.996 531.5862 C1283.8015 531.8407 1281.8163 530.268 1281.5619 528.0735 C1281.3075 525.8791 1282.8801 523.8939 1285.0746 523.6395 Z" clip-path="url(#clipPath2)" stroke="none"/>
      <path d="M1305.3071 698.146 L1309.8853 685.5349 L1297.9651 686.9169 Z" clip-path="url(#clipPath2)" stroke="none"/>
      <rect x="1177.5296" y="592.0273" clip-path="url(#clipPath2)" fill="white" width="235.7812" height="41.6875" stroke="none"/>
      <text x="1207.3812" font-size="16px" y="609.4961" clip-path="url(#clipPath2)" font-family="sans-serif" stroke="none" xml:space="preserve">crm:P4_has_time_span</text>
      <text x="1179.5297" font-size="16px" y="628.3398" clip-path="url(#clipPath2)" font-family="sans-serif" stroke="none" xml:space="preserve">crm:P81_ongoing_throughout</text>
    </g>
    <g fill="rgb(210,210,210)" text-rendering="geometricPrecision" shape-rendering="geometricPrecision" transform="matrix(0.8119,0,0,0.8119,-280.0927,-171.3031) translate(4,4)" stroke="rgb(210,210,210)">
      <rect x="355.3711" width="490.0156" height="85.698" y="281.9121" clip-path="url(#clipPath3)" stroke="none"/>
    </g>
    <g fill="white" text-rendering="geometricPrecision" shape-rendering="geometricPrecision" transform="matrix(0.8119,0,0,0.8119,-280.0927,-171.3031)" stroke="white">
      <rect x="355.3711" width="490.0156" height="85.698" y="281.9121" clip-path="url(#clipPath2)" stroke="none"/>
      <rect x="355.3711" y="281.9121" clip-path="url(#clipPath2)" fill="rgb(183,182,158)" width="490.0156" height="21.666" stroke="none"/>
    </g>
    <g font-size="15px" stroke-linecap="butt" transform="matrix(0.8119,0,0,0.8119,-280.0927,-171.3031)" text-rendering="geometricPrecision" font-family="sans-serif" shape-rendering="geometricPrecision" font-weight="bold" stroke-miterlimit="1.45">
      <text x="766.519" xml:space="preserve" y="298.4141" clip-path="url(#clipPath2)" stroke="none">Prefixes   </text>
      <rect fill="none" x="355.3711" width="490.0156" height="85.698" y="281.9121" clip-path="url(#clipPath2)"/>
      <text x="372.3711" xml:space="preserve" font-size="16px" y="336.0469" clip-path="url(#clipPath2)" stroke="none">crm:</text>
      <text x="431.6133" font-size="16px" y="336.0469" clip-path="url(#clipPath2)" stroke="none" font-weight="normal" xml:space="preserve">http://www.cidoc-crm.org/Version/version-7.0.1/</text>
    </g>
  </g>
</svg>
