<?xml version="1.0" encoding="UTF-8"?><svg xmlns="http://www.w3.org/2000/svg" xmlns:xlink="http://www.w3.org/1999/xlink" fill-opacity="1" color-rendering="auto" color-interpolation="auto" text-rendering="auto" stroke="black" stroke-linecap="square" width="876" stroke-miterlimit="10" shape-rendering="auto" stroke-opacity="1" fill="black" stroke-dasharray="none" font-weight="normal" stroke-width="1" height="564" font-family="'Dialog'" font-style="normal" stroke-linejoin="miter" font-size="12px" stroke-dashoffset="0" image-rendering="auto">
  <!--Generated by ySVG 2.5-->
  <defs id="genericDefs"/>
  <g>
    <defs id="defs1">
      <clipPath clipPathUnits="userSpaceOnUse" id="clipPath1">
        <path d="M0 0 L876 0 L876 564 L0 564 L0 0 Z"/>
      </clipPath>
      <clipPath clipPathUnits="userSpaceOnUse" id="clipPath2">
        <path d="M451 154 L2232 154 L2232 1300.6713 L451 1300.6713 L451 154 Z"/>
      </clipPath>
      <clipPath clipPathUnits="userSpaceOnUse" id="clipPath3">
        <path d="M447 150 L2228 150 L2228 1296.6713 L447 1296.6713 L447 150 Z"/>
      </clipPath>
    </defs>
    <g fill="yellow" text-rendering="geometricPrecision" shape-rendering="geometricPrecision" transform="matrix(0.4919,0,0,0.4919,-221.8282,-75.7462)" stroke="yellow">
      <rect x="1090.9112" y="736" clip-path="url(#clipPath2)" width="138.2372" rx="4" ry="4" height="44" stroke="none"/>
    </g>
    <g font-size="16px" stroke-linecap="butt" transform="matrix(0.4919,0,0,0.4919,-221.8282,-75.7462)" text-rendering="geometricPrecision" font-family="sans-serif" shape-rendering="geometricPrecision" stroke-miterlimit="1.45">
      <text x="1102.5767" xml:space="preserve" y="764.0469" clip-path="url(#clipPath2)" stroke="none">frbroo:F5_Item</text>
      <rect x="1090.9112" y="736" clip-path="url(#clipPath2)" fill="none" width="138.2372" rx="4" ry="4" height="44" stroke-width="2"/>
    </g>
    <g fill="yellow" text-rendering="geometricPrecision" shape-rendering="geometricPrecision" transform="matrix(0.4919,0,0,0.4919,-221.8282,-75.7462)" stroke="yellow">
      <rect x="1039.2551" y="997.5" clip-path="url(#clipPath2)" width="245.1818" rx="4" ry="4" height="61" stroke="none"/>
    </g>
    <g font-size="16px" stroke-linecap="butt" transform="matrix(0.4919,0,0,0.4919,-221.8282,-75.7462)" text-rendering="geometricPrecision" font-family="sans-serif" shape-rendering="geometricPrecision" stroke-miterlimit="1.45">
      <text x="1055.0139" xml:space="preserve" y="1034.0469" clip-path="url(#clipPath2)" stroke="none">frbroo:F11_Corporate_Body</text>
      <rect x="1039.2551" y="997.5" clip-path="url(#clipPath2)" fill="none" width="245.1818" rx="4" ry="4" height="61"/>
    </g>
    <g fill="yellow" text-rendering="geometricPrecision" shape-rendering="geometricPrecision" transform="matrix(0.4919,0,0,0.4919,-221.8282,-75.7462)" stroke="yellow">
      <rect x="632.2833" y="788" clip-path="url(#clipPath2)" width="175.4333" rx="4" ry="4" height="44" stroke="none"/>
    </g>
    <g font-size="16px" stroke-linecap="butt" transform="matrix(0.4919,0,0,0.4919,-221.8282,-75.7462)" text-rendering="geometricPrecision" font-family="sans-serif" shape-rendering="geometricPrecision" stroke-miterlimit="1.45">
      <text x="642.7109" xml:space="preserve" y="816.0469" clip-path="url(#clipPath2)" stroke="none">crm:E54_Dimension</text>
      <rect x="632.2833" y="788" clip-path="url(#clipPath2)" fill="none" width="175.4333" rx="4" ry="4" height="44"/>
    </g>
    <g fill="yellow" text-rendering="geometricPrecision" shape-rendering="geometricPrecision" transform="matrix(0.4919,0,0,0.4919,-221.8282,-75.7462)" stroke="yellow">
      <rect x="619.5159" y="663.8275" clip-path="url(#clipPath2)" width="140.9682" rx="4" ry="4" height="52.3451" stroke="none"/>
    </g>
    <g font-size="16px" stroke-linecap="butt" transform="matrix(0.4919,0,0,0.4919,-221.8282,-75.7462)" text-rendering="geometricPrecision" font-family="sans-serif" shape-rendering="geometricPrecision" stroke-miterlimit="1.45">
      <text x="623.1016" xml:space="preserve" y="696.0469" clip-path="url(#clipPath2)" stroke="none">crm:E57_Material</text>
      <rect x="619.5159" y="663.8275" clip-path="url(#clipPath2)" fill="none" width="140.9682" rx="4" ry="4" height="52.3451"/>
    </g>
    <g fill="yellow" text-rendering="geometricPrecision" shape-rendering="geometricPrecision" transform="matrix(0.4919,0,0,0.4919,-221.8282,-75.7462)" stroke="yellow">
      <rect x="1550.9006" y="491.8275" clip-path="url(#clipPath2)" width="155.9894" rx="4" ry="4" height="52.3451" stroke="none"/>
    </g>
    <g font-size="16px" stroke-linecap="butt" transform="matrix(0.4919,0,0,0.4919,-221.8282,-75.7462)" text-rendering="geometricPrecision" font-family="sans-serif" shape-rendering="geometricPrecision" stroke-miterlimit="1.45">
      <text x="1573.364" xml:space="preserve" y="524.0469" clip-path="url(#clipPath2)" stroke="none">crm:E53_Place</text>
      <rect x="1550.9006" y="491.8275" clip-path="url(#clipPath2)" fill="none" width="155.9894" rx="4" ry="4" height="52.3451"/>
    </g>
    <g fill="yellow" text-rendering="geometricPrecision" shape-rendering="geometricPrecision" transform="matrix(0.4919,0,0,0.4919,-221.8282,-75.7462)" stroke="yellow">
      <rect x="1076.5159" y="461.8275" clip-path="url(#clipPath2)" width="140.9682" rx="4" ry="4" height="52.3451" stroke="none"/>
    </g>
    <g font-size="16px" stroke-linecap="butt" transform="matrix(0.4919,0,0,0.4919,-221.8282,-75.7462)" text-rendering="geometricPrecision" font-family="sans-serif" shape-rendering="geometricPrecision" stroke-miterlimit="1.45">
      <text x="1094.043" xml:space="preserve" y="494.0469" clip-path="url(#clipPath2)" stroke="none">crm:E35_Title</text>
      <rect x="1076.5159" y="461.8275" clip-path="url(#clipPath2)" fill="none" width="140.9682" rx="4" ry="4" height="52.3451"/>
    </g>
    <g fill="yellow" text-rendering="geometricPrecision" shape-rendering="geometricPrecision" transform="matrix(0.4919,0,0,0.4919,-221.8282,-75.7462)" stroke="yellow">
      <rect x="1853.9382" y="1053.8275" clip-path="url(#clipPath2)" width="192.1235" rx="4" ry="4" height="52.3451" stroke="none"/>
    </g>
    <g font-size="16px" stroke-linecap="butt" transform="matrix(0.4919,0,0,0.4919,-221.8282,-75.7462)" text-rendering="geometricPrecision" font-family="sans-serif" shape-rendering="geometricPrecision" stroke-miterlimit="1.45">
      <text x="1871.5234" xml:space="preserve" y="1086.0469" clip-path="url(#clipPath2)" stroke="none">crm:E52_Time-Span</text>
      <rect x="1853.9382" y="1053.8275" clip-path="url(#clipPath2)" fill="none" width="192.1235" rx="4" ry="4" height="52.3451"/>
    </g>
    <g fill="yellow" text-rendering="geometricPrecision" shape-rendering="geometricPrecision" transform="matrix(0.4919,0,0,0.4919,-221.8282,-75.7462)" stroke="yellow">
      <rect x="632.0961" y="533.8241" clip-path="url(#clipPath2)" width="268.3654" rx="4" ry="4" height="28.3517" stroke="none"/>
    </g>
    <g font-size="16px" stroke-linecap="butt" transform="matrix(0.4919,0,0,0.4919,-221.8282,-75.7462)" text-rendering="geometricPrecision" font-family="sans-serif" shape-rendering="geometricPrecision" stroke-miterlimit="1.45">
      <text x="643.8452" xml:space="preserve" y="554.0469" clip-path="url(#clipPath2)" stroke="none">F3_Manifestation_Product_Type</text>
      <rect x="632.0961" y="533.8241" clip-path="url(#clipPath2)" fill="none" width="268.3654" rx="4" ry="4" height="28.3517"/>
    </g>
    <g fill="yellow" text-rendering="geometricPrecision" shape-rendering="geometricPrecision" transform="matrix(0.4919,0,0,0.4919,-221.8282,-75.7462)" stroke="yellow">
      <rect x="1377.9781" y="878" clip-path="url(#clipPath2)" width="184.0439" rx="4" ry="4" height="44" stroke="none"/>
    </g>
    <g font-size="16px" stroke-linecap="butt" transform="matrix(0.4919,0,0,0.4919,-221.8282,-75.7462)" text-rendering="geometricPrecision" font-family="sans-serif" shape-rendering="geometricPrecision" stroke-miterlimit="1.45">
      <text x="1392.2852" xml:space="preserve" y="906.0469" clip-path="url(#clipPath2)" stroke="none">crm:E12_Production</text>
      <rect x="1377.9781" y="878" clip-path="url(#clipPath2)" fill="none" width="184.0439" rx="4" ry="4" height="44"/>
    </g>
    <g fill="yellow" text-rendering="geometricPrecision" shape-rendering="geometricPrecision" transform="matrix(0.4919,0,0,0.4919,-221.8282,-75.7462)" stroke="yellow">
      <rect x="1909.5159" y="878" clip-path="url(#clipPath2)" width="140.9682" rx="4" ry="4" height="44" stroke="none"/>
    </g>
    <g font-size="16px" stroke-linecap="butt" transform="matrix(0.4919,0,0,0.4919,-221.8282,-75.7462)" text-rendering="geometricPrecision" font-family="sans-serif" shape-rendering="geometricPrecision" stroke-miterlimit="1.45">
      <text x="1925.4453" xml:space="preserve" y="906.0469" clip-path="url(#clipPath2)" stroke="none">crm:E55_Type</text>
      <rect x="1909.5159" y="878" clip-path="url(#clipPath2)" fill="none" width="140.9682" rx="4" ry="4" height="44"/>
    </g>
    <g fill="yellow" text-rendering="geometricPrecision" shape-rendering="geometricPrecision" transform="matrix(0.4919,0,0,0.4919,-221.8282,-75.7462)" stroke="yellow">
      <rect x="482.2946" y="429.7631" clip-path="url(#clipPath2)" width="175.4109" rx="4" ry="4" height="40.4739" stroke="none"/>
    </g>
    <g font-size="16px" stroke-linecap="butt" transform="matrix(0.4919,0,0,0.4919,-221.8282,-75.7462)" text-rendering="geometricPrecision" font-family="sans-serif" shape-rendering="geometricPrecision" stroke-miterlimit="1.45">
      <text x="487.4141" xml:space="preserve" y="456.0469" clip-path="url(#clipPath2)" stroke="none">frbroo:F2_Expression</text>
      <rect x="482.2946" y="429.7631" clip-path="url(#clipPath2)" fill="none" width="175.4109" rx="4" ry="4" height="40.4739"/>
    </g>
    <g fill="yellow" text-rendering="geometricPrecision" shape-rendering="geometricPrecision" transform="matrix(0.4919,0,0,0.4919,-221.8282,-75.7462)" stroke="yellow">
      <rect x="857.2284" y="436.8815" clip-path="url(#clipPath2)" width="159.5433" rx="4" ry="4" height="42.2369" stroke="none"/>
    </g>
    <g font-size="16px" stroke-linecap="butt" transform="matrix(0.4919,0,0,0.4919,-221.8282,-75.7462)" text-rendering="geometricPrecision" font-family="sans-serif" shape-rendering="geometricPrecision" stroke-miterlimit="1.45">
      <text x="865.6016" xml:space="preserve" y="464.0469" clip-path="url(#clipPath2)" stroke="none">frbroo:F10_Person</text>
      <rect x="857.2284" y="436.8815" clip-path="url(#clipPath2)" fill="none" width="159.5433" rx="4" ry="4" height="42.2369"/>
    </g>
    <g fill="yellow" text-rendering="geometricPrecision" shape-rendering="geometricPrecision" transform="matrix(0.4919,0,0,0.4919,-221.8282,-75.7462)" stroke="yellow">
      <rect x="476.0994" y="286" clip-path="url(#clipPath2)" width="261.8013" rx="4" ry="4" height="44" stroke="none"/>
    </g>
    <g font-size="16px" stroke-linecap="butt" transform="matrix(0.4919,0,0,0.4919,-221.8282,-75.7462)" text-rendering="geometricPrecision" font-family="sans-serif" shape-rendering="geometricPrecision" stroke-miterlimit="1.45">
      <text x="482.4883" xml:space="preserve" y="314.0469" clip-path="url(#clipPath2)" stroke="none">frbroo:F28_Expression_Creation</text>
      <rect x="476.0994" y="286" clip-path="url(#clipPath2)" fill="none" width="261.8013" rx="4" ry="4" height="44"/>
    </g>
    <g fill="yellow" text-rendering="geometricPrecision" shape-rendering="geometricPrecision" transform="matrix(0.4919,0,0,0.4919,-221.8282,-75.7462)" stroke="yellow">
      <rect x="1371.7161" y="998.8815" clip-path="url(#clipPath2)" width="196.5677" rx="4" ry="4" height="42.2369" stroke="none"/>
    </g>
    <g font-size="16px" stroke-linecap="butt" transform="matrix(0.4919,0,0,0.4919,-221.8282,-75.7462)" text-rendering="geometricPrecision" font-family="sans-serif" shape-rendering="geometricPrecision" stroke-miterlimit="1.45">
      <text x="1381.7461" xml:space="preserve" y="1026.0469" clip-path="url(#clipPath2)" stroke="none">crm:E99_Product_Type</text>
      <rect x="1371.7161" y="998.8815" clip-path="url(#clipPath2)" fill="none" width="196.5677" rx="4" ry="4" height="42.2369"/>
    </g>
    <g fill="yellow" text-rendering="geometricPrecision" shape-rendering="geometricPrecision" transform="matrix(0.4919,0,0,0.4919,-221.8282,-75.7462)" stroke="yellow">
      <rect x="1354.0332" y="1127.7631" clip-path="url(#clipPath2)" width="245.9336" rx="4" ry="4" height="40.4739" stroke="none"/>
    </g>
    <g font-size="16px" stroke-linecap="butt" transform="matrix(0.4919,0,0,0.4919,-221.8282,-75.7462)" text-rendering="geometricPrecision" font-family="sans-serif" shape-rendering="geometricPrecision" stroke-miterlimit="1.45">
      <text x="1359.3008" xml:space="preserve" y="1154.0469" clip-path="url(#clipPath2)" stroke="none">crm:E29_Design_or_Procedure</text>
      <rect x="1354.0332" y="1127.7631" clip-path="url(#clipPath2)" fill="none" width="245.9336" rx="4" ry="4" height="40.4739"/>
    </g>
    <g fill="yellow" text-rendering="geometricPrecision" shape-rendering="geometricPrecision" transform="matrix(0.4919,0,0,0.4919,-221.8282,-75.7462)" stroke="yellow">
      <rect x="1383.9775" y="316" clip-path="url(#clipPath2)" width="126.0449" rx="4" ry="4" height="44" stroke="none"/>
    </g>
    <g font-size="16px" stroke-linecap="butt" transform="matrix(0.4919,0,0,0.4919,-221.8282,-75.7462)" text-rendering="geometricPrecision" font-family="sans-serif" shape-rendering="geometricPrecision" stroke-miterlimit="1.45">
      <text x="1395.832" xml:space="preserve" y="344.0469" clip-path="url(#clipPath2)" stroke="none">crm:E9_Move</text>
      <rect x="1383.9775" y="316" clip-path="url(#clipPath2)" fill="none" width="126.0449" rx="4" ry="4" height="44"/>
    </g>
    <g fill="yellow" text-rendering="geometricPrecision" shape-rendering="geometricPrecision" transform="matrix(0.4919,0,0,0.4919,-221.8282,-75.7462)" stroke="yellow">
      <rect x="461.0855" y="1009.3058" clip-path="url(#clipPath2)" width="261.5211" rx="4" ry="4" height="37.3885" stroke="none"/>
    </g>
    <g font-size="16px" stroke-linecap="butt" transform="matrix(0.4919,0,0,0.4919,-221.8282,-75.7462)" text-rendering="geometricPrecision" font-family="sans-serif" shape-rendering="geometricPrecision" stroke-miterlimit="1.45">
      <text x="476.0022" xml:space="preserve" y="1034.0469" clip-path="url(#clipPath2)" stroke="none">crm:E10_Transfer_of_Custody</text>
      <rect x="461.0855" y="1009.3058" clip-path="url(#clipPath2)" fill="none" width="261.5211" rx="4" ry="4" height="37.3885"/>
    </g>
    <g fill="yellow" text-rendering="geometricPrecision" shape-rendering="geometricPrecision" transform="matrix(0.4919,0,0,0.4919,-221.8282,-75.7462)" stroke="yellow">
      <rect x="866.0159" y="1126" clip-path="url(#clipPath2)" width="122.6275" rx="4" ry="4" height="44" stroke="none"/>
    </g>
    <g font-size="16px" stroke-linecap="butt" transform="matrix(0.4919,0,0,0.4919,-221.8282,-75.7462)" text-rendering="geometricPrecision" font-family="sans-serif" shape-rendering="geometricPrecision" stroke-miterlimit="1.45">
      <text x="870.4742" xml:space="preserve" y="1154.0469" clip-path="url(#clipPath2)" stroke="none">dcterms:Agent</text>
      <rect x="866.0159" y="1126" clip-path="url(#clipPath2)" fill="none" width="122.6275" rx="4" ry="4" height="44"/>
    </g>
    <g fill="yellow" text-rendering="geometricPrecision" shape-rendering="geometricPrecision" transform="matrix(0.4919,0,0,0.4919,-221.8282,-75.7462)" stroke="yellow">
      <rect x="1076.0159" y="316" clip-path="url(#clipPath2)" width="133.6294" rx="4" ry="4" height="61.2204" stroke="none"/>
    </g>
    <g font-size="16px" stroke-linecap="butt" transform="matrix(0.4919,0,0,0.4919,-221.8282,-75.7462)" text-rendering="geometricPrecision" font-family="sans-serif" shape-rendering="geometricPrecision" stroke-miterlimit="1.45">
      <text x="1089.8735" xml:space="preserve" y="352.6571" clip-path="url(#clipPath2)" stroke="none">crm:E35_Title</text>
      <rect x="1076.0159" y="316" clip-path="url(#clipPath2)" fill="none" width="133.6294" rx="4" ry="4" height="61.2204"/>
    </g>
    <g stroke-linecap="butt" transform="matrix(0.4919,0,0,0.4919,-221.8282,-75.7462)" fill="navy" text-rendering="geometricPrecision" shape-rendering="geometricPrecision" stroke="navy" stroke-miterlimit="1.45">
      <path fill="none" d="M1183.8391 782.0016 L1183.9207 782.0596 L1186.0994 783.3104 L1191.5424 785.7737 L1197.186 787.703 L1202.9877 789.0858 L1208.9052 789.9098 L1214.8959 790.1628 L1220.9174 789.8325 L1226.9271 788.9067 L1232.8829 787.373 L1238.7422 785.2191 L1244.4625 782.4328 L1249.8732 779.0845 L1254.8231 775.2809 L1259.3004 771.0646 L1263.2927 766.4779 L1266.7876 761.5633 L1269.7729 756.3633 L1272.2363 750.9202 L1274.1655 745.2767 L1275.5483 739.4749 L1276.3724 733.5575 L1276.6254 727.5668 L1276.2952 721.5453 L1275.3693 715.5355 L1273.8356 709.5797 L1271.6816 703.7204 L1268.8954 698.0001 L1265.547 692.5895 L1261.7435 687.6395 L1257.5271 683.1622 L1252.9404 679.1699 L1248.0259 675.675 L1242.8259 672.6897 L1237.3828 670.2263 L1231.7393 668.2971 L1225.9375 666.9143 L1220.02 666.0903 L1214.0294 665.8372 L1208.0079 666.1675 L1201.998 667.0934 L1196.0422 668.6271 L1190.183 670.7809 L1184.4626 673.5673 L1179.0521 676.9156 L1174.1021 680.7192 L1169.6248 684.9355 L1165.6326 689.5222 L1162.1376 694.4368 L1159.1523 699.6368 L1156.6888 705.0798 L1154.7596 710.7234 L1153.3768 716.5251 L1152.5529 722.4426 L1152.4443 725.0123 L1152.4518 725.1121" clip-path="url(#clipPath2)"/>
      <path d="M1176.9429 777.9467 C1178.0626 776.0424 1180.5142 775.4063 1182.4185 776.526 C1184.3228 777.6458 1184.9589 780.0972 1183.8391 782.0016 C1182.7194 783.9059 1180.2678 784.5419 1178.3635 783.4222 C1176.4592 782.3025 1175.8231 779.851 1176.9429 777.9467 Z" clip-path="url(#clipPath2)" stroke="none"/>
      <path d="M1152.8726 736.104 L1158.4091 723.8832 L1146.4178 724.3423 Z" clip-path="url(#clipPath2)" stroke="none"/>
      <rect x="1142.5433" y="701.0156" clip-path="url(#clipPath2)" fill="white" width="200.3125" height="22.8438" stroke="none"/>
      <text x="1144.5433" font-size="16px" y="718.4844" clip-path="url(#clipPath2)" font-family="sans-serif" stroke="none" xml:space="preserve">crm:P46_is_composed_of</text>
      <path fill="none" d="M1160.2046 783.9836 L1161.5669 986.5129" clip-path="url(#clipPath2)"/>
      <path d="M1160.1509 775.9837 C1162.36 775.9689 1164.1628 777.7477 1164.1776 779.9568 C1164.1925 782.1659 1162.4137 783.9688 1160.2046 783.9836 C1157.9955 783.9984 1156.1926 782.2196 1156.1779 780.0105 C1156.163 777.8014 1157.9418 775.9985 1160.1509 775.9837 Z" clip-path="url(#clipPath2)" stroke="none"/>
      <path d="M1161.6409 997.5126 L1167.5601 985.4725 L1155.5603 985.5533 Z" clip-path="url(#clipPath2)" stroke="none"/>
      <rect x="993.9171" y="867.9062" clip-path="url(#clipPath2)" fill="white" width="333.9844" height="41.6875" stroke="none"/>
      <text x="995.9171" font-size="16px" y="885.375" clip-path="url(#clipPath2)" font-family="sans-serif" stroke="none" xml:space="preserve">crm:P_49_has_former_or_current_keeper /</text>
      <text x="1045.1593" font-size="16px" y="904.2188" clip-path="url(#clipPath2)" font-family="sans-serif" stroke="none" xml:space="preserve">crm:P_50_has_current_keeper</text>
      <path fill="none" d="M1086.9536 766.6357 L818.6295 798.3446" clip-path="url(#clipPath2)"/>
      <path d="M1094.8984 765.6968 C1095.1576 767.8907 1093.5894 769.8794 1091.3954 770.1386 C1089.2015 770.3979 1087.2129 768.8295 1086.9536 766.6357 C1086.6945 764.4418 1088.2627 762.4531 1090.4567 762.1939 C1092.6505 761.9346 1094.6392 763.503 1094.8984 765.6968 Z" clip-path="url(#clipPath2)" stroke="none"/>
      <path d="M807.7055 799.6355 L820.3267 804.1858 L818.9185 792.2687 Z" clip-path="url(#clipPath2)" stroke="none"/>
      <rect x="853.435" y="771.4792" clip-path="url(#clipPath2)" fill="white" width="191.7578" height="22.8438" stroke="none"/>
      <text x="855.435" font-size="16px" y="788.948" clip-path="url(#clipPath2)" font-family="sans-serif" stroke="none" xml:space="preserve">crm:P43_has_dimension</text>
      <path fill="none" d="M1086.9608 747.429 L771.4097 701.7777" clip-path="url(#clipPath2)"/>
      <path d="M1094.8783 748.5745 C1094.562 750.7609 1092.5332 752.2768 1090.3468 751.9605 C1088.1604 751.6442 1086.6444 749.6153 1086.9608 747.429 C1087.2771 745.2426 1089.3059 743.7266 1091.4923 744.0429 C1093.6787 744.3593 1095.1947 746.3881 1094.8783 748.5745 Z" clip-path="url(#clipPath2)" stroke="none"/>
      <path d="M760.5231 700.2027 L771.5403 707.8591 L773.2585 695.9827 Z" clip-path="url(#clipPath2)" stroke="none"/>
      <rect x="844.4164" y="712.6769" clip-path="url(#clipPath2)" fill="white" width="162.5625" height="22.8438" stroke="none"/>
      <text x="846.4164" font-size="16px" y="730.1456" clip-path="url(#clipPath2)" font-family="sans-serif" stroke="none" xml:space="preserve">crm:P45_consists_of</text>
      <path fill="none" d="M1206.5449 734.1901 L1567.9703 549.1859" clip-path="url(#clipPath2)"/>
      <path d="M1199.4236 737.8354 C1198.417 735.8689 1199.1952 733.4587 1201.1616 732.4521 C1203.1282 731.4455 1205.5383 732.2236 1206.5449 734.1901 C1207.5515 736.1566 1206.7733 738.5668 1204.8069 739.5734 C1202.8403 740.58 1200.4302 739.8019 1199.4236 737.8354 Z" clip-path="url(#clipPath2)" stroke="none"/>
      <path d="M1577.7621 544.1738 L1564.3463 544.3006 L1569.8141 554.9825 Z" clip-path="url(#clipPath2)" stroke="none"/>
      <rect x="1219.3087" y="619.2425" clip-path="url(#clipPath2)" fill="white" width="342.1562" height="41.6875" stroke="none"/>
      <text x="1221.3087" font-size="16px" y="636.7113" clip-path="url(#clipPath2)" font-family="sans-serif" stroke="none" xml:space="preserve">crm:P55_has_current_permanent_location /</text>
      <text x="1274.0665" font-size="16px" y="655.5551" clip-path="url(#clipPath2)" font-family="sans-serif" stroke="none" xml:space="preserve">crm:P55_has_current_location</text>
      <path fill="none" d="M1158.7761 732.021 L1148.7941 525.1755" clip-path="url(#clipPath2)"/>
      <path d="M1159.1616 740.0117 C1156.9551 740.1182 1155.08 738.4156 1154.9735 736.2091 C1154.8671 734.0026 1156.5696 732.1274 1158.7761 732.021 C1160.9827 731.9146 1162.8578 733.6171 1162.9642 735.8236 C1163.0707 738.0302 1161.3682 739.9053 1159.1616 740.0117 Z" clip-path="url(#clipPath2)" stroke="none"/>
      <path d="M1148.2638 514.1883 L1142.8492 526.4636 L1154.8353 525.8851 Z" clip-path="url(#clipPath2)" stroke="none"/>
      <rect x="1078.1195" y="613.6644" clip-path="url(#clipPath2)" fill="white" width="150.9922" height="22.8438" stroke="none"/>
      <text x="1080.1195" font-size="16px" y="631.1332" clip-path="url(#clipPath2)" font-family="sans-serif" stroke="none" xml:space="preserve">crm:P102_has_title</text>
      <path fill="none" d="M1115.2363 734.1102 L802.533 567.3356" clip-path="url(#clipPath2)"/>
      <path d="M1122.2952 737.8749 C1121.2556 739.8242 1118.8326 740.5616 1116.8834 739.522 C1114.9342 738.4824 1114.1968 736.0594 1115.2363 734.1102 C1116.2759 732.1609 1118.6989 731.4235 1120.6481 732.4631 C1122.5973 733.5027 1123.3347 735.9257 1122.2952 737.8749 Z" clip-path="url(#clipPath2)" stroke="none"/>
      <path d="M792.8271 562.1591 L800.5919 573.1003 L806.2389 562.512 Z" clip-path="url(#clipPath2)" stroke="none"/>
      <rect x="857.5183" y="628.2442" clip-path="url(#clipPath2)" fill="white" width="196.6016" height="41.6875" stroke="none"/>
      <text x="886.6473" font-size="16px" y="645.713" clip-path="url(#clipPath2)" font-family="sans-serif" stroke="none" xml:space="preserve">crm:P2_has_type/</text>
      <text x="859.5184" font-size="16px" y="664.5567" clip-path="url(#clipPath2)" font-family="sans-serif" stroke="none" xml:space="preserve">frbroo:R7_is_example_of</text>
      <path fill="none" d="M1211.683 781.6628 L1412.0023 873.4308" clip-path="url(#clipPath2)"/>
      <path d="M1204.4098 778.3309 C1205.3298 776.3224 1207.7039 775.4402 1209.7123 776.3602 C1211.7207 777.2803 1212.603 779.6544 1211.683 781.6628 C1210.7629 783.6712 1208.3889 784.5535 1206.3805 783.6334 C1204.3721 782.7133 1203.4897 780.3393 1204.4098 778.3309 Z" clip-path="url(#clipPath2)" stroke="none"/>
      <path d="M1422.0029 878.0121 L1413.592 867.5594 L1408.5944 878.4692 Z" clip-path="url(#clipPath2)" stroke="none"/>
      <rect x="1201.0461" y="817.5781" clip-path="url(#clipPath2)" fill="white" width="227.9375" height="22.8438" stroke="none"/>
      <text x="1203.0461" font-size="16px" y="835.0469" clip-path="url(#clipPath2)" font-family="sans-serif" stroke="none" xml:space="preserve">crm:P108i_was_produced_by</text>
      <path fill="none" d="M1532.427 923.4101 L1869.8835 1049.9563" clip-path="url(#clipPath2)"/>
      <path d="M1524.9363 920.6011 C1525.712 918.5327 1528.0176 917.4846 1530.0861 918.2603 C1532.1545 919.0359 1533.2026 921.3416 1532.427 923.4101 C1531.6512 925.4786 1529.3457 926.5266 1527.2772 925.7509 C1525.2087 924.9753 1524.1606 922.6696 1524.9363 920.6011 Z" clip-path="url(#clipPath2)" stroke="none"/>
      <path d="M1880.1831 1053.8187 L1871.054 1043.9872 L1866.8405 1055.2231 Z" clip-path="url(#clipPath2)" stroke="none"/>
      <rect x="1613.7686" y="976.4919" clip-path="url(#clipPath2)" fill="white" width="181.3359" height="22.8438" stroke="none"/>
      <text x="1615.7687" font-size="16px" y="993.9606" clip-path="url(#clipPath2)" font-family="sans-serif" stroke="none" xml:space="preserve">crm:P4_has_time-span</text>
      <path fill="none" d="M1566.0453 900 L1898.5161 900" clip-path="url(#clipPath2)"/>
      <path d="M1558.0453 900 C1558.0453 897.7908 1559.8362 896 1562.0453 896 C1564.2544 896 1566.0453 897.7908 1566.0453 900 C1566.0453 902.2092 1564.2544 904 1562.0453 904 C1559.8362 904 1558.0453 902.2092 1558.0453 900 Z" clip-path="url(#clipPath2)" stroke="none"/>
      <path d="M1909.5161 900 L1897.5161 894 L1897.5161 906 Z" clip-path="url(#clipPath2)" stroke="none"/>
      <rect x="1604.2064" y="888.5781" clip-path="url(#clipPath2)" fill="white" width="263.125" height="22.8438" stroke="none"/>
      <text x="1606.2064" font-size="16px" y="906.0469" clip-path="url(#clipPath2)" font-family="sans-serif" stroke="none" xml:space="preserve">crm:P32_used_general_technique</text>
      <path fill="none" d="M614.0948 472.0161 L728.0303 528.903" clip-path="url(#clipPath2)"/>
      <path d="M606.9373 468.4424 C607.9242 466.4659 610.3264 465.6637 612.3029 466.6505 C614.2794 467.6374 615.0816 470.0396 614.0948 472.0161 C613.1079 473.9926 610.7057 474.7948 608.7292 473.808 C606.7527 472.8211 605.9505 470.4189 606.9373 468.4424 Z" clip-path="url(#clipPath2)" stroke="none"/>
      <path d="M737.8718 533.8167 L729.8159 523.0881 L724.4554 533.8243 Z" clip-path="url(#clipPath2)" stroke="none"/>
      <rect x="550.6075" y="490.6087" clip-path="url(#clipPath2)" fill="white" width="247.2031" height="22.8438" stroke="none"/>
      <text x="552.6075" font-size="16px" y="508.0774" clip-path="url(#clipPath2)" font-family="sans-serif" stroke="none" xml:space="preserve">frbroo:R4_carriers_provided_by</text>
      <path fill="none" d="M1141.2809 732.7806 L959.2798 487.9689" clip-path="url(#clipPath2)"/>
      <path d="M1146.0538 739.2008 C1144.281 740.5189 1141.7753 740.1501 1140.4573 738.3772 C1139.1393 736.6043 1139.5079 734.0986 1141.2809 732.7806 C1143.0537 731.4626 1145.5594 731.8314 1146.8774 733.6042 C1148.1954 735.3771 1147.8268 737.8828 1146.0538 739.2008 Z" clip-path="url(#clipPath2)" stroke="none"/>
      <path d="M952.717 479.1411 L955.0613 492.3512 L964.6916 485.1917 Z" clip-path="url(#clipPath2)" stroke="none"/>
      <rect x="984.8278" y="596.1374" clip-path="url(#clipPath2)" fill="white" width="126.7188" height="22.8438" stroke="none"/>
      <text x="986.8278" font-size="16px" y="613.6061" clip-path="url(#clipPath2)" font-family="sans-serif" stroke="none" xml:space="preserve">dcterms:creator</text>
      <path fill="none" d="M612.6118 334.0394 L613.2236 418.7456" clip-path="url(#clipPath2)"/>
      <path d="M612.5541 326.0396 C614.7632 326.0237 616.5669 327.8015 616.5828 330.0106 C616.5988 332.2197 614.8209 334.0234 612.6118 334.0394 C610.4027 334.0553 608.599 332.2774 608.5831 330.0684 C608.5671 327.8593 610.345 326.0555 612.5541 326.0396 Z" clip-path="url(#clipPath2)" stroke="none"/>
      <path d="M613.3031 429.7453 L619.2162 417.7023 L607.2166 417.789 Z" clip-path="url(#clipPath2)" stroke="none"/>
      <rect x="536.1539" y="368.4597" clip-path="url(#clipPath2)" fill="white" width="153.5781" height="22.8438" stroke="none"/>
      <text x="538.1539" font-size="16px" y="385.9284" clip-path="url(#clipPath2)" font-family="sans-serif" stroke="none" xml:space="preserve">frbroo:R17_created</text>
      <path fill="none" d="M736.3942 332.1211 L894.0404 431.0431" clip-path="url(#clipPath2)"/>
      <path d="M729.6178 327.869 C730.792 325.9977 733.2608 325.4326 735.1321 326.6068 C737.0033 327.781 737.5684 330.2498 736.3942 332.1211 C735.22 333.9923 732.7512 334.5574 730.8799 333.3832 C729.0087 332.209 728.4436 329.7402 729.6178 327.869 Z" clip-path="url(#clipPath2)" stroke="none"/>
      <path d="M903.3579 436.8898 L896.3824 425.4293 L890.0042 435.5939 Z" clip-path="url(#clipPath2)" stroke="none"/>
      <rect x="719.0509" y="371.8525" clip-path="url(#clipPath2)" fill="white" width="197.7266" height="22.8438" stroke="none"/>
      <text x="721.0509" font-size="16px" y="389.3213" clip-path="url(#clipPath2)" font-family="sans-serif" stroke="none" xml:space="preserve">crm:P_14_carried_out_by</text>
      <path fill="none" d="M1470 926.002 L1470 987.8979" clip-path="url(#clipPath2)"/>
      <path d="M1470 918.002 C1472.2091 918.002 1474 919.7928 1474 922.002 C1474 924.2111 1472.2091 926.002 1470 926.002 C1467.7909 926.002 1466 924.2111 1466 922.002 C1466 919.7928 1467.7909 918.002 1470 918.002 Z" clip-path="url(#clipPath2)" stroke="none"/>
      <path d="M1470 998.8979 L1476 986.8979 L1464 986.8979 Z" clip-path="url(#clipPath2)" stroke="none"/>
      <rect x="1299.1641" y="949.0189" clip-path="url(#clipPath2)" fill="white" width="341.6719" height="22.8438" stroke="none"/>
      <text x="1301.1641" font-size="16px" y="966.4877" clip-path="url(#clipPath2)" font-family="sans-serif" stroke="none" xml:space="preserve">crm:P186_produced_thing_of_product_type</text>
      <path fill="none" d="M1470 1045.1233 L1470 1116.759" clip-path="url(#clipPath2)"/>
      <path d="M1470 1037.1233 C1472.2091 1037.1233 1474 1038.9142 1474 1041.1233 C1474 1043.3324 1472.2091 1045.1233 1470 1045.1233 C1467.7909 1045.1233 1466 1043.3324 1466 1041.1233 C1466 1038.9142 1467.7909 1037.1233 1470 1037.1233 Z" clip-path="url(#clipPath2)" stroke="none"/>
      <path d="M1470 1127.759 L1476 1115.759 L1464 1115.759 Z" clip-path="url(#clipPath2)" stroke="none"/>
      <rect x="1346.3359" y="1073.0189" clip-path="url(#clipPath2)" fill="white" width="247.3281" height="22.8438" stroke="none"/>
      <text x="1348.3359" font-size="16px" y="1090.4877" clip-path="url(#clipPath2)" font-family="sans-serif" stroke="none" xml:space="preserve">crm:P187_has_production_plan</text>
      <path fill="none" d="M1472.0695 362.8082 L1594.6274 484.0892" clip-path="url(#clipPath2)"/>
      <path d="M1466.3829 357.1811 C1467.9369 355.6108 1470.4695 355.5975 1472.0398 357.1514 C1473.61 358.7053 1473.6233 361.2379 1472.0695 362.8082 C1470.5155 364.3785 1467.9829 364.3918 1466.4126 362.8379 C1464.8424 361.284 1464.8291 358.7514 1466.3829 357.1811 Z" clip-path="url(#clipPath2)" stroke="none"/>
      <path d="M1602.4462 491.8265 L1598.137 479.121 L1589.6962 487.6505 Z" clip-path="url(#clipPath2)" stroke="none"/>
      <rect x="1449.316" y="405.07" clip-path="url(#clipPath2)" fill="white" width="173.0469" height="41.6875" stroke="none"/>
      <text x="1457.812" font-size="16px" y="422.5387" clip-path="url(#clipPath2)" font-family="sans-serif" stroke="none" xml:space="preserve">crm:P26_moved_to/</text>
      <text x="1451.3159" font-size="16px" y="441.3825" clip-path="url(#clipPath2)" font-family="sans-serif" stroke="none" xml:space="preserve">crm:P27_moved_from</text>
      <path fill="none" d="M1429.6978 363.3229 L1181.2557 726.9344" clip-path="url(#clipPath2)"/>
      <path d="M1434.2109 356.7176 C1436.0349 357.9639 1436.5033 360.4529 1435.2571 362.2769 C1434.0107 364.1009 1431.5217 364.5692 1429.6978 363.3229 C1427.8738 362.0767 1427.4054 359.5877 1428.6516 357.7637 C1429.8979 355.9396 1432.387 355.4713 1434.2109 356.7176 Z" clip-path="url(#clipPath2)" stroke="none"/>
      <path d="M1175.05 736.0168 L1186.7739 729.4937 L1176.8658 722.7239 Z" clip-path="url(#clipPath2)" stroke="none"/>
      <rect x="1239.5891" y="536.5781" clip-path="url(#clipPath2)" fill="white" width="127.8516" height="22.8438" stroke="none"/>
      <text x="1241.5891" font-size="16px" y="554.0469" clip-path="url(#clipPath2)" font-family="sans-serif" stroke="none" xml:space="preserve">crm:P25_moved</text>
      <path fill="none" d="M634.8197 1007.579 L1103.7773 784.7311" clip-path="url(#clipPath2)"/>
      <path d="M627.594 1011.0126 C626.6459 1009.0173 627.4948 1006.6311 629.4901 1005.6829 C631.4854 1004.7348 633.8715 1005.5837 634.8197 1007.579 C635.7678 1009.5743 634.9189 1011.9604 632.9236 1012.9086 C630.9283 1013.8568 628.5422 1013.0079 627.594 1011.0126 Z" clip-path="url(#clipPath2)" stroke="none"/>
      <path d="M1113.7126 780.0098 L1100.299 779.741 L1105.4493 790.5795 Z" clip-path="url(#clipPath2)" stroke="none"/>
      <rect x="745.2682" y="883.231" clip-path="url(#clipPath2)" fill="white" width="254.3828" height="22.8438" stroke="none"/>
      <text x="747.2682" font-size="16px" y="900.6998" clip-path="url(#clipPath2)" font-family="sans-serif" stroke="none" xml:space="preserve">crm:P30_transferred_custody_of</text>
      <path fill="none" d="M726.6218 1028 L1028.2524 1028" clip-path="url(#clipPath2)"/>
      <path d="M718.6218 1028 C718.6218 1025.7909 720.4126 1024 722.6218 1024 C724.8309 1024 726.6218 1025.7909 726.6218 1028 C726.6218 1030.2091 724.8309 1032 722.6218 1032 C720.4126 1032 718.6218 1030.2091 718.6218 1028 Z" clip-path="url(#clipPath2)" stroke="none"/>
      <path d="M1039.2524 1028 L1027.2524 1022 L1027.2524 1034 Z" clip-path="url(#clipPath2)" stroke="none"/>
      <rect x="751.8097" y="1007.1562" clip-path="url(#clipPath2)" fill="white" width="258.2422" height="41.6875" stroke="none"/>
      <text x="753.8097" font-size="16px" y="1024.625" clip-path="url(#clipPath2)" font-family="sans-serif" stroke="none" xml:space="preserve">crm:P28_custody_surrended_by/</text>
      <text x="765.3136" font-size="16px" y="1043.4688" clip-path="url(#clipPath2)" font-family="sans-serif" stroke="none" xml:space="preserve">crm:P29_custody_received_by</text>
      <path fill="none" d="M1144.8425 783.4534 L946.0855 1116.5656" clip-path="url(#clipPath2)"/>
      <path d="M1148.9417 776.5834 C1150.8387 777.7154 1151.459 780.1709 1150.3271 782.068 C1149.1952 783.9651 1146.7396 784.5854 1144.8425 783.4534 C1142.9454 782.3215 1142.3252 779.866 1143.457 777.9689 C1144.589 776.0718 1147.0446 775.4515 1148.9417 776.5834 Z" clip-path="url(#clipPath2)" stroke="none"/>
      <path d="M940.4492 1126.0118 L951.7504 1118.7811 L941.4454 1112.6324 Z" clip-path="url(#clipPath2)" stroke="none"/>
      <rect x="980.3203" y="941.5781" clip-path="url(#clipPath2)" fill="white" width="126.7188" height="22.8438" stroke="none"/>
      <text x="982.3203" font-size="16px" y="959.0469" clip-path="url(#clipPath2)" font-family="sans-serif" stroke="none" xml:space="preserve">dcterms:creator</text>
      <path fill="none" d="M1146.1095 457.8018 L1144.058 388.2308" clip-path="url(#clipPath2)"/>
      <path d="M1146.3453 465.7983 C1144.1372 465.8635 1142.2943 464.1262 1142.2291 461.918 C1142.1641 459.7098 1143.9014 457.8669 1146.1095 457.8018 C1148.3176 457.7367 1150.1605 459.474 1150.2257 461.6822 C1150.2908 463.8904 1148.5535 465.7332 1146.3453 465.7983 Z" clip-path="url(#clipPath2)" stroke="none"/>
      <path d="M1143.7336 377.2356 L1138.0901 389.4073 L1150.0848 389.0535 Z" clip-path="url(#clipPath2)" stroke="none"/>
      <rect x="1090.5784" y="408.102" clip-path="url(#clipPath2)" fill="white" width="108.8047" height="22.8438" stroke="none"/>
      <text x="1092.5784" font-size="16px" y="425.5708" clip-path="url(#clipPath2)" font-family="sans-serif" stroke="none" xml:space="preserve">dc:alternative</text>
    </g>
    <g fill="rgb(210,210,210)" text-rendering="geometricPrecision" shape-rendering="geometricPrecision" transform="matrix(0.4919,0,0,0.4919,-221.8282,-75.7462) translate(4,4)" stroke="rgb(210,210,210)">
      <rect x="1597.6172" width="619.8477" height="123.3855" y="653.0684" clip-path="url(#clipPath3)" stroke="none"/>
    </g>
    <g fill="white" text-rendering="geometricPrecision" shape-rendering="geometricPrecision" transform="matrix(0.4919,0,0,0.4919,-221.8282,-75.7462)" stroke="white">
      <rect x="1597.6172" width="619.8477" height="123.3855" y="653.0684" clip-path="url(#clipPath2)" stroke="none"/>
      <rect x="1597.6172" y="653.0684" clip-path="url(#clipPath2)" fill="rgb(183,182,158)" width="619.8477" height="21.666" stroke="none"/>
    </g>
    <g font-size="15px" stroke-linecap="butt" transform="matrix(0.4919,0,0,0.4919,-221.8282,-75.7462)" text-rendering="geometricPrecision" font-family="sans-serif" shape-rendering="geometricPrecision" font-weight="bold" stroke-miterlimit="1.45">
      <text x="2138.5972" xml:space="preserve" y="669.5703" clip-path="url(#clipPath2)" stroke="none">Prefixes   </text>
      <rect fill="none" x="1597.6172" width="619.8477" height="123.3855" y="653.0684" clip-path="url(#clipPath2)"/>
      <text x="1614.6172" xml:space="preserve" font-size="16px" y="707.2031" clip-path="url(#clipPath2)" stroke="none">crm:</text>
      <text x="1614.6172" xml:space="preserve" font-size="16px" y="726.0469" clip-path="url(#clipPath2)" stroke="none">frbroo:</text>
      <text x="1614.6172" xml:space="preserve" font-size="16px" y="744.8906" clip-path="url(#clipPath2)" stroke="none">dcterms:</text>
      <text x="1699.5352" font-size="16px" y="707.2031" clip-path="url(#clipPath2)" stroke="none" font-weight="normal" xml:space="preserve">http://www.cidoc-crm.org/Version/version-7.0.1/</text>
      <text x="1699.5352" font-size="16px" y="726.0469" clip-path="url(#clipPath2)" stroke="none" font-weight="normal" xml:space="preserve">http://www.cidoc-crm.org/frbroo/ModelVersion/frbroo-v.-3.0/</text>
      <text x="1699.5352" font-size="16px" y="744.8906" clip-path="url(#clipPath2)" stroke="none" font-weight="normal" xml:space="preserve">http://purl.org/dc/terms/</text>
    </g>
  </g>
</svg>
