<?xml version="1.0" encoding="UTF-8"?><svg xmlns="http://www.w3.org/2000/svg" xmlns:xlink="http://www.w3.org/1999/xlink" fill-opacity="1" color-rendering="auto" color-interpolation="auto" text-rendering="auto" stroke="black" stroke-linecap="square" width="876" stroke-miterlimit="10" shape-rendering="auto" stroke-opacity="1" fill="black" stroke-dasharray="none" font-weight="normal" stroke-width="1" height="636" font-family="'Dialog'" font-style="normal" stroke-linejoin="miter" font-size="12px" stroke-dashoffset="0" image-rendering="auto">
  <!--Generated by ySVG 2.5-->
  <defs id="genericDefs"/>
  <g>
    <defs id="defs1">
      <clipPath clipPathUnits="userSpaceOnUse" id="clipPath1">
        <path d="M0 0 L876 0 L876 636 L0 636 L0 0 Z"/>
      </clipPath>
      <clipPath clipPathUnits="userSpaceOnUse" id="clipPath2">
        <path d="M449 91 L2202 91 L2202 1363.7261 L449 1363.7261 L449 91 Z"/>
      </clipPath>
      <clipPath clipPathUnits="userSpaceOnUse" id="clipPath3">
        <path d="M445 87 L2198 87 L2198 1359.7261 L445 1359.7261 L445 87 Z"/>
      </clipPath>
    </defs>
    <g fill="yellow" text-rendering="geometricPrecision" shape-rendering="geometricPrecision" transform="matrix(0.4997,0,0,0.4997,-224.3719,-45.474)" stroke="yellow">
      <rect x="1090.9112" y="736" clip-path="url(#clipPath2)" width="115.9682" rx="4" ry="4" height="44" stroke="none"/>
    </g>
    <g font-size="16px" stroke-linecap="butt" transform="matrix(0.4997,0,0,0.4997,-224.3719,-45.474)" text-rendering="geometricPrecision" font-family="sans-serif" shape-rendering="geometricPrecision" stroke-miterlimit="1.45">
      <text x="1091.4421" xml:space="preserve" y="764.0469" clip-path="url(#clipPath2)" stroke="none">frbroo:F5_Item</text>
      <rect x="1090.9112" y="736" clip-path="url(#clipPath2)" fill="none" width="115.9682" rx="4" ry="4" height="44" stroke-width="2"/>
    </g>
    <g fill="yellow" text-rendering="geometricPrecision" shape-rendering="geometricPrecision" transform="matrix(0.4997,0,0,0.4997,-224.3719,-45.474)" stroke="yellow">
      <rect x="1039.2551" y="997.5" clip-path="url(#clipPath2)" width="215.4898" rx="4" ry="4" height="61" stroke="none"/>
    </g>
    <g font-size="16px" stroke-linecap="butt" transform="matrix(0.4997,0,0,0.4997,-224.3719,-45.474)" text-rendering="geometricPrecision" font-family="sans-serif" shape-rendering="geometricPrecision" stroke-miterlimit="1.45">
      <text x="1040.168" xml:space="preserve" y="1034.0469" clip-path="url(#clipPath2)" stroke="none">frbroo:F11_Corporate_Body</text>
      <rect x="1039.2551" y="997.5" clip-path="url(#clipPath2)" fill="none" width="215.4898" rx="4" ry="4" height="61"/>
    </g>
    <g fill="yellow" text-rendering="geometricPrecision" shape-rendering="geometricPrecision" transform="matrix(0.4997,0,0,0.4997,-224.3719,-45.474)" stroke="yellow">
      <rect x="632.2833" y="788" clip-path="url(#clipPath2)" width="175.4333" rx="4" ry="4" height="44" stroke="none"/>
    </g>
    <g font-size="16px" stroke-linecap="butt" transform="matrix(0.4997,0,0,0.4997,-224.3719,-45.474)" text-rendering="geometricPrecision" font-family="sans-serif" shape-rendering="geometricPrecision" stroke-miterlimit="1.45">
      <text x="642.7109" xml:space="preserve" y="816.0469" clip-path="url(#clipPath2)" stroke="none">crm:E54_Dimension</text>
      <rect x="632.2833" y="788" clip-path="url(#clipPath2)" fill="none" width="175.4333" rx="4" ry="4" height="44"/>
    </g>
    <g fill="yellow" text-rendering="geometricPrecision" shape-rendering="geometricPrecision" transform="matrix(0.4997,0,0,0.4997,-224.3719,-45.474)" stroke="yellow">
      <rect x="619.5159" y="663.8275" clip-path="url(#clipPath2)" width="140.9682" rx="4" ry="4" height="52.3451" stroke="none"/>
    </g>
    <g font-size="16px" stroke-linecap="butt" transform="matrix(0.4997,0,0,0.4997,-224.3719,-45.474)" text-rendering="geometricPrecision" font-family="sans-serif" shape-rendering="geometricPrecision" stroke-miterlimit="1.45">
      <text x="623.1016" xml:space="preserve" y="696.0469" clip-path="url(#clipPath2)" stroke="none">crm:E57_Material</text>
      <rect x="619.5159" y="663.8275" clip-path="url(#clipPath2)" fill="none" width="140.9682" rx="4" ry="4" height="52.3451"/>
    </g>
    <g fill="yellow" text-rendering="geometricPrecision" shape-rendering="geometricPrecision" transform="matrix(0.4997,0,0,0.4997,-224.3719,-45.474)" stroke="yellow">
      <rect x="1550.9006" y="491.8275" clip-path="url(#clipPath2)" width="155.9894" rx="4" ry="4" height="52.3451" stroke="none"/>
    </g>
    <g font-size="16px" stroke-linecap="butt" transform="matrix(0.4997,0,0,0.4997,-224.3719,-45.474)" text-rendering="geometricPrecision" font-family="sans-serif" shape-rendering="geometricPrecision" stroke-miterlimit="1.45">
      <text x="1573.364" xml:space="preserve" y="524.0469" clip-path="url(#clipPath2)" stroke="none">crm:E53_Place</text>
      <rect x="1550.9006" y="491.8275" clip-path="url(#clipPath2)" fill="none" width="155.9894" rx="4" ry="4" height="52.3451"/>
    </g>
    <g fill="yellow" text-rendering="geometricPrecision" shape-rendering="geometricPrecision" transform="matrix(0.4997,0,0,0.4997,-224.3719,-45.474)" stroke="yellow">
      <rect x="1076.5159" y="461.8275" clip-path="url(#clipPath2)" width="140.9682" rx="4" ry="4" height="52.3451" stroke="none"/>
    </g>
    <g font-size="16px" stroke-linecap="butt" transform="matrix(0.4997,0,0,0.4997,-224.3719,-45.474)" text-rendering="geometricPrecision" font-family="sans-serif" shape-rendering="geometricPrecision" stroke-miterlimit="1.45">
      <text x="1094.043" xml:space="preserve" y="494.0469" clip-path="url(#clipPath2)" stroke="none">crm:E35_Title</text>
      <rect x="1076.5159" y="461.8275" clip-path="url(#clipPath2)" fill="none" width="140.9682" rx="4" ry="4" height="52.3451"/>
    </g>
    <g fill="yellow" text-rendering="geometricPrecision" shape-rendering="geometricPrecision" transform="matrix(0.4997,0,0,0.4997,-224.3719,-45.474)" stroke="yellow">
      <rect x="1853.9382" y="1053.8275" clip-path="url(#clipPath2)" width="192.1235" rx="4" ry="4" height="52.3451" stroke="none"/>
    </g>
    <g font-size="16px" stroke-linecap="butt" transform="matrix(0.4997,0,0,0.4997,-224.3719,-45.474)" text-rendering="geometricPrecision" font-family="sans-serif" shape-rendering="geometricPrecision" stroke-miterlimit="1.45">
      <text x="1871.5234" xml:space="preserve" y="1086.0469" clip-path="url(#clipPath2)" stroke="none">crm:E52_Time-Span</text>
      <rect x="1853.9382" y="1053.8275" clip-path="url(#clipPath2)" fill="none" width="192.1235" rx="4" ry="4" height="52.3451"/>
    </g>
    <g fill="yellow" text-rendering="geometricPrecision" shape-rendering="geometricPrecision" transform="matrix(0.4997,0,0,0.4997,-224.3719,-45.474)" stroke="yellow">
      <rect x="632.0961" y="533.8241" clip-path="url(#clipPath2)" width="249.8079" rx="4" ry="4" height="28.3517" stroke="none"/>
    </g>
    <g font-size="16px" stroke-linecap="butt" transform="matrix(0.4997,0,0,0.4997,-224.3719,-45.474)" text-rendering="geometricPrecision" font-family="sans-serif" shape-rendering="geometricPrecision" stroke-miterlimit="1.45">
      <text x="634.5664" xml:space="preserve" y="554.0469" clip-path="url(#clipPath2)" stroke="none">F3_Manifestation_Product_Type</text>
      <rect x="632.0961" y="533.8241" clip-path="url(#clipPath2)" fill="none" width="249.8079" rx="4" ry="4" height="28.3517"/>
    </g>
    <g fill="yellow" text-rendering="geometricPrecision" shape-rendering="geometricPrecision" transform="matrix(0.4997,0,0,0.4997,-224.3719,-45.474)" stroke="yellow">
      <rect x="1377.9781" y="878" clip-path="url(#clipPath2)" width="184.0439" rx="4" ry="4" height="44" stroke="none"/>
    </g>
    <g font-size="16px" stroke-linecap="butt" transform="matrix(0.4997,0,0,0.4997,-224.3719,-45.474)" text-rendering="geometricPrecision" font-family="sans-serif" shape-rendering="geometricPrecision" stroke-miterlimit="1.45">
      <text x="1392.2852" xml:space="preserve" y="906.0469" clip-path="url(#clipPath2)" stroke="none">crm:E12_Production</text>
      <rect x="1377.9781" y="878" clip-path="url(#clipPath2)" fill="none" width="184.0439" rx="4" ry="4" height="44"/>
    </g>
    <g fill="yellow" text-rendering="geometricPrecision" shape-rendering="geometricPrecision" transform="matrix(0.4997,0,0,0.4997,-224.3719,-45.474)" stroke="yellow">
      <rect x="1909.5159" y="878" clip-path="url(#clipPath2)" width="140.9682" rx="4" ry="4" height="44" stroke="none"/>
    </g>
    <g font-size="16px" stroke-linecap="butt" transform="matrix(0.4997,0,0,0.4997,-224.3719,-45.474)" text-rendering="geometricPrecision" font-family="sans-serif" shape-rendering="geometricPrecision" stroke-miterlimit="1.45">
      <text x="1925.4453" xml:space="preserve" y="906.0469" clip-path="url(#clipPath2)" stroke="none">crm:E55_Type</text>
      <rect x="1909.5159" y="878" clip-path="url(#clipPath2)" fill="none" width="140.9682" rx="4" ry="4" height="44"/>
    </g>
    <g fill="yellow" text-rendering="geometricPrecision" shape-rendering="geometricPrecision" transform="matrix(0.4997,0,0,0.4997,-224.3719,-45.474)" stroke="yellow">
      <rect x="482.2946" y="429.7631" clip-path="url(#clipPath2)" width="175.4109" rx="4" ry="4" height="40.4739" stroke="none"/>
    </g>
    <g font-size="16px" stroke-linecap="butt" transform="matrix(0.4997,0,0,0.4997,-224.3719,-45.474)" text-rendering="geometricPrecision" font-family="sans-serif" shape-rendering="geometricPrecision" stroke-miterlimit="1.45">
      <text x="487.4141" xml:space="preserve" y="456.0469" clip-path="url(#clipPath2)" stroke="none">frbroo:F2_Expression</text>
      <rect x="482.2946" y="429.7631" clip-path="url(#clipPath2)" fill="none" width="175.4109" rx="4" ry="4" height="40.4739"/>
    </g>
    <g fill="yellow" text-rendering="geometricPrecision" shape-rendering="geometricPrecision" transform="matrix(0.4997,0,0,0.4997,-224.3719,-45.474)" stroke="yellow">
      <rect x="857.2284" y="436.8815" clip-path="url(#clipPath2)" width="159.5433" rx="4" ry="4" height="42.2369" stroke="none"/>
    </g>
    <g font-size="16px" stroke-linecap="butt" transform="matrix(0.4997,0,0,0.4997,-224.3719,-45.474)" text-rendering="geometricPrecision" font-family="sans-serif" shape-rendering="geometricPrecision" stroke-miterlimit="1.45">
      <text x="865.6016" xml:space="preserve" y="464.0469" clip-path="url(#clipPath2)" stroke="none">frbroo:F10_Person</text>
      <rect x="857.2284" y="436.8815" clip-path="url(#clipPath2)" fill="none" width="159.5433" rx="4" ry="4" height="42.2369"/>
    </g>
    <g fill="yellow" text-rendering="geometricPrecision" shape-rendering="geometricPrecision" transform="matrix(0.4997,0,0,0.4997,-224.3719,-45.474)" stroke="yellow">
      <rect x="476.0994" y="286" clip-path="url(#clipPath2)" width="261.8013" rx="4" ry="4" height="44" stroke="none"/>
    </g>
    <g font-size="16px" stroke-linecap="butt" transform="matrix(0.4997,0,0,0.4997,-224.3719,-45.474)" text-rendering="geometricPrecision" font-family="sans-serif" shape-rendering="geometricPrecision" stroke-miterlimit="1.45">
      <text x="482.4883" xml:space="preserve" y="314.0469" clip-path="url(#clipPath2)" stroke="none">frbroo:F28_Expression_Creation</text>
      <rect x="476.0994" y="286" clip-path="url(#clipPath2)" fill="none" width="261.8013" rx="4" ry="4" height="44"/>
    </g>
    <g fill="yellow" text-rendering="geometricPrecision" shape-rendering="geometricPrecision" transform="matrix(0.4997,0,0,0.4997,-224.3719,-45.474)" stroke="yellow">
      <rect x="1371.7161" y="998.8815" clip-path="url(#clipPath2)" width="196.5677" rx="4" ry="4" height="42.2369" stroke="none"/>
    </g>
    <g font-size="16px" stroke-linecap="butt" transform="matrix(0.4997,0,0,0.4997,-224.3719,-45.474)" text-rendering="geometricPrecision" font-family="sans-serif" shape-rendering="geometricPrecision" stroke-miterlimit="1.45">
      <text x="1381.7461" xml:space="preserve" y="1026.0469" clip-path="url(#clipPath2)" stroke="none">crm:E99_Product_Type</text>
      <rect x="1371.7161" y="998.8815" clip-path="url(#clipPath2)" fill="none" width="196.5677" rx="4" ry="4" height="42.2369"/>
    </g>
    <g fill="yellow" text-rendering="geometricPrecision" shape-rendering="geometricPrecision" transform="matrix(0.4997,0,0,0.4997,-224.3719,-45.474)" stroke="yellow">
      <rect x="1354.0332" y="1127.7631" clip-path="url(#clipPath2)" width="245.9336" rx="4" ry="4" height="40.4739" stroke="none"/>
    </g>
    <g font-size="16px" stroke-linecap="butt" transform="matrix(0.4997,0,0,0.4997,-224.3719,-45.474)" text-rendering="geometricPrecision" font-family="sans-serif" shape-rendering="geometricPrecision" stroke-miterlimit="1.45">
      <text x="1359.3008" xml:space="preserve" y="1154.0469" clip-path="url(#clipPath2)" stroke="none">crm:E29_Design_or_Procedure</text>
      <rect x="1354.0332" y="1127.7631" clip-path="url(#clipPath2)" fill="none" width="245.9336" rx="4" ry="4" height="40.4739"/>
    </g>
    <g fill="yellow" text-rendering="geometricPrecision" shape-rendering="geometricPrecision" transform="matrix(0.4997,0,0,0.4997,-224.3719,-45.474)" stroke="yellow">
      <rect x="1383.9775" y="316" clip-path="url(#clipPath2)" width="126.0449" rx="4" ry="4" height="44" stroke="none"/>
    </g>
    <g font-size="16px" stroke-linecap="butt" transform="matrix(0.4997,0,0,0.4997,-224.3719,-45.474)" text-rendering="geometricPrecision" font-family="sans-serif" shape-rendering="geometricPrecision" stroke-miterlimit="1.45">
      <text x="1395.832" xml:space="preserve" y="344.0469" clip-path="url(#clipPath2)" stroke="none">crm:E9_Move</text>
      <rect x="1383.9775" y="316" clip-path="url(#clipPath2)" fill="none" width="126.0449" rx="4" ry="4" height="44"/>
    </g>
    <g fill="yellow" text-rendering="geometricPrecision" shape-rendering="geometricPrecision" transform="matrix(0.4997,0,0,0.4997,-224.3719,-45.474)" stroke="yellow">
      <rect x="461.0855" y="1009.3058" clip-path="url(#clipPath2)" width="231.8291" rx="4" ry="4" height="37.3885" stroke="none"/>
    </g>
    <g font-size="16px" stroke-linecap="butt" transform="matrix(0.4997,0,0,0.4997,-224.3719,-45.474)" text-rendering="geometricPrecision" font-family="sans-serif" shape-rendering="geometricPrecision" stroke-miterlimit="1.45">
      <text x="461.1562" xml:space="preserve" y="1034.0469" clip-path="url(#clipPath2)" stroke="none">crm:E10_Transfer_of_Custody</text>
      <rect x="461.0855" y="1009.3058" clip-path="url(#clipPath2)" fill="none" width="231.8291" rx="4" ry="4" height="37.3885"/>
    </g>
    <g fill="yellow" text-rendering="geometricPrecision" shape-rendering="geometricPrecision" transform="matrix(0.4997,0,0,0.4997,-224.3719,-45.474)" stroke="yellow">
      <rect x="866.0159" y="1126" clip-path="url(#clipPath2)" width="122.6275" rx="4" ry="4" height="44" stroke="none"/>
    </g>
    <g font-size="16px" stroke-linecap="butt" transform="matrix(0.4997,0,0,0.4997,-224.3719,-45.474)" text-rendering="geometricPrecision" font-family="sans-serif" shape-rendering="geometricPrecision" stroke-miterlimit="1.45">
      <text x="870.4742" xml:space="preserve" y="1154.0469" clip-path="url(#clipPath2)" stroke="none">dcterms:Agent</text>
      <rect x="866.0159" y="1126" clip-path="url(#clipPath2)" fill="none" width="122.6275" rx="4" ry="4" height="44"/>
    </g>
    <g fill="yellow" text-rendering="geometricPrecision" shape-rendering="geometricPrecision" transform="matrix(0.4997,0,0,0.4997,-224.3719,-45.474)" stroke="yellow">
      <rect x="1076.0159" y="316" clip-path="url(#clipPath2)" width="133.6294" rx="4" ry="4" height="61.2204" stroke="none"/>
    </g>
    <g font-size="16px" stroke-linecap="butt" transform="matrix(0.4997,0,0,0.4997,-224.3719,-45.474)" text-rendering="geometricPrecision" font-family="sans-serif" shape-rendering="geometricPrecision" stroke-miterlimit="1.45">
      <text x="1089.8735" xml:space="preserve" y="352.6571" clip-path="url(#clipPath2)" stroke="none">crm:E35_Title</text>
      <rect x="1076.0159" y="316" clip-path="url(#clipPath2)" fill="none" width="133.6294" rx="4" ry="4" height="61.2204"/>
    </g>
    <g stroke-linecap="butt" transform="matrix(0.4997,0,0,0.4997,-224.3719,-45.474)" fill="navy" text-rendering="geometricPrecision" shape-rendering="geometricPrecision" stroke="navy" stroke-miterlimit="1.45">
      <path fill="none" d="M1169.7594 782.455 L1170.4368 782.9788 L1175.9156 786.423 L1181.6792 789.3151 L1187.6821 791.6396 L1193.8792 793.3817 L1200.2252 794.5262 L1206.6749 795.0581 L1213.183 794.9623 L1219.7043 794.2236 L1226.1937 792.8271 L1232.6057 790.7576 L1238.8953 788 L1244.875 784.6229 L1250.3779 780.735 L1255.3887 776.3814 L1259.8925 771.6075 L1263.874 766.4586 L1267.3184 760.9797 L1270.2103 755.2161 L1272.5349 749.2132 L1274.277 743.0161 L1275.4215 736.6701 L1275.9534 730.2204 L1275.8575 723.7122 L1275.1189 717.1909 L1273.7223 710.7016 L1271.6528 704.2896 L1268.8953 698 L1265.5182 692.0202 L1261.6302 686.5174 L1257.2767 681.5066 L1252.5028 677.0029 L1247.3538 673.0213 L1241.8749 669.577 L1236.1113 666.685 L1230.1085 664.3604 L1223.9114 662.6183 L1217.5653 661.4738 L1211.1156 660.9419 L1204.6075 661.0378 L1198.0862 661.7764 L1191.5968 663.173 L1185.1848 665.2424 L1178.8953 668 L1172.9155 671.3771 L1167.4127 675.2651 L1162.4019 679.6186 L1157.8981 684.3925 L1153.9165 689.5415 L1150.4722 695.0204 L1147.5802 700.7839 L1145.2556 706.7868 L1143.5135 712.9839 L1142.369 719.3299 L1141.9022 724.9907 L1141.9072 725.0905" clip-path="url(#clipPath2)"/>
      <path d="M1163.4308 777.5613 C1164.7821 775.8137 1167.2943 775.4924 1169.042 776.8438 C1170.7896 778.1951 1171.1107 780.7073 1169.7594 782.455 C1168.4081 784.2026 1165.8959 784.5238 1164.1482 783.1724 C1162.4006 781.8211 1162.0795 779.3089 1163.4308 777.5613 Z" clip-path="url(#clipPath2)" stroke="none"/>
      <path d="M1142.3553 736.0814 L1147.8615 723.8469 L1135.8715 724.3358 Z" clip-path="url(#clipPath2)" stroke="none"/>
      <rect x="1139.8641" y="701.0156" clip-path="url(#clipPath2)" fill="white" width="200.3125" height="22.8438" stroke="none"/>
      <text x="1141.864" font-size="16px" y="718.4844" clip-path="url(#clipPath2)" font-family="sans-serif" stroke="none" xml:space="preserve">crm:P46_is_composed_of</text>
      <path fill="none" d="M1148.7129 783.9835 L1147.2913 986.5129" clip-path="url(#clipPath2)"/>
      <path d="M1148.769 775.9838 C1150.9781 775.9993 1152.7563 777.8026 1152.7408 780.0117 C1152.7253 782.2208 1150.922 783.999 1148.7129 783.9835 C1146.5038 783.968 1144.7256 782.1647 1144.7411 779.9556 C1144.7566 777.7465 1146.5599 775.9683 1148.769 775.9838 Z" clip-path="url(#clipPath2)" stroke="none"/>
      <path d="M1147.214 997.5126 L1153.2981 985.5551 L1141.2985 985.4708 Z" clip-path="url(#clipPath2)" stroke="none"/>
      <rect x="980.9853" y="867.9062" clip-path="url(#clipPath2)" fill="white" width="333.9844" height="41.6875" stroke="none"/>
      <text x="982.9853" font-size="16px" y="885.375" clip-path="url(#clipPath2)" font-family="sans-serif" stroke="none" xml:space="preserve">crm:P_49_has_former_or_current_keeper /</text>
      <text x="1032.2275" font-size="16px" y="904.2188" clip-path="url(#clipPath2)" font-family="sans-serif" stroke="none" xml:space="preserve">crm:P_50_has_current_keeper</text>
      <path fill="none" d="M1086.9408 765.5115 L818.6222 798.0429" clip-path="url(#clipPath2)"/>
      <path d="M1094.8827 764.5486 C1095.1486 766.7416 1093.5863 768.735 1091.3932 769.001 C1089.2001 769.2668 1087.2067 767.7045 1086.9408 765.5115 C1086.6749 763.3184 1088.2372 761.325 1090.4303 761.0591 C1092.6234 760.7932 1094.6168 762.3555 1094.8827 764.5486 Z" clip-path="url(#clipPath2)" stroke="none"/>
      <path d="M807.7021 799.3668 L820.337 803.879 L818.8928 791.9662 Z" clip-path="url(#clipPath2)" stroke="none"/>
      <rect x="853.435" y="770.7757" clip-path="url(#clipPath2)" fill="white" width="191.7578" height="22.8438" stroke="none"/>
      <text x="855.435" font-size="16px" y="788.2444" clip-path="url(#clipPath2)" font-family="sans-serif" stroke="none" xml:space="preserve">crm:P43_has_dimension</text>
      <path fill="none" d="M1086.9324 748.8182 L771.3989 702.0618" clip-path="url(#clipPath2)"/>
      <path d="M1094.8459 749.9908 C1094.5221 752.1761 1092.4882 753.6851 1090.3029 753.3613 C1088.1176 753.0375 1086.6085 751.0035 1086.9324 748.8182 C1087.2562 746.6329 1089.2902 745.124 1091.4755 745.4478 C1093.6608 745.7715 1095.1698 747.8055 1094.8459 749.9908 Z" clip-path="url(#clipPath2)" stroke="none"/>
      <path d="M760.5178 700.4495 L771.5087 708.1436 L773.2676 696.2732 Z" clip-path="url(#clipPath2)" stroke="none"/>
      <rect x="844.4164" y="713.5043" clip-path="url(#clipPath2)" fill="white" width="162.5625" height="22.8438" stroke="none"/>
      <text x="846.4164" font-size="16px" y="730.973" clip-path="url(#clipPath2)" font-family="sans-serif" stroke="none" xml:space="preserve">crm:P45_consists_of</text>
      <path fill="none" d="M1196.4476 734.2238 L1566.7091 549.0931" clip-path="url(#clipPath2)"/>
      <path d="M1189.2921 737.8016 C1188.3042 735.8256 1189.1051 733.423 1191.0811 732.435 C1193.0569 731.447 1195.4596 732.2479 1196.4476 734.2238 C1197.4355 736.1998 1196.6346 738.6024 1194.6587 739.5904 C1192.6829 740.5784 1190.2802 739.7775 1189.2921 737.8016 Z" clip-path="url(#clipPath2)" stroke="none"/>
      <path d="M1576.5477 544.1738 L1563.1313 544.1738 L1568.4979 554.9069 Z" clip-path="url(#clipPath2)" stroke="none"/>
      <rect x="1213.6446" y="619.2425" clip-path="url(#clipPath2)" fill="white" width="342.1562" height="41.6875" stroke="none"/>
      <text x="1215.6447" font-size="16px" y="636.7113" clip-path="url(#clipPath2)" font-family="sans-serif" stroke="none" xml:space="preserve">crm:P55_has_current_permanent_location /</text>
      <text x="1268.4025" font-size="16px" y="655.5551" clip-path="url(#clipPath2)" font-family="sans-serif" stroke="none" xml:space="preserve">crm:P55_has_current_location</text>
      <path fill="none" d="M1148.7129 732.0165 L1147.261 525.188" clip-path="url(#clipPath2)"/>
      <path d="M1148.769 740.0162 C1146.5599 740.0317 1144.7566 738.2535 1144.7411 736.0444 C1144.7256 733.8353 1146.5038 732.032 1148.7129 732.0165 C1150.922 732.001 1152.7253 733.7792 1152.7408 735.9883 C1152.7563 738.1974 1150.9781 740.0007 1148.769 740.0162 Z" clip-path="url(#clipPath2)" stroke="none"/>
      <path d="M1147.1838 514.1882 L1141.2682 526.23 L1153.2678 526.1459 Z" clip-path="url(#clipPath2)" stroke="none"/>
      <rect x="1072.4662" y="613.6644" clip-path="url(#clipPath2)" fill="white" width="150.9922" height="22.8438" stroke="none"/>
      <text x="1074.4662" font-size="16px" y="631.1332" clip-path="url(#clipPath2)" font-family="sans-serif" stroke="none" xml:space="preserve">crm:P102_has_title</text>
      <path fill="none" d="M1104.3 734.1033 L793.119 567.3546" clip-path="url(#clipPath2)"/>
      <path d="M1111.3513 737.8818 C1110.308 739.829 1107.8835 740.5617 1105.9364 739.5182 C1103.9891 738.4748 1103.2566 736.0504 1104.3 734.1033 C1105.3434 732.1561 1107.7678 731.4234 1109.715 732.4669 C1111.6622 733.5103 1112.3948 735.9347 1111.3513 737.8818 Z" clip-path="url(#clipPath2)" stroke="none"/>
      <path d="M783.4233 562.1591 L791.1665 573.1155 L796.8344 562.5384 Z" clip-path="url(#clipPath2)" stroke="none"/>
      <rect x="847.3463" y="628.2442" clip-path="url(#clipPath2)" fill="white" width="196.6016" height="41.6875" stroke="none"/>
      <text x="876.4752" font-size="16px" y="645.713" clip-path="url(#clipPath2)" font-family="sans-serif" stroke="none" xml:space="preserve">crm:P2_has_type/</text>
      <text x="849.3463" font-size="16px" y="664.5567" clip-path="url(#clipPath2)" font-family="sans-serif" stroke="none" xml:space="preserve">frbroo:R7_is_example_of</text>
      <path fill="none" d="M1202.295 781.6146 L1410.2186 873.5632" clip-path="url(#clipPath2)"/>
      <path d="M1194.9784 778.3791 C1195.8718 776.3587 1198.234 775.4451 1200.2544 776.3386 C1202.2749 777.232 1203.1885 779.5941 1202.295 781.6146 C1201.4016 783.6349 1199.0394 784.5485 1197.019 783.6551 C1194.9985 782.7617 1194.085 780.3995 1194.9784 778.3791 Z" clip-path="url(#clipPath2)" stroke="none"/>
      <path d="M1420.2788 878.0121 L1411.7307 867.6714 L1406.8774 878.6462 Z" clip-path="url(#clipPath2)" stroke="none"/>
      <rect x="1193.842" y="816.8542" clip-path="url(#clipPath2)" fill="white" width="227.9375" height="22.8438" stroke="none"/>
      <text x="1195.8419" font-size="16px" y="834.323" clip-path="url(#clipPath2)" font-family="sans-serif" stroke="none" xml:space="preserve">crm:P108i_was_produced_by</text>
      <path fill="none" d="M1532.427 923.4101 L1869.8835 1049.9563" clip-path="url(#clipPath2)"/>
      <path d="M1524.9363 920.6011 C1525.712 918.5327 1528.0176 917.4846 1530.0861 918.2603 C1532.1545 919.0359 1533.2026 921.3416 1532.427 923.4101 C1531.6512 925.4786 1529.3457 926.5266 1527.2772 925.7509 C1525.2087 924.9753 1524.1606 922.6696 1524.9363 920.6011 Z" clip-path="url(#clipPath2)" stroke="none"/>
      <path d="M1880.1831 1053.8187 L1871.054 1043.9872 L1866.8405 1055.2231 Z" clip-path="url(#clipPath2)" stroke="none"/>
      <rect x="1613.7686" y="976.4919" clip-path="url(#clipPath2)" fill="white" width="181.3359" height="22.8438" stroke="none"/>
      <text x="1615.7687" font-size="16px" y="993.9606" clip-path="url(#clipPath2)" font-family="sans-serif" stroke="none" xml:space="preserve">crm:P4_has_time-span</text>
      <path fill="none" d="M1566.0453 900 L1898.5161 900" clip-path="url(#clipPath2)"/>
      <path d="M1558.0453 900 C1558.0453 897.7908 1559.8362 896 1562.0453 896 C1564.2544 896 1566.0453 897.7908 1566.0453 900 C1566.0453 902.2092 1564.2544 904 1562.0453 904 C1559.8362 904 1558.0453 902.2092 1558.0453 900 Z" clip-path="url(#clipPath2)" stroke="none"/>
      <path d="M1909.5161 900 L1897.5161 894 L1897.5161 906 Z" clip-path="url(#clipPath2)" stroke="none"/>
      <rect x="1604.2064" y="888.5781" clip-path="url(#clipPath2)" fill="white" width="263.125" height="22.8438" stroke="none"/>
      <text x="1606.2064" font-size="16px" y="906.0469" clip-path="url(#clipPath2)" font-family="sans-serif" stroke="none" xml:space="preserve">crm:P32_used_general_technique</text>
      <path fill="none" d="M612.1437 472.086 L720.1929 528.7107" clip-path="url(#clipPath2)"/>
      <path d="M605.0577 468.3725 C606.0832 466.4158 608.5007 465.6609 610.4575 466.6863 C612.4142 467.7117 613.1691 470.1293 612.1437 472.086 C611.1182 474.0427 608.7007 474.7976 606.744 473.7722 C604.7872 472.7468 604.0323 470.3292 605.0577 468.3725 Z" clip-path="url(#clipPath2)" stroke="none"/>
      <path d="M729.936 533.8167 L722.0922 522.9321 L716.522 533.5609 Z" clip-path="url(#clipPath2)" stroke="none"/>
      <rect x="545.6812" y="490.6087" clip-path="url(#clipPath2)" fill="white" width="247.2031" height="22.8438" stroke="none"/>
      <text x="547.6812" font-size="16px" y="508.0774" clip-path="url(#clipPath2)" font-family="sans-serif" stroke="none" xml:space="preserve">frbroo:R4_carriers_provided_by</text>
      <path fill="none" d="M1131.0421 732.7235 L958.2785 488.1259" clip-path="url(#clipPath2)"/>
      <path d="M1135.6573 739.2579 C1133.8529 740.5324 1131.3569 740.1028 1130.0825 738.2983 C1128.808 736.4939 1129.2377 733.998 1131.0421 732.7235 C1132.8466 731.449 1135.3425 731.8787 1136.6169 733.6831 C1137.8915 735.4875 1137.4618 737.9835 1135.6573 739.2579 Z" clip-path="url(#clipPath2)" stroke="none"/>
      <path d="M951.9324 479.1411 L953.9547 492.4043 L963.7562 485.4812 Z" clip-path="url(#clipPath2)" stroke="none"/>
      <rect x="979.277" y="596.1374" clip-path="url(#clipPath2)" fill="white" width="126.7188" height="22.8438" stroke="none"/>
      <text x="981.277" font-size="16px" y="613.6061" clip-path="url(#clipPath2)" font-family="sans-serif" stroke="none" xml:space="preserve">dcterms:creator</text>
      <path fill="none" d="M612.6118 334.0394 L613.2236 418.7456" clip-path="url(#clipPath2)"/>
      <path d="M612.5541 326.0396 C614.7632 326.0237 616.5669 327.8015 616.5828 330.0106 C616.5988 332.2197 614.8209 334.0234 612.6118 334.0394 C610.4027 334.0553 608.599 332.2774 608.5831 330.0684 C608.5671 327.8593 610.345 326.0555 612.5541 326.0396 Z" clip-path="url(#clipPath2)" stroke="none"/>
      <path d="M613.3031 429.7453 L619.2162 417.7023 L607.2166 417.789 Z" clip-path="url(#clipPath2)" stroke="none"/>
      <rect x="536.1539" y="368.4597" clip-path="url(#clipPath2)" fill="white" width="153.5781" height="22.8438" stroke="none"/>
      <text x="538.1539" font-size="16px" y="385.9284" clip-path="url(#clipPath2)" font-family="sans-serif" stroke="none" xml:space="preserve">frbroo:R17_created</text>
      <path fill="none" d="M736.3942 332.1211 L894.0404 431.0431" clip-path="url(#clipPath2)"/>
      <path d="M729.6178 327.869 C730.792 325.9977 733.2608 325.4326 735.1321 326.6068 C737.0033 327.781 737.5684 330.2498 736.3942 332.1211 C735.22 333.9923 732.7512 334.5574 730.8799 333.3832 C729.0087 332.209 728.4436 329.7402 729.6178 327.869 Z" clip-path="url(#clipPath2)" stroke="none"/>
      <path d="M903.3579 436.8898 L896.3824 425.4293 L890.0042 435.5939 Z" clip-path="url(#clipPath2)" stroke="none"/>
      <rect x="719.0509" y="371.8525" clip-path="url(#clipPath2)" fill="white" width="197.7266" height="22.8438" stroke="none"/>
      <text x="721.0509" font-size="16px" y="389.3213" clip-path="url(#clipPath2)" font-family="sans-serif" stroke="none" xml:space="preserve">crm:P_14_carried_out_by</text>
      <path fill="none" d="M1470 926.002 L1470 987.8979" clip-path="url(#clipPath2)"/>
      <path d="M1470 918.002 C1472.2091 918.002 1474 919.7928 1474 922.002 C1474 924.2111 1472.2091 926.002 1470 926.002 C1467.7909 926.002 1466 924.2111 1466 922.002 C1466 919.7928 1467.7909 918.002 1470 918.002 Z" clip-path="url(#clipPath2)" stroke="none"/>
      <path d="M1470 998.8979 L1476 986.8979 L1464 986.8979 Z" clip-path="url(#clipPath2)" stroke="none"/>
      <rect x="1299.1641" y="949.0189" clip-path="url(#clipPath2)" fill="white" width="341.6719" height="22.8438" stroke="none"/>
      <text x="1301.1641" font-size="16px" y="966.4877" clip-path="url(#clipPath2)" font-family="sans-serif" stroke="none" xml:space="preserve">crm:P186_produced_thing_of_product_type</text>
      <path fill="none" d="M1470 1045.1233 L1470 1116.759" clip-path="url(#clipPath2)"/>
      <path d="M1470 1037.1233 C1472.2091 1037.1233 1474 1038.9142 1474 1041.1233 C1474 1043.3324 1472.2091 1045.1233 1470 1045.1233 C1467.7909 1045.1233 1466 1043.3324 1466 1041.1233 C1466 1038.9142 1467.7909 1037.1233 1470 1037.1233 Z" clip-path="url(#clipPath2)" stroke="none"/>
      <path d="M1470 1127.759 L1476 1115.759 L1464 1115.759 Z" clip-path="url(#clipPath2)" stroke="none"/>
      <rect x="1346.3359" y="1073.0189" clip-path="url(#clipPath2)" fill="white" width="247.3281" height="22.8438" stroke="none"/>
      <text x="1348.3359" font-size="16px" y="1090.4877" clip-path="url(#clipPath2)" font-family="sans-serif" stroke="none" xml:space="preserve">crm:P187_has_production_plan</text>
      <path fill="none" d="M1472.0695 362.8082 L1594.6274 484.0892" clip-path="url(#clipPath2)"/>
      <path d="M1466.3829 357.1811 C1467.9369 355.6108 1470.4695 355.5975 1472.0398 357.1514 C1473.61 358.7053 1473.6233 361.2379 1472.0695 362.8082 C1470.5155 364.3785 1467.9829 364.3918 1466.4126 362.8379 C1464.8424 361.284 1464.8291 358.7514 1466.3829 357.1811 Z" clip-path="url(#clipPath2)" stroke="none"/>
      <path d="M1602.4462 491.8265 L1598.137 479.121 L1589.6962 487.6505 Z" clip-path="url(#clipPath2)" stroke="none"/>
      <rect x="1449.316" y="405.07" clip-path="url(#clipPath2)" fill="white" width="173.0469" height="41.6875" stroke="none"/>
      <text x="1457.812" font-size="16px" y="422.5387" clip-path="url(#clipPath2)" font-family="sans-serif" stroke="none" xml:space="preserve">crm:P26_moved_to/</text>
      <text x="1451.3159" font-size="16px" y="441.3825" clip-path="url(#clipPath2)" font-family="sans-serif" stroke="none" xml:space="preserve">crm:P27_moved_from</text>
      <path fill="none" d="M1429.0554 363.2821 L1170.8651 727.0467" clip-path="url(#clipPath2)"/>
      <path d="M1433.6858 356.7584 C1435.4873 358.037 1435.9111 360.534 1434.6324 362.3354 C1433.3539 364.1369 1430.8569 364.5608 1429.0554 363.2821 C1427.2539 362.0035 1426.8301 359.5066 1428.1088 357.7051 C1429.3873 355.9036 1431.8843 355.4797 1433.6858 356.7584 Z" clip-path="url(#clipPath2)" stroke="none"/>
      <path d="M1164.4983 736.0168 L1176.3367 729.704 L1166.5511 722.7584 Z" clip-path="url(#clipPath2)" stroke="none"/>
      <rect x="1234.0219" y="536.5781" clip-path="url(#clipPath2)" fill="white" width="127.8516" height="22.8438" stroke="none"/>
      <text x="1236.0219" font-size="16px" y="554.0469" clip-path="url(#clipPath2)" font-family="sans-serif" stroke="none" xml:space="preserve">crm:P25_moved</text>
      <path fill="none" d="M620.2351 1007.5881 L1092.3284 784.7061" clip-path="url(#clipPath2)"/>
      <path d="M613.0009 1011.0035 C612.0577 1009.0058 612.9126 1006.6218 614.9103 1005.6786 C616.908 1004.7355 619.292 1005.5904 620.2351 1007.5881 C621.1783 1009.5858 620.3234 1011.9698 618.3257 1012.9129 C616.328 1013.8561 613.944 1013.0012 613.0009 1011.0035 Z" clip-path="url(#clipPath2)" stroke="none"/>
      <path d="M1102.2755 780.0098 L1088.8625 779.7073 L1093.9857 790.5587 Z" clip-path="url(#clipPath2)" stroke="none"/>
      <rect x="732.2552" y="883.231" clip-path="url(#clipPath2)" fill="white" width="254.3828" height="22.8438" stroke="none"/>
      <text x="734.2552" font-size="16px" y="900.6998" clip-path="url(#clipPath2)" font-family="sans-serif" stroke="none" xml:space="preserve">crm:P30_transferred_custody_of</text>
      <path fill="none" d="M696.8856 1028 L1028.2643 1028" clip-path="url(#clipPath2)"/>
      <path d="M688.8856 1028 C688.8856 1025.7909 690.6765 1024 692.8856 1024 C695.0948 1024 696.8856 1025.7909 696.8856 1028 C696.8856 1030.2091 695.0948 1032 692.8856 1032 C690.6765 1032 688.8856 1030.2091 688.8856 1028 Z" clip-path="url(#clipPath2)" stroke="none"/>
      <path d="M1039.2643 1028 L1027.2643 1022 L1027.2643 1034 Z" clip-path="url(#clipPath2)" stroke="none"/>
      <rect x="736.9637" y="1007.1562" clip-path="url(#clipPath2)" fill="white" width="258.2422" height="41.6875" stroke="none"/>
      <text x="738.9637" font-size="16px" y="1024.625" clip-path="url(#clipPath2)" font-family="sans-serif" stroke="none" xml:space="preserve">crm:P28_custody_surrended_by/</text>
      <text x="750.4677" font-size="16px" y="1043.4688" clip-path="url(#clipPath2)" font-family="sans-serif" stroke="none" xml:space="preserve">crm:P29_custody_received_by</text>
      <path fill="none" d="M1134.4104 783.4963 L945.2551 1116.4475" clip-path="url(#clipPath2)"/>
      <path d="M1138.3621 776.5405 C1140.2828 777.6317 1140.9554 780.0735 1139.8641 781.9943 C1138.7729 783.9151 1136.3312 784.5876 1134.4104 783.4963 C1132.4896 782.4052 1131.817 779.9634 1132.9083 778.0426 C1133.9995 776.1218 1136.4413 775.4493 1138.3621 776.5405 Z" clip-path="url(#clipPath2)" stroke="none"/>
      <path d="M939.8215 1126.0118 L950.9659 1118.5419 L940.5322 1112.6143 Z" clip-path="url(#clipPath2)" stroke="none"/>
      <rect x="974.7531" y="941.5781" clip-path="url(#clipPath2)" fill="white" width="126.7188" height="22.8438" stroke="none"/>
      <text x="976.7531" font-size="16px" y="959.0469" clip-path="url(#clipPath2)" font-family="sans-serif" stroke="none" xml:space="preserve">dcterms:creator</text>
      <path fill="none" d="M1146.1095 457.8018 L1144.058 388.2308" clip-path="url(#clipPath2)"/>
      <path d="M1146.3453 465.7983 C1144.1372 465.8635 1142.2943 464.1262 1142.2291 461.918 C1142.1641 459.7098 1143.9014 457.8669 1146.1095 457.8018 C1148.3176 457.7367 1150.1605 459.474 1150.2257 461.6822 C1150.2908 463.8904 1148.5535 465.7332 1146.3453 465.7983 Z" clip-path="url(#clipPath2)" stroke="none"/>
      <path d="M1143.7336 377.2356 L1138.0901 389.4073 L1150.0848 389.0535 Z" clip-path="url(#clipPath2)" stroke="none"/>
      <rect x="1090.5784" y="408.102" clip-path="url(#clipPath2)" fill="white" width="108.8047" height="22.8438" stroke="none"/>
      <text x="1092.5784" font-size="16px" y="425.5708" clip-path="url(#clipPath2)" font-family="sans-serif" stroke="none" xml:space="preserve">dc:alternative</text>
    </g>
    <g fill="rgb(210,210,210)" text-rendering="geometricPrecision" shape-rendering="geometricPrecision" transform="matrix(0.4997,0,0,0.4997,-224.3719,-45.474) translate(4,4)" stroke="rgb(210,210,210)">
      <rect x="1597.6172" width="589.8477" height="123.3855" y="653.0684" clip-path="url(#clipPath3)" stroke="none"/>
    </g>
    <g fill="white" text-rendering="geometricPrecision" shape-rendering="geometricPrecision" transform="matrix(0.4997,0,0,0.4997,-224.3719,-45.474)" stroke="white">
      <rect x="1597.6172" width="589.8477" height="123.3855" y="653.0684" clip-path="url(#clipPath2)" stroke="none"/>
      <rect x="1597.6172" y="653.0684" clip-path="url(#clipPath2)" fill="rgb(183,182,158)" width="589.8477" height="21.666" stroke="none"/>
    </g>
    <g font-size="15px" stroke-linecap="butt" transform="matrix(0.4997,0,0,0.4997,-224.3719,-45.474)" text-rendering="geometricPrecision" font-family="sans-serif" shape-rendering="geometricPrecision" font-weight="bold" stroke-miterlimit="1.45">
      <text x="2108.5972" xml:space="preserve" y="669.5703" clip-path="url(#clipPath2)" stroke="none">Prefixes   </text>
      <rect fill="none" x="1597.6172" width="589.8477" height="123.3855" y="653.0684" clip-path="url(#clipPath2)"/>
      <text x="1614.6172" xml:space="preserve" font-size="16px" y="707.2031" clip-path="url(#clipPath2)" stroke="none">crm:</text>
      <text x="1614.6172" xml:space="preserve" font-size="16px" y="726.0469" clip-path="url(#clipPath2)" stroke="none">frbroo:</text>
      <text x="1614.6172" xml:space="preserve" font-size="16px" y="744.8906" clip-path="url(#clipPath2)" stroke="none">dcterms:</text>
      <text x="1669.5352" font-size="16px" y="707.2031" clip-path="url(#clipPath2)" stroke="none" font-weight="normal" xml:space="preserve">http://www.cidoc-crm.org/Version/version-7.0.1/</text>
      <text x="1669.5352" font-size="16px" y="726.0469" clip-path="url(#clipPath2)" stroke="none" font-weight="normal" xml:space="preserve">http://www.cidoc-crm.org/frbroo/ModelVersion/frbroo-v.-3.0/</text>
      <text x="1669.5352" font-size="16px" y="744.8906" clip-path="url(#clipPath2)" stroke="none" font-weight="normal" xml:space="preserve">http://purl.org/dc/terms/</text>
    </g>
  </g>
</svg>
