<?xml version="1.0" encoding="UTF-8"?><svg xmlns="http://www.w3.org/2000/svg" xmlns:xlink="http://www.w3.org/1999/xlink" fill-opacity="1" color-rendering="auto" color-interpolation="auto" text-rendering="auto" stroke="black" stroke-linecap="square" width="876" stroke-miterlimit="10" shape-rendering="auto" stroke-opacity="1" fill="black" stroke-dasharray="none" font-weight="normal" stroke-width="1" height="636" font-family="'Dialog'" font-style="normal" stroke-linejoin="miter" font-size="12px" stroke-dashoffset="0" image-rendering="auto">
  <!--Generated by ySVG 2.5-->
  <defs id="genericDefs"/>
  <g>
    <defs id="defs1">
      <clipPath clipPathUnits="userSpaceOnUse" id="clipPath1">
        <path d="M0 0 L876 0 L876 636 L0 636 L0 0 Z"/>
      </clipPath>
      <clipPath clipPathUnits="userSpaceOnUse" id="clipPath2">
        <path d="M-291 -198 L1597.3585 -198 L1597.3585 1173 L-291 1173 L-291 -198 Z"/>
      </clipPath>
      <clipPath clipPathUnits="userSpaceOnUse" id="clipPath3">
        <path d="M-295 -202 L1593.3585 -202 L1593.3585 1169 L-295 1169 L-295 -202 Z"/>
      </clipPath>
    </defs>
    <g fill="white" text-rendering="geometricPrecision" shape-rendering="geometricPrecision" transform="scale(0.4639,0.4639) translate(291,198)" stroke="white">
      <rect x="-291" width="1889" height="1372" y="-198" clip-path="url(#clipPath2)" stroke="none"/>
    </g>
    <g fill="yellow" text-rendering="geometricPrecision" shape-rendering="geometricPrecision" transform="matrix(0.4639,0,0,0.4639,134.9934,91.8512)" stroke="yellow">
      <rect x="478.2659" y="494.7969" clip-path="url(#clipPath2)" width="306.4682" rx="4" ry="4" height="51.5" stroke="none"/>
    </g>
    <g font-size="16px" stroke-linecap="butt" transform="matrix(0.4639,0,0,0.4639,134.9934,91.8512)" text-rendering="geometricPrecision" font-family="sans-serif" shape-rendering="geometricPrecision" stroke-miterlimit="1.45">
      <text x="572.3125" xml:space="preserve" y="517.1719" clip-path="url(#clipPath2)" stroke="none">fabio:Magazine</text>
      <text x="492.1953" xml:space="preserve" y="536.0156" clip-path="url(#clipPath2)" stroke="none">frobroo:F24_Publication_Expression</text>
      <rect x="478.2659" y="494.7969" clip-path="url(#clipPath2)" fill="none" width="306.4682" rx="4" ry="4" height="51.5"/>
    </g>
    <g fill="yellow" text-rendering="geometricPrecision" shape-rendering="geometricPrecision" transform="matrix(0.4639,0,0,0.4639,134.9934,91.8512)" stroke="yellow">
      <rect x="460.9534" y="54.7578" clip-path="url(#clipPath2)" width="341.0932" rx="4" ry="4" height="58" stroke="none"/>
    </g>
    <g font-size="16px" stroke-linecap="butt" transform="matrix(0.4639,0,0,0.4639,134.9934,91.8512)" text-rendering="geometricPrecision" font-family="sans-serif" shape-rendering="geometricPrecision" stroke-miterlimit="1.45">
      <text x="547.3477" xml:space="preserve" y="80.3828" clip-path="url(#clipPath2)" stroke="none">fabio:MagazineArticle</text>
      <text x="544" xml:space="preserve" y="99.2266" clip-path="url(#clipPath2)" stroke="none">frobroo:F2_Expression</text>
      <rect x="460.9534" y="54.7578" clip-path="url(#clipPath2)" fill="none" width="341.0932" rx="4" ry="4" height="58"/>
    </g>
    <g fill="yellow" text-rendering="geometricPrecision" shape-rendering="geometricPrecision" transform="matrix(0.4639,0,0,0.4639,134.9934,91.8512)" stroke="yellow">
      <rect x="475.7659" y="281" clip-path="url(#clipPath2)" width="311.4682" rx="4" ry="4" height="58" stroke="none"/>
    </g>
    <g font-size="16px" stroke-linecap="butt" transform="matrix(0.4639,0,0,0.4639,134.9934,91.8512)" text-rendering="geometricPrecision" font-family="sans-serif" shape-rendering="geometricPrecision" stroke-miterlimit="1.45">
      <text x="552.4297" xml:space="preserve" y="306.625" clip-path="url(#clipPath2)" stroke="none">fabio:MagazineIssue</text>
      <text x="492.1953" xml:space="preserve" y="325.4688" clip-path="url(#clipPath2)" stroke="none">frobroo:F24_Publication_Expression</text>
      <rect x="475.7659" y="281" clip-path="url(#clipPath2)" fill="none" width="311.4682" rx="4" ry="4" height="58"/>
      <text x="474.7319" xml:space="preserve" font-size="12px" y="488.2109" clip-path="url(#clipPath2)" stroke="none">expression collection</text>
      <text x="474.1644" xml:space="preserve" font-size="12px" y="274.4141" clip-path="url(#clipPath2)" stroke="none">expression</text>
    </g>
    <g fill="yellow" text-rendering="geometricPrecision" shape-rendering="geometricPrecision" transform="matrix(0.4639,0,0,0.4639,134.9934,91.8512)" stroke="yellow">
      <rect x="380.468" y="1045.0325" clip-path="url(#clipPath2)" width="235.4057" rx="4" ry="4" height="71.0312" stroke="none"/>
    </g>
    <g font-size="16px" stroke-linecap="butt" transform="matrix(0.4639,0,0,0.4639,134.9934,91.8512)" text-rendering="geometricPrecision" font-family="sans-serif" shape-rendering="geometricPrecision" stroke-miterlimit="1.45">
      <text x="399.4638" xml:space="preserve" y="1086.595" clip-path="url(#clipPath2)" stroke="none">dcterms:LinguisticSystem</text>
      <rect x="380.468" y="1045.0325" clip-path="url(#clipPath2)" fill="none" width="235.4057" rx="4" ry="4" height="71.0312"/>
    </g>
    <g fill="yellow" text-rendering="geometricPrecision" shape-rendering="geometricPrecision" transform="matrix(0.4639,0,0,0.4639,134.9934,91.8512)" stroke="yellow">
      <rect x="1139.9388" y="612.8594" clip-path="url(#clipPath2)" width="192.8125" rx="4" ry="4" height="51.5" stroke="none"/>
    </g>
    <g font-size="16px" stroke-linecap="butt" transform="matrix(0.4639,0,0,0.4639,134.9934,91.8512)" text-rendering="geometricPrecision" font-family="sans-serif" shape-rendering="geometricPrecision" stroke-miterlimit="1.45">
      <text x="1149.5443" xml:space="preserve" y="644.6562" clip-path="url(#clipPath2)" stroke="none">dcterms:PeriodOfTime</text>
      <rect x="1139.9388" y="612.8594" clip-path="url(#clipPath2)" fill="none" width="192.8125" rx="4" ry="4" height="51.5"/>
    </g>
    <g fill="yellow" text-rendering="geometricPrecision" shape-rendering="geometricPrecision" transform="matrix(0.4639,0,0,0.4639,134.9934,91.8512)" stroke="yellow">
      <rect x="1351.0719" y="509.4062" clip-path="url(#clipPath2)" width="192.8125" rx="4" ry="4" height="52.9062" stroke="none"/>
    </g>
    <g font-size="16px" stroke-linecap="butt" transform="matrix(0.4639,0,0,0.4639,134.9934,91.8512)" text-rendering="geometricPrecision" font-family="sans-serif" shape-rendering="geometricPrecision" stroke-miterlimit="1.45">
      <text x="1395.7555" xml:space="preserve" y="541.9062" clip-path="url(#clipPath2)" stroke="none">schema:Place</text>
      <rect x="1351.0719" y="509.4062" clip-path="url(#clipPath2)" fill="none" width="192.8125" rx="4" ry="4" height="52.9062"/>
    </g>
    <g fill="yellow" text-rendering="geometricPrecision" shape-rendering="geometricPrecision" transform="matrix(0.4639,0,0,0.4639,134.9934,91.8512)" stroke="yellow">
      <rect x="962.0633" y="929.3528" clip-path="url(#clipPath2)" width="235.4057" rx="4" ry="4" height="71.0312" stroke="none"/>
    </g>
    <g font-size="16px" stroke-linecap="butt" transform="matrix(0.4639,0,0,0.4639,134.9934,91.8512)" text-rendering="geometricPrecision" font-family="sans-serif" shape-rendering="geometricPrecision" stroke-miterlimit="1.45">
      <text x="1003.9888" xml:space="preserve" y="970.9153" clip-path="url(#clipPath2)" stroke="none">dcterms:MediaType</text>
      <rect x="962.0633" y="929.3528" clip-path="url(#clipPath2)" fill="none" width="235.4057" rx="4" ry="4" height="71.0312"/>
    </g>
    <g fill="yellow" text-rendering="geometricPrecision" shape-rendering="geometricPrecision" transform="matrix(0.4639,0,0,0.4639,134.9934,91.8512)" stroke="yellow">
      <rect x="301.6331" y="-106.6992" clip-path="url(#clipPath2)" width="161.9682" rx="4" ry="4" height="44" stroke="none"/>
    </g>
    <g font-size="16px" stroke-linecap="butt" transform="matrix(0.4639,0,0,0.4639,134.9934,91.8512)" text-rendering="geometricPrecision" font-family="sans-serif" shape-rendering="geometricPrecision" stroke-miterlimit="1.45">
      <text x="324.4922" xml:space="preserve" y="-78.6523" clip-path="url(#clipPath2)" stroke="none">schema:Person</text>
      <rect x="301.6331" y="-106.6992" clip-path="url(#clipPath2)" fill="none" width="161.9682" rx="4" ry="4" height="44"/>
    </g>
    <g fill="yellow" text-rendering="geometricPrecision" shape-rendering="geometricPrecision" transform="matrix(0.4639,0,0,0.4639,134.9934,91.8512)" stroke="yellow">
      <rect x="555.3596" y="-187.9492" clip-path="url(#clipPath2)" width="152.2807" rx="4" ry="4" height="44" stroke="none"/>
    </g>
    <g font-size="16px" stroke-linecap="butt" transform="matrix(0.4639,0,0,0.4639,134.9934,91.8512)" text-rendering="geometricPrecision" font-family="sans-serif" shape-rendering="geometricPrecision" stroke-miterlimit="1.45">
      <text x="579.8438" xml:space="preserve" y="-159.9023" clip-path="url(#clipPath2)" stroke="none">crm:E5_Event</text>
      <rect x="555.3596" y="-187.9492" clip-path="url(#clipPath2)" fill="none" width="152.2807" rx="4" ry="4" height="44"/>
    </g>
    <g fill="yellow" text-rendering="geometricPrecision" shape-rendering="geometricPrecision" transform="matrix(0.4639,0,0,0.4639,134.9934,91.8512)" stroke="yellow">
      <rect x="115.0622" y="929.3528" clip-path="url(#clipPath2)" width="235.4057" rx="4" ry="4" height="71.0312" stroke="none"/>
    </g>
    <g font-size="16px" stroke-linecap="butt" transform="matrix(0.4639,0,0,0.4639,134.9934,91.8512)" text-rendering="geometricPrecision" font-family="sans-serif" shape-rendering="geometricPrecision" stroke-miterlimit="1.45">
      <text x="179.8081" xml:space="preserve" y="970.9153" clip-path="url(#clipPath2)" stroke="none">crm:E35_Title</text>
      <rect x="115.0622" y="929.3528" clip-path="url(#clipPath2)" fill="none" width="235.4057" rx="4" ry="4" height="71.0312"/>
    </g>
    <g fill="yellow" text-rendering="geometricPrecision" shape-rendering="geometricPrecision" transform="matrix(0.4639,0,0,0.4639,134.9934,91.8512)" stroke="yellow">
      <rect x="1113.5003" y="281" clip-path="url(#clipPath2)" width="245.6896" rx="4" ry="4" height="58" stroke="none"/>
    </g>
    <g font-size="16px" stroke-linecap="butt" transform="matrix(0.4639,0,0,0.4639,134.9934,91.8512)" text-rendering="geometricPrecision" font-family="sans-serif" shape-rendering="geometricPrecision" stroke-miterlimit="1.45">
      <text x="1118.5052" xml:space="preserve" y="316.0469" clip-path="url(#clipPath2)" stroke="none">frobroo:F30_Publication_Event</text>
      <rect x="1113.5003" y="281" clip-path="url(#clipPath2)" fill="none" width="245.6896" rx="4" ry="4" height="58"/>
    </g>
    <g fill="yellow" text-rendering="geometricPrecision" shape-rendering="geometricPrecision" transform="matrix(0.4639,0,0,0.4639,134.9934,91.8512)" stroke="yellow">
      <rect x="938.9774" y="510.1094" clip-path="url(#clipPath2)" width="192.8125" rx="4" ry="4" height="51.5" stroke="none"/>
    </g>
    <g font-size="16px" stroke-linecap="butt" transform="matrix(0.4639,0,0,0.4639,134.9934,91.8512)" text-rendering="geometricPrecision" font-family="sans-serif" shape-rendering="geometricPrecision" stroke-miterlimit="1.45">
      <text x="953.0086" xml:space="preserve" y="541.9062" clip-path="url(#clipPath2)" stroke="none">schema:Organization</text>
      <rect x="938.9774" y="510.1094" clip-path="url(#clipPath2)" fill="none" width="192.8125" rx="4" ry="4" height="51.5"/>
    </g>
    <g fill="yellow" text-rendering="geometricPrecision" shape-rendering="geometricPrecision" transform="matrix(0.4639,0,0,0.4639,134.9934,91.8512)" stroke="yellow">
      <rect x="-12.8591" y="803.7656" clip-path="url(#clipPath2)" width="235.4057" rx="4" ry="4" height="71.0312" stroke="none"/>
    </g>
    <g font-size="16px" stroke-linecap="butt" transform="matrix(0.4639,0,0,0.4639,134.9934,91.8512)" text-rendering="geometricPrecision" font-family="sans-serif" shape-rendering="geometricPrecision" stroke-miterlimit="1.45">
      <text x="54.6602" xml:space="preserve" y="835.9062" clip-path="url(#clipPath2)" stroke="none">rdac:C10011</text>
      <text x="38.4219" xml:space="preserve" y="854.75" clip-path="url(#clipPath2)" stroke="none">"collective agent"</text>
      <rect x="-12.8591" y="803.7656" clip-path="url(#clipPath2)" fill="none" width="235.4057" rx="4" ry="4" height="71.0312"/>
    </g>
    <g fill="yellow" text-rendering="geometricPrecision" shape-rendering="geometricPrecision" transform="matrix(0.4639,0,0,0.4639,134.9934,91.8512)" stroke="yellow">
      <rect x="151.781" y="1109.4856" clip-path="url(#clipPath2)" width="161.9682" rx="4" ry="4" height="52.9062" stroke="none"/>
    </g>
    <g font-size="16px" stroke-linecap="butt" transform="matrix(0.4639,0,0,0.4639,134.9934,91.8512)" text-rendering="geometricPrecision" font-family="sans-serif" shape-rendering="geometricPrecision" stroke-miterlimit="1.45">
      <text x="179.8081" xml:space="preserve" y="1141.9856" clip-path="url(#clipPath2)" stroke="none">crm:E35_Title</text>
      <rect x="151.781" y="1109.4856" clip-path="url(#clipPath2)" fill="none" width="161.9682" rx="4" ry="4" height="52.9062"/>
    </g>
    <g fill="yellow" text-rendering="geometricPrecision" shape-rendering="geometricPrecision" transform="matrix(0.4639,0,0,0.4639,134.9934,91.8512)" stroke="yellow">
      <rect x="1093.6565" y="803.7656" clip-path="url(#clipPath2)" width="235.4057" rx="4" ry="4" height="71.0312" stroke="none"/>
    </g>
    <g font-size="16px" stroke-linecap="butt" transform="matrix(0.4639,0,0,0.4639,134.9934,91.8512)" text-rendering="geometricPrecision" font-family="sans-serif" shape-rendering="geometricPrecision" stroke-miterlimit="1.45">
      <text x="1159.8477" xml:space="preserve" y="845.3281" clip-path="url(#clipPath2)" stroke="none">freq:irregular</text>
      <rect x="1093.6565" y="803.7656" clip-path="url(#clipPath2)" fill="none" width="235.4057" rx="4" ry="4" height="71.0312"/>
    </g>
    <g fill="yellow" text-rendering="geometricPrecision" shape-rendering="geometricPrecision" transform="matrix(0.4639,0,0,0.4639,134.9934,91.8512)" stroke="yellow">
      <rect x="782.3909" y="-106.6992" clip-path="url(#clipPath2)" width="141.9682" rx="4" ry="4" height="44" stroke="none"/>
    </g>
    <g font-size="16px" stroke-linecap="butt" transform="matrix(0.4639,0,0,0.4639,134.9934,91.8512)" text-rendering="geometricPrecision" font-family="sans-serif" shape-rendering="geometricPrecision" stroke-miterlimit="1.45">
      <text x="786.6641" xml:space="preserve" y="-78.6523" clip-path="url(#clipPath2)" stroke="none">dcterms:W3CDTF</text>
      <rect x="782.3909" y="-106.6992" clip-path="url(#clipPath2)" fill="none" width="141.9682" rx="4" ry="4" height="44"/>
    </g>
    <g fill="yellow" text-rendering="geometricPrecision" shape-rendering="geometricPrecision" transform="matrix(0.4639,0,0,0.4639,134.9934,91.8512)" stroke="yellow">
      <rect x="712.0091" y="1045.0325" clip-path="url(#clipPath2)" width="235.4057" rx="4" ry="4" height="71.0312" stroke="none"/>
    </g>
    <g font-size="16px" stroke-linecap="butt" transform="matrix(0.4639,0,0,0.4639,134.9934,91.8512)" text-rendering="geometricPrecision" font-family="sans-serif" shape-rendering="geometricPrecision" stroke-miterlimit="1.45">
      <text x="763.001" xml:space="preserve" y="1067.7512" clip-path="url(#clipPath2)" stroke="none">dcterms:W3CDTF</text>
      <text x="736.1221" xml:space="preserve" y="1086.595" clip-path="url(#clipPath2)" stroke="none">"Date and Time Formats</text>
      <text x="775.0284" xml:space="preserve" y="1105.4387" clip-path="url(#clipPath2)" stroke="none"> Specification"</text>
      <rect x="712.0091" y="1045.0325" clip-path="url(#clipPath2)" fill="none" width="235.4057" rx="4" ry="4" height="71.0312"/>
    </g>
    <g stroke-linecap="butt" transform="matrix(0.4639,0,0,0.4639,134.9934,91.8512)" fill="navy" text-rendering="geometricPrecision" shape-rendering="geometricPrecision" stroke="navy" stroke-miterlimit="1.45">
      <path fill="none" d="M631.5 116.7838 L631.5 269.9665" clip-path="url(#clipPath2)"/>
      <path d="M631.5 108.7838 C633.7092 108.7838 635.5 110.5746 635.5 112.7838 C635.5 114.9929 633.7092 116.7838 631.5 116.7838 C629.2908 116.7838 627.5 114.9929 627.5 112.7838 C627.5 110.5746 629.2908 108.7838 631.5 108.7838 Z" clip-path="url(#clipPath2)" stroke="none"/>
      <path d="M631.5 280.9665 L637.5 268.9665 L625.5 268.9665 Z" clip-path="url(#clipPath2)" stroke="none"/>
      <rect x="587.5703" y="185.457" clip-path="url(#clipPath2)" fill="white" width="87.8594" height="22.8438" stroke="none"/>
      <text x="589.5703" font-size="16px" y="202.9258" clip-path="url(#clipPath2)" font-family="sans-serif" stroke="none" xml:space="preserve">frbr:partOf</text>
      <path fill="none" d="M631.5 343.017 L631.5 483.7976" clip-path="url(#clipPath2)"/>
      <path d="M631.5 335.017 C633.7092 335.017 635.5 336.8079 635.5 339.017 C635.5 341.2262 633.7092 343.017 631.5 343.017 C629.2908 343.017 627.5 341.2262 627.5 339.017 C627.5 336.8079 629.2908 335.017 631.5 335.017 Z" clip-path="url(#clipPath2)" stroke="none"/>
      <path d="M631.5 494.7976 L637.5 482.7976 L625.5 482.7976 Z" clip-path="url(#clipPath2)" stroke="none"/>
      <rect x="587.5703" y="405.4766" clip-path="url(#clipPath2)" fill="white" width="87.8594" height="22.8438" stroke="none"/>
      <text x="589.5703" font-size="16px" y="422.9453" clip-path="url(#clipPath2)" font-family="sans-serif" stroke="none" xml:space="preserve">frbr:partOf</text>
      <path fill="none" d="M624.4458 550.1755 L509.1733 1034.3362" clip-path="url(#clipPath2)"/>
      <path d="M626.2987 542.393 C628.4478 542.9047 629.7751 545.0616 629.2635 547.2107 C628.7518 549.3597 626.5948 550.6871 624.4458 550.1755 C622.2968 549.6638 620.9694 547.5068 621.481 545.3578 C621.9927 543.2087 624.1497 541.8813 626.2987 542.393 Z" clip-path="url(#clipPath2)" stroke="none"/>
      <path d="M506.6255 1045.0371 L515.2418 1034.7532 L503.5681 1031.9738 Z" clip-path="url(#clipPath2)" stroke="none"/>
      <rect x="494.5526" y="784.2428" clip-path="url(#clipPath2)" fill="white" width="142.8906" height="22.8438" stroke="none"/>
      <text x="496.5526" font-size="16px" y="801.7115" clip-path="url(#clipPath2)" font-family="sans-serif" stroke="none" xml:space="preserve">dcterms:language</text>
      <path fill="none" d="M660.3055 549.0989 L1036.1003 921.5868" clip-path="url(#clipPath2)"/>
      <path d="M654.6238 543.4671 C656.179 541.8981 658.7116 541.887 660.2806 543.4421 C661.8495 544.9973 661.8607 547.53 660.3055 549.0989 C658.7504 550.6679 656.2177 550.6791 654.6487 549.1239 C653.0798 547.5687 653.0686 545.0361 654.6238 543.4671 Z" clip-path="url(#clipPath2)" stroke="none"/>
      <path d="M1043.9128 929.3305 L1039.614 916.6215 L1031.1663 925.1442 Z" clip-path="url(#clipPath2)" stroke="none"/>
      <rect x="783.0663" y="726.4029" clip-path="url(#clipPath2)" fill="white" width="135.2812" height="22.8438" stroke="none"/>
      <text x="785.0663" font-size="16px" y="743.8717" clip-path="url(#clipPath2)" font-family="sans-serif" stroke="none" xml:space="preserve">dcterms:medium</text>
      <path fill="none" d="M585.3196 52.5005 L424.2434 -56.5244" clip-path="url(#clipPath2)"/>
      <path d="M591.9447 56.9847 C590.7064 58.8141 588.2195 59.2934 586.39 58.0551 C584.5605 56.8168 584.0813 54.3299 585.3196 52.5005 C586.5579 50.671 589.0448 50.1917 590.8743 51.43 C592.7037 52.6683 593.183 55.1552 591.9447 56.9847 Z" clip-path="url(#clipPath2)" stroke="none"/>
      <path d="M415.1339 -62.6902 L421.7084 -50.995 L428.4347 -60.9327 Z" clip-path="url(#clipPath2)" stroke="none"/>
      <rect x="440.4462" y="-15.3926" clip-path="url(#clipPath2)" fill="white" width="122.8828" height="22.8438" stroke="none"/>
      <text x="442.4462" font-size="16px" y="2.0762" clip-path="url(#clipPath2)" font-family="sans-serif" stroke="none" xml:space="preserve">schema:creator</text>
      <path fill="none" d="M631.5 -139.9718 L631.5 43.7634" clip-path="url(#clipPath2)"/>
      <path d="M631.5 -147.9718 C633.7092 -147.9718 635.5 -146.181 635.5 -143.9718 C635.5 -141.7627 633.7092 -139.9718 631.5 -139.9718 C629.2908 -139.9718 627.5 -141.7627 627.5 -143.9718 C627.5 -146.181 629.2908 -147.9718 631.5 -147.9718 Z" clip-path="url(#clipPath2)" stroke="none"/>
      <path d="M631.5 54.7634 L637.5 42.7634 L625.5 42.7634 Z" clip-path="url(#clipPath2)" stroke="none"/>
      <rect x="577.9727" y="-56.0176" clip-path="url(#clipPath2)" fill="white" width="107.0547" height="22.8438" stroke="none"/>
      <text x="579.9727" font-size="16px" y="-38.5488" clip-path="url(#clipPath2)" font-family="sans-serif" stroke="none" xml:space="preserve">lode:involved</text>
      <path fill="none" d="M605.7327 549.2601 L272.0037 921.1437" clip-path="url(#clipPath2)"/>
      <path d="M611.0759 543.3061 C612.72 544.7816 612.8568 547.3105 611.3813 548.9547 C609.9058 550.5988 607.3768 550.7356 605.7327 549.2601 C604.0886 547.7846 603.9518 545.2556 605.4273 543.6115 C606.9028 541.9673 609.4318 541.8306 611.0759 543.3061 Z" clip-path="url(#clipPath2)" stroke="none"/>
      <path d="M264.6569 929.3306 L277.1371 924.4069 L268.2061 916.3922 Z" clip-path="url(#clipPath2)" stroke="none"/>
      <rect x="361.0183" y="726.4029" clip-path="url(#clipPath2)" fill="white" width="150.9922" height="22.8438" stroke="none"/>
      <text x="363.0183" font-size="16px" y="743.8717" clip-path="url(#clipPath2)" font-family="sans-serif" stroke="none" xml:space="preserve">crm:P102_has_title</text>
      <path fill="none" d="M1236.3451 343.002 L1236.3451 601.8253" clip-path="url(#clipPath2)"/>
      <path d="M1236.3451 335.002 C1238.5542 335.002 1240.3451 336.7929 1240.3451 339.002 C1240.3451 341.2112 1238.5542 343.002 1236.3451 343.002 C1234.136 343.002 1232.3451 341.2112 1232.3451 339.002 C1232.3451 336.7929 1234.136 335.002 1236.3451 335.002 Z" clip-path="url(#clipPath2)" stroke="none"/>
      <path d="M1236.3451 612.8253 L1242.3451 600.8253 L1230.3451 600.8253 Z" clip-path="url(#clipPath2)" stroke="none"/>
      <rect x="1183.5091" y="464.5078" clip-path="url(#clipPath2)" fill="white" width="105.6719" height="22.8438" stroke="none"/>
      <text x="1185.5092" font-size="16px" y="481.9766" clip-path="url(#clipPath2)" font-family="sans-serif" stroke="none" xml:space="preserve">dcterms:date</text>
      <path fill="none" d="M1266.1641 341.8989 L1415.2307 501.3627" clip-path="url(#clipPath2)"/>
      <path d="M1260.7009 336.0547 C1262.3147 334.5461 1264.8459 334.6314 1266.3546 336.2453 C1267.8632 337.8591 1267.7778 340.3903 1266.1641 341.8989 C1264.5503 343.4075 1262.019 343.3222 1260.5104 341.7084 C1259.0018 340.0946 1259.0872 337.5634 1260.7009 336.0547 Z" clip-path="url(#clipPath2)" stroke="none"/>
      <path d="M1422.7426 509.3984 L1418.9309 496.5349 L1410.1647 504.7296 Z" clip-path="url(#clipPath2)" stroke="none"/>
      <rect x="1278.1606" y="412.7812" clip-path="url(#clipPath2)" fill="white" width="129.8828" height="22.8438" stroke="none"/>
      <text x="1280.1605" font-size="16px" y="430.25" clip-path="url(#clipPath2)" font-family="sans-serif" stroke="none" xml:space="preserve">schema:location</text>
      <path fill="none" d="M1109.5228 310 L798.2219 310" clip-path="url(#clipPath2)"/>
      <path d="M1117.5228 310 C1117.5228 312.2091 1115.7319 314 1113.5228 314 C1111.3137 314 1109.5228 312.2091 1109.5228 310 C1109.5228 307.7909 1111.3137 306 1113.5228 306 C1115.7319 306 1117.5228 307.7909 1117.5228 310 Z" clip-path="url(#clipPath2)" stroke="none"/>
      <path d="M787.2219 310 L799.2219 316 L799.2219 304 Z" clip-path="url(#clipPath2)" stroke="none"/>
      <rect x="873.5781" y="298.5781" clip-path="url(#clipPath2)" fill="white" width="153.5781" height="22.8438" stroke="none"/>
      <text x="875.5781" font-size="16px" y="316.0469" clip-path="url(#clipPath2)" font-family="sans-serif" stroke="none" xml:space="preserve">frbroo:R24_created</text>
      <path fill="none" d="M1207.9036 341.9652 L1065.598 501.9016" clip-path="url(#clipPath2)"/>
      <path d="M1213.2214 335.9885 C1214.8718 337.457 1215.0193 339.9854 1213.5508 341.6358 C1212.0824 343.2862 1209.554 343.4337 1207.9036 341.9652 C1206.2532 340.4967 1206.1057 337.9683 1207.5742 336.3179 C1209.0426 334.6675 1211.571 334.52 1213.2214 335.9885 Z" clip-path="url(#clipPath2)" stroke="none"/>
      <path d="M1058.286 510.1195 L1070.7452 505.1428 L1061.7803 497.1661 Z" clip-path="url(#clipPath2)" stroke="none"/>
      <rect x="1053.4263" y="413.1328" clip-path="url(#clipPath2)" fill="white" width="161.9844" height="22.8438" stroke="none"/>
      <text x="1055.4263" font-size="16px" y="430.6016" clip-path="url(#clipPath2)" font-family="sans-serif" stroke="none" xml:space="preserve">schema:publishedBy</text>
      <path fill="none" d="M585.5507 548.3556 L172.909 798.0879" clip-path="url(#clipPath2)"/>
      <path d="M592.3949 544.2135 C593.5387 546.1035 592.9338 548.5629 591.0438 549.7067 C589.1538 550.8505 586.6945 550.2455 585.5507 548.3556 C584.4069 546.4656 585.0118 544.0062 586.9017 542.8624 C588.7917 541.7186 591.2511 542.3235 592.3949 544.2135 Z" clip-path="url(#clipPath2)" stroke="none"/>
      <path d="M163.4983 803.7833 L176.8711 802.7032 L170.658 792.437 Z" clip-path="url(#clipPath2)" stroke="none"/>
      <rect x="220.9509" y="654.1875" clip-path="url(#clipPath2)" fill="white" width="310.5781" height="41.6875" stroke="none"/>
      <text x="326.8493" font-size="16px" y="671.6562" clip-path="url(#clipPath2)" font-family="sans-serif" stroke="none" xml:space="preserve">rdaa:P50696</text>
      <text x="222.9509" font-size="16px" y="690.5" clip-path="url(#clipPath2)" font-family="sans-serif" stroke="none" xml:space="preserve">"is founder collective agent of work of" </text>
      <path fill="none" d="M232.7651 1004.4106 L232.7651 1098.5015" clip-path="url(#clipPath2)"/>
      <path d="M232.7651 996.4106 C234.9742 996.4106 236.7651 998.2014 236.7651 1000.4106 C236.7651 1002.6198 234.9742 1004.4106 232.7651 1004.4106 C230.556 1004.4106 228.7651 1002.6198 228.7651 1000.4106 C228.7651 998.2014 230.556 996.4106 232.7651 996.4106 Z" clip-path="url(#clipPath2)" stroke="none"/>
      <path d="M232.7651 1109.5015 L238.7651 1097.5015 L226.7651 1097.5015 Z" clip-path="url(#clipPath2)" stroke="none"/>
      <rect x="178.3628" y="1043.5129" clip-path="url(#clipPath2)" fill="white" width="108.8047" height="22.8438" stroke="none"/>
      <text x="180.3627" font-size="16px" y="1060.9817" clip-path="url(#clipPath2)" font-family="sans-serif" stroke="none" xml:space="preserve">dc:alternative</text>
      <path fill="none" d="M681.8287 548.2113 L1137.1398 798.4846" clip-path="url(#clipPath2)"/>
      <path d="M674.818 544.3578 C675.8821 542.4218 678.3141 541.7151 680.2501 542.7792 C682.1861 543.8433 682.8928 546.2753 681.8287 548.2113 C680.7646 550.1473 678.3326 550.854 676.3966 549.7899 C674.4606 548.7258 673.7539 546.2938 674.818 544.3578 Z" clip-path="url(#clipPath2)" stroke="none"/>
      <path d="M1146.7795 803.7833 L1139.1536 792.7449 L1133.3733 803.261 Z" clip-path="url(#clipPath2)" stroke="none"/>
      <rect x="808.7224" y="663.6094" clip-path="url(#clipPath2)" fill="white" width="207.6484" height="22.8438" stroke="none"/>
      <text x="810.7224" font-size="16px" y="681.0781" clip-path="url(#clipPath2)" font-family="sans-serif" stroke="none" xml:space="preserve">dcterms:accrualPeriodicity</text>
      <path fill="none" d="M672.9019 52.3238 L815.6259 -56.0384" clip-path="url(#clipPath2)"/>
      <path d="M666.5302 57.1613 C665.1943 55.4019 665.5377 52.8926 667.2972 51.5567 C669.0567 50.2209 671.566 50.5643 672.9019 52.3238 C674.2377 54.0832 673.8943 56.5925 672.1348 57.9284 C670.3753 59.2642 667.866 58.9208 666.5302 57.1613 Z" clip-path="url(#clipPath2)" stroke="none"/>
      <path d="M824.3868 -62.6902 L811.2012 -60.2125 L818.4576 -50.655 Z" clip-path="url(#clipPath2)" stroke="none"/>
      <rect x="654.645" y="-15.3926" clip-path="url(#clipPath2)" fill="white" width="184.8047" height="22.8438" stroke="none"/>
      <text x="656.645" font-size="16px" y="2.0762" clip-path="url(#clipPath2)" font-family="sans-serif" stroke="none" xml:space="preserve">dcterms:dateSubmitted</text>
      <path fill="none" d="M641.9444 550.055 L813.4726 1034.6674" clip-path="url(#clipPath2)"/>
      <path d="M639.2751 542.5135 C641.3576 541.7764 643.6434 542.8671 644.3805 544.9496 C645.1176 547.0321 644.0269 549.3179 641.9444 550.055 C639.8619 550.7921 637.5761 549.7014 636.839 547.6189 C636.1019 545.5364 637.1926 543.2506 639.2751 542.5135 Z" clip-path="url(#clipPath2)" stroke="none"/>
      <path d="M817.1429 1045.037 L818.7951 1031.7227 L807.4828 1035.7267 Z" clip-path="url(#clipPath2)" stroke="none"/>
      <rect x="664.2137" y="784.2428" clip-path="url(#clipPath2)" fill="white" width="129.3281" height="22.8438" stroke="none"/>
      <text x="666.2137" font-size="16px" y="801.7115" clip-path="url(#clipPath2)" font-family="sans-serif" stroke="none" xml:space="preserve">dcterms:created</text>
    </g>
    <g fill="rgb(210,210,210)" text-rendering="geometricPrecision" shape-rendering="geometricPrecision" transform="matrix(0.4639,0,0,0.4639,134.9934,91.8512) translate(4,4)" stroke="rgb(210,210,210)">
      <rect x="848.6857" width="734.2843" height="187.5403" y="17.2359" clip-path="url(#clipPath3)" stroke="none"/>
    </g>
    <g fill="white" text-rendering="geometricPrecision" shape-rendering="geometricPrecision" transform="matrix(0.4639,0,0,0.4639,134.9934,91.8512)" stroke="white">
      <rect x="848.6857" width="734.2843" height="187.5403" y="17.2359" clip-path="url(#clipPath2)" stroke="none"/>
      <rect x="848.6857" y="17.2359" clip-path="url(#clipPath2)" fill="rgb(183,182,158)" width="734.2843" height="21.666" stroke="none"/>
    </g>
    <g font-size="15px" stroke-linecap="butt" transform="matrix(0.4639,0,0,0.4639,134.9934,91.8512)" text-rendering="geometricPrecision" font-family="sans-serif" shape-rendering="geometricPrecision" font-weight="bold" stroke-miterlimit="1.45">
      <text x="1504.1023" xml:space="preserve" y="33.7378" clip-path="url(#clipPath2)" stroke="none">Prefixes   </text>
      <rect fill="none" x="848.6857" width="734.2843" height="187.5403" y="17.2359" clip-path="url(#clipPath2)"/>
      <text x="891.5731" xml:space="preserve" font-size="16px" y="90.1824" clip-path="url(#clipPath2)" stroke="none">rdac:</text>
      <text x="891.5731" xml:space="preserve" font-size="16px" y="109.0261" clip-path="url(#clipPath2)" stroke="none">crm:</text>
      <text x="891.5731" xml:space="preserve" font-size="16px" y="127.8699" clip-path="url(#clipPath2)" stroke="none">frbroo:</text>
      <text x="891.5731" xml:space="preserve" font-size="16px" y="146.7136" clip-path="url(#clipPath2)" stroke="none">fabio:</text>
      <text x="891.5731" xml:space="preserve" font-size="16px" y="165.5574" clip-path="url(#clipPath2)" stroke="none">dcterms:</text>
      <text x="891.5731" xml:space="preserve" font-size="16px" y="184.4011" clip-path="url(#clipPath2)" stroke="none">schema:</text>
      <text x="1065.0403" font-size="16px" y="90.1824" clip-path="url(#clipPath2)" stroke="none" font-weight="normal" xml:space="preserve">http://rdaregistry.info/Elements/c/</text>
      <text x="1065.0403" font-size="16px" y="109.0261" clip-path="url(#clipPath2)" stroke="none" font-weight="normal" xml:space="preserve">http://www.cidoc-crm.org/Version/version-7.0.1/</text>
      <text x="1065.0403" font-size="16px" y="127.8699" clip-path="url(#clipPath2)" stroke="none" font-weight="normal" xml:space="preserve">http://www.cidoc-crm.org/frbroo/ModelVersion/frbroo-v.-3.0/</text>
      <text x="1065.0403" font-size="16px" y="146.7136" clip-path="url(#clipPath2)" stroke="none" font-weight="normal" xml:space="preserve">https://sparontologies.github.io/fabio/current/fabio.html</text>
      <text x="1065.0403" font-size="16px" y="165.5574" clip-path="url(#clipPath2)" stroke="none" font-weight="normal" xml:space="preserve">http://purl.org/dc/terms/</text>
      <text x="1065.0403" font-size="16px" y="184.4011" clip-path="url(#clipPath2)" stroke="none" font-weight="normal" xml:space="preserve">https://schema.org/</text>
    </g>
  </g>
</svg>
