<?xml version="1.0" encoding="UTF-8"?><svg xmlns="http://www.w3.org/2000/svg" xmlns:xlink="http://www.w3.org/1999/xlink" fill-opacity="1" color-rendering="auto" color-interpolation="auto" text-rendering="auto" stroke="black" stroke-linecap="square" width="1314" stroke-miterlimit="10" shape-rendering="auto" stroke-opacity="1" fill="black" stroke-dasharray="none" font-weight="normal" stroke-width="1" height="923" font-family="'Dialog'" font-style="normal" stroke-linejoin="miter" font-size="12px" stroke-dashoffset="0" image-rendering="auto">
  <!--Generated by ySVG 2.5-->
  <defs id="genericDefs"/>
  <g>
    <defs id="defs1">
      <clipPath clipPathUnits="userSpaceOnUse" id="clipPath1">
        <path d="M0 0 L1314 0 L1314 923 L0 923 L0 0 Z"/>
      </clipPath>
      <clipPath clipPathUnits="userSpaceOnUse" id="clipPath2">
        <path d="M-366 -364 L948 -364 L948 559 L-366 559 L-366 -364 Z"/>
      </clipPath>
      <clipPath clipPathUnits="userSpaceOnUse" id="clipPath3">
        <path d="M-370 -368 L944 -368 L944 555 L-370 555 L-370 -368 Z"/>
      </clipPath>
    </defs>
    <g fill="white" text-rendering="geometricPrecision" shape-rendering="geometricPrecision" transform="translate(366,364)" stroke="white">
      <rect x="-366" width="1314" height="923" y="-364" clip-path="url(#clipPath2)" stroke="none"/>
    </g>
    <g fill="yellow" text-rendering="geometricPrecision" shape-rendering="geometricPrecision" transform="matrix(1,0,0,1,366,364)" stroke="yellow">
      <rect x="269.2936" y="104.3629" clip-path="url(#clipPath2)" width="207.4128" rx="4" ry="4" height="72.3929" stroke="none"/>
    </g>
    <g font-size="16px" stroke-linecap="butt" transform="matrix(1,0,0,1,366,364)" text-rendering="geometricPrecision" font-family="sans-serif" shape-rendering="geometricPrecision" stroke-miterlimit="1.45">
      <text x="318.2695" xml:space="preserve" y="146.6062" clip-path="url(#clipPath2)" stroke="none">schema:Movie</text>
      <rect x="269.2936" y="104.3629" clip-path="url(#clipPath2)" fill="none" width="207.4128" rx="4" ry="4" height="72.3929"/>
    </g>
    <g fill="yellow" text-rendering="geometricPrecision" shape-rendering="geometricPrecision" transform="matrix(1,0,0,1,366,364)" stroke="yellow">
      <rect x="288.5159" y="500" clip-path="url(#clipPath2)" width="168.9682" rx="4" ry="4" height="44" stroke="none"/>
    </g>
    <g font-size="16px" stroke-linecap="butt" transform="matrix(1,0,0,1,366,364)" text-rendering="geometricPrecision" font-family="sans-serif" shape-rendering="geometricPrecision" stroke-miterlimit="1.45">
      <text x="294.6719" xml:space="preserve" y="528.0469" clip-path="url(#clipPath2)" stroke="none">schema:MusicGroup</text>
      <rect x="288.5159" y="500" clip-path="url(#clipPath2)" fill="none" width="168.9682" rx="4" ry="4" height="44"/>
    </g>
    <g fill="yellow" text-rendering="geometricPrecision" shape-rendering="geometricPrecision" transform="matrix(1,0,0,1,366,364)" stroke="yellow">
      <rect x="-338.285" y="-53.5563" clip-path="url(#clipPath2)" width="136.57" rx="4" ry="4" height="44" stroke="none"/>
    </g>
    <g font-size="16px" stroke-linecap="butt" transform="matrix(1,0,0,1,366,364)" text-rendering="geometricPrecision" font-family="sans-serif" shape-rendering="geometricPrecision" stroke-miterlimit="1.45">
      <text x="-319.875" xml:space="preserve" y="-25.5094" clip-path="url(#clipPath2)" stroke="none">schema:Date</text>
      <rect x="-338.285" y="-53.5563" clip-path="url(#clipPath2)" fill="none" width="136.57" rx="4" ry="4" height="44"/>
    </g>
    <g fill="yellow" text-rendering="geometricPrecision" shape-rendering="geometricPrecision" transform="matrix(1,0,0,1,366,364)" stroke="yellow">
      <rect x="-338.285" y="101.8688" clip-path="url(#clipPath2)" width="136.57" rx="4" ry="4" height="44" stroke="none"/>
    </g>
    <g font-size="16px" stroke-linecap="butt" transform="matrix(1,0,0,1,366,364)" text-rendering="geometricPrecision" font-family="sans-serif" shape-rendering="geometricPrecision" stroke-miterlimit="1.45">
      <text x="-322.9062" xml:space="preserve" y="129.9157" clip-path="url(#clipPath2)" stroke="none">schema:Event</text>
      <rect x="-338.285" y="101.8688" clip-path="url(#clipPath2)" fill="none" width="136.57" rx="4" ry="4" height="44"/>
    </g>
    <g fill="yellow" text-rendering="geometricPrecision" shape-rendering="geometricPrecision" transform="matrix(1,0,0,1,366,364)" stroke="yellow">
      <rect x="-299.3763" y="500" clip-path="url(#clipPath2)" width="136.57" rx="4" ry="4" height="44" stroke="none"/>
    </g>
    <g font-size="16px" stroke-linecap="butt" transform="matrix(1,0,0,1,366,364)" text-rendering="geometricPrecision" font-family="sans-serif" shape-rendering="geometricPrecision" stroke-miterlimit="1.45">
      <text x="-289.2163" xml:space="preserve" y="528.0469" clip-path="url(#clipPath2)" stroke="none">schema:Person</text>
      <rect x="-299.3763" y="500" clip-path="url(#clipPath2)" fill="none" width="136.57" rx="4" ry="4" height="44"/>
    </g>
    <g fill="yellow" text-rendering="geometricPrecision" shape-rendering="geometricPrecision" transform="matrix(1,0,0,1,366,364)" stroke="yellow">
      <rect x="759.0413" y="95.9084" clip-path="url(#clipPath2)" width="168.9682" rx="4" ry="4" height="44" stroke="none"/>
    </g>
    <g font-size="16px" stroke-linecap="butt" transform="matrix(1,0,0,1,366,364)" text-rendering="geometricPrecision" font-family="sans-serif" shape-rendering="geometricPrecision" stroke-miterlimit="1.45">
      <text x="791.8027" xml:space="preserve" y="123.9553" clip-path="url(#clipPath2)" stroke="none">schema:Place</text>
      <rect x="759.0413" y="95.9084" clip-path="url(#clipPath2)" fill="none" width="168.9682" rx="4" ry="4" height="44"/>
    </g>
    <g fill="yellow" text-rendering="geometricPrecision" shape-rendering="geometricPrecision" transform="matrix(1,0,0,1,366,364)" stroke="yellow">
      <rect x="384.4707" y="-80.4675" clip-path="url(#clipPath2)" width="136.57" rx="4" ry="4" height="44" stroke="none"/>
    </g>
    <g font-size="16px" stroke-linecap="butt" transform="matrix(1,0,0,1,366,364)" text-rendering="geometricPrecision" font-family="sans-serif" shape-rendering="geometricPrecision" stroke-miterlimit="1.45">
      <text x="389.9158" xml:space="preserve" y="-52.4206" clip-path="url(#clipPath2)" stroke="none">schema:Country</text>
      <rect x="384.4707" y="-80.4675" clip-path="url(#clipPath2)" fill="none" width="136.57" rx="4" ry="4" height="44"/>
    </g>
    <g fill="yellow" text-rendering="geometricPrecision" shape-rendering="geometricPrecision" transform="matrix(1,0,0,1,366,364)" stroke="yellow">
      <rect x="246.8486" y="-348.5942" clip-path="url(#clipPath2)" width="188.4702" rx="4" ry="4" height="44" stroke="none"/>
    </g>
    <g font-size="16px" stroke-linecap="butt" transform="matrix(1,0,0,1,366,364)" text-rendering="geometricPrecision" font-family="sans-serif" shape-rendering="geometricPrecision" stroke-miterlimit="1.45">
      <text x="257.7751" xml:space="preserve" y="-320.5473" clip-path="url(#clipPath2)" stroke="none">schema:CreativeWork</text>
      <rect x="246.8486" y="-348.5942" clip-path="url(#clipPath2)" fill="none" width="188.4702" rx="4" ry="4" height="44"/>
    </g>
    <g fill="yellow" text-rendering="geometricPrecision" shape-rendering="geometricPrecision" transform="matrix(1,0,0,1,366,364)" stroke="yellow">
      <rect x="-214.2351" y="-348.5942" clip-path="url(#clipPath2)" width="188.4702" rx="4" ry="4" height="44" stroke="none"/>
    </g>
    <g font-size="16px" stroke-linecap="butt" transform="matrix(1,0,0,1,366,364)" text-rendering="geometricPrecision" font-family="sans-serif" shape-rendering="geometricPrecision" stroke-miterlimit="1.45">
      <text x="-203.3086" xml:space="preserve" y="-320.5473" clip-path="url(#clipPath2)" stroke="none">schema:CreativeWork</text>
      <rect x="-214.2351" y="-348.5942" clip-path="url(#clipPath2)" fill="none" width="188.4702" rx="4" ry="4" height="44"/>
    </g>
    <g fill="yellow" text-rendering="geometricPrecision" shape-rendering="geometricPrecision" transform="matrix(1,0,0,1,366,364)" stroke="yellow">
      <rect x="-158.8459" y="206.5357" clip-path="url(#clipPath2)" width="188.4702" rx="4" ry="4" height="44" stroke="none"/>
    </g>
    <g font-size="16px" stroke-linecap="butt" transform="matrix(1,0,0,1,366,364)" text-rendering="geometricPrecision" font-family="sans-serif" shape-rendering="geometricPrecision" stroke-miterlimit="1.45">
      <text x="-146.9858" xml:space="preserve" y="234.5826" clip-path="url(#clipPath2)" stroke="none">schema:Organization</text>
      <rect x="-158.8459" y="206.5357" clip-path="url(#clipPath2)" fill="none" width="188.4702" rx="4" ry="4" height="44"/>
    </g>
    <g fill="yellow" text-rendering="geometricPrecision" shape-rendering="geometricPrecision" transform="matrix(1,0,0,1,366,364)" stroke="yellow">
      <rect x="-158.8459" y="280.5357" clip-path="url(#clipPath2)" width="188.4702" rx="4" ry="4" height="44" stroke="none"/>
    </g>
    <g font-size="16px" stroke-linecap="butt" transform="matrix(1,0,0,1,366,364)" text-rendering="geometricPrecision" font-family="sans-serif" shape-rendering="geometricPrecision" stroke-miterlimit="1.45">
      <text x="-146.9858" xml:space="preserve" y="308.5826" clip-path="url(#clipPath2)" stroke="none">schema:Organization</text>
      <rect x="-158.8459" y="280.5357" clip-path="url(#clipPath2)" fill="none" width="188.4702" rx="4" ry="4" height="44"/>
    </g>
    <g fill="yellow" text-rendering="geometricPrecision" shape-rendering="geometricPrecision" transform="matrix(1,0,0,1,366,364)" stroke="yellow">
      <rect x="-97.4731" y="14.7017" clip-path="url(#clipPath2)" width="158.8574" rx="4" ry="4" height="44" stroke="none"/>
    </g>
    <g font-size="16px" stroke-linecap="butt" transform="matrix(1,0,0,1,366,364)" text-rendering="geometricPrecision" font-family="sans-serif" shape-rendering="geometricPrecision" stroke-miterlimit="1.45">
      <text x="-87.5249" xml:space="preserve" y="42.7486" clip-path="url(#clipPath2)" stroke="none">schema:Language</text>
      <rect x="-97.4731" y="14.7017" clip-path="url(#clipPath2)" fill="none" width="158.8574" rx="4" ry="4" height="44"/>
    </g>
    <g fill="yellow" text-rendering="geometricPrecision" shape-rendering="geometricPrecision" transform="matrix(1,0,0,1,366,364)" stroke="yellow">
      <rect x="759.0413" y="295.9135" clip-path="url(#clipPath2)" width="168.9682" rx="4" ry="4" height="44" stroke="none"/>
    </g>
    <g font-size="16px" stroke-linecap="butt" transform="matrix(1,0,0,1,366,364)" text-rendering="geometricPrecision" font-family="sans-serif" shape-rendering="geometricPrecision" stroke-miterlimit="1.45">
      <text x="761.1504" xml:space="preserve" y="323.9604" clip-path="url(#clipPath2)" stroke="none">schema:Organization</text>
      <rect x="759.0413" y="295.9135" clip-path="url(#clipPath2)" fill="none" width="168.9682" rx="4" ry="4" height="44"/>
    </g>
    <g fill="yellow" text-rendering="geometricPrecision" shape-rendering="geometricPrecision" transform="matrix(1,0,0,1,366,364)" stroke="yellow">
      <rect x="759.0413" y="237.2914" clip-path="url(#clipPath2)" width="168.9682" rx="4" ry="4" height="44" stroke="none"/>
    </g>
    <g font-size="16px" stroke-linecap="butt" transform="matrix(1,0,0,1,366,364)" text-rendering="geometricPrecision" font-family="sans-serif" shape-rendering="geometricPrecision" stroke-miterlimit="1.45">
      <text x="777.6777" xml:space="preserve" y="265.3382" clip-path="url(#clipPath2)" stroke="none">schema:Duration</text>
      <rect x="759.0413" y="237.2914" clip-path="url(#clipPath2)" fill="none" width="168.9682" rx="4" ry="4" height="44"/>
    </g>
    <g fill="yellow" text-rendering="geometricPrecision" shape-rendering="geometricPrecision" transform="matrix(1,0,0,1,366,364)" stroke="yellow">
      <rect x="759.0413" y="178.6692" clip-path="url(#clipPath2)" width="168.9682" rx="4" ry="4" height="44" stroke="none"/>
    </g>
    <g font-size="16px" stroke-linecap="butt" transform="matrix(1,0,0,1,366,364)" text-rendering="geometricPrecision" font-family="sans-serif" shape-rendering="geometricPrecision" stroke-miterlimit="1.45">
      <text x="785.4004" xml:space="preserve" y="206.7161" clip-path="url(#clipPath2)" stroke="none">schema:Person</text>
      <rect x="759.0413" y="178.6692" clip-path="url(#clipPath2)" fill="none" width="168.9682" rx="4" ry="4" height="44"/>
    </g>
    <g stroke-linecap="butt" transform="matrix(1,0,0,1,366,364)" fill="navy" text-rendering="geometricPrecision" shape-rendering="geometricPrecision" stroke="navy" stroke-miterlimit="1.45">
      <path fill="none" d="M373 180.7385 L373 489.0418" clip-path="url(#clipPath2)"/>
      <path d="M373 172.7385 C375.2091 172.7385 377 174.5293 377 176.7385 C377 178.9476 375.2091 180.7385 373 180.7385 C370.7909 180.7385 369 178.9476 369 176.7385 C369 174.5293 370.7909 172.7385 373 172.7385 Z" clip-path="url(#clipPath2)" stroke="none"/>
      <path d="M373 500.0418 L379 488.0418 L367 488.0418 Z" clip-path="url(#clipPath2)" stroke="none"/>
      <rect x="307.2812" y="326.956" clip-path="url(#clipPath2)" fill="white" width="131.4375" height="22.8438" stroke="none"/>
      <text x="309.2812" font-size="16px" y="344.4248" clip-path="url(#clipPath2)" font-family="sans-serif" stroke="none" xml:space="preserve">schema:musicBy</text>
      <path fill="none" d="M319.9972 100.3361 L319.9972 -31.5563 L-190.6879 -31.5563" clip-path="url(#clipPath2)"/>
      <path d="M319.9972 108.3361 C317.7881 108.3361 315.9972 106.5452 315.9972 104.3361 C315.9972 102.1269 317.7881 100.3361 319.9972 100.3361 C322.2064 100.3361 323.9972 102.1269 323.9972 104.3361 C323.9972 106.5452 322.2064 108.3361 319.9972 108.3361 Z" clip-path="url(#clipPath2)" stroke="none"/>
      <path d="M-201.6879 -31.5563 L-189.6879 -25.5563 L-189.6879 -37.5563 Z" clip-path="url(#clipPath2)" stroke="none"/>
      <rect x="-17.3823" y="-42.9781" clip-path="url(#clipPath2)" fill="white" width="162.1719" height="22.8438" stroke="none"/>
      <text x="-15.3823" font-size="16px" y="-25.5094" clip-path="url(#clipPath2)" font-family="sans-serif" stroke="none" xml:space="preserve">schema:dateCreated</text>
      <path fill="none" d="M-270 97.8983 L-270 1.4364" clip-path="url(#clipPath2)"/>
      <path d="M-270 105.8983 C-272.2091 105.8983 -274 104.1075 -274 101.8983 C-274 99.6892 -272.2091 97.8983 -270 97.8983 C-267.7909 97.8983 -266 99.6892 -266 101.8983 C-266 104.1075 -267.7909 105.8983 -270 105.8983 Z" clip-path="url(#clipPath2)" stroke="none"/>
      <path d="M-270 -9.5636 L-276 2.4364 L-264 2.4364 Z" clip-path="url(#clipPath2)" stroke="none"/>
      <rect x="-338.8867" y="34.7344" clip-path="url(#clipPath2)" fill="white" width="137.7734" height="22.8438" stroke="none"/>
      <text x="-336.8867" font-size="16px" y="52.2032" clip-path="url(#clipPath2)" font-family="sans-serif" stroke="none" xml:space="preserve">schema:temporal</text>
      <path fill="none" d="M265.2834 165.8688 L-187.1444 165.8688 L-187.1444 488.9896" clip-path="url(#clipPath2)"/>
      <path d="M273.2834 165.8688 C273.2834 168.078 271.4926 169.8688 269.2834 169.8688 C267.0743 169.8688 265.2834 168.078 265.2834 165.8688 C265.2834 163.6597 267.0743 161.8688 269.2834 161.8688 C271.4926 161.8688 273.2834 163.6597 273.2834 165.8688 Z" clip-path="url(#clipPath2)" stroke="none"/>
      <path d="M-187.1444 499.9896 L-181.1444 487.9896 L-193.1444 487.9896 Z" clip-path="url(#clipPath2)" stroke="none"/>
      <rect x="-17.1988" y="154.447" clip-path="url(#clipPath2)" fill="white" width="107.4219" height="22.8438" stroke="none"/>
      <text x="-15.1988" font-size="16px" y="171.9157" clip-path="url(#clipPath2)" font-family="sans-serif" stroke="none" xml:space="preserve">schema:actor</text>
      <path fill="none" d="M-270 495.9703 L-270 156.8601" clip-path="url(#clipPath2)"/>
      <path d="M-270 503.9703 C-272.2091 503.9703 -274 502.1794 -274 499.9703 C-274 497.7611 -272.2091 495.9703 -270 495.9703 C-267.7909 495.9703 -266 497.7611 -266 499.9703 C-266 502.1794 -267.7909 503.9703 -270 503.9703 Z" clip-path="url(#clipPath2)" stroke="none"/>
      <path d="M-270 145.8601 L-276 157.8601 L-264 157.8601 Z" clip-path="url(#clipPath2)" stroke="none"/>
      <rect x="-350.3789" y="311.5125" clip-path="url(#clipPath2)" fill="white" width="160.7578" height="22.8438" stroke="none"/>
      <text x="-348.3789" font-size="16px" y="328.9813" clip-path="url(#clipPath2)" font-family="sans-serif" stroke="none" xml:space="preserve">schema:performerIn</text>
      <path fill="none" d="M-158.7697 522 L277.5339 522" clip-path="url(#clipPath2)"/>
      <path d="M-166.7697 522 C-166.7697 519.7908 -164.9788 518 -162.7697 518 C-160.5606 518 -158.7697 519.7908 -158.7697 522 C-158.7697 524.2092 -160.5606 526 -162.7697 526 C-164.9788 526 -166.7697 524.2092 -166.7697 522 Z" clip-path="url(#clipPath2)" stroke="none"/>
      <path d="M288.5339 522 L276.5339 516 L276.5339 528 Z" clip-path="url(#clipPath2)" stroke="none"/>
      <rect x="-58.7897" y="510.5781" clip-path="url(#clipPath2)" fill="white" width="243.2891" height="22.8438" stroke="none"/>
      <text x="-56.7897" font-size="16px" y="528.0469" clip-path="url(#clipPath2)" font-family="sans-serif" stroke="none" xml:space="preserve">schema:memberOfMusicGroup</text>
      <path fill="none" d="M480.7318 117.9084 L748.0357 117.9084" clip-path="url(#clipPath2)"/>
      <path d="M472.7318 117.9084 C472.7318 115.6993 474.5227 113.9084 476.7318 113.9084 C478.941 113.9084 480.7318 115.6993 480.7318 117.9084 C480.7318 120.1176 478.941 121.9084 476.7318 121.9084 C474.5227 121.9084 472.7318 120.1176 472.7318 117.9084 Z" clip-path="url(#clipPath2)" stroke="none"/>
      <path d="M759.0357 117.9084 L747.0357 111.9084 L747.0357 123.9084 Z" clip-path="url(#clipPath2)" stroke="none"/>
      <rect x="522.7645" y="106.4865" clip-path="url(#clipPath2)" fill="white" width="190.2188" height="22.8438" stroke="none"/>
      <text x="524.7645" font-size="16px" y="123.9553" clip-path="url(#clipPath2)" font-family="sans-serif" stroke="none" xml:space="preserve">schema:locationCreated</text>
      <path fill="none" d="M452.7557 100.3317 L452.7557 -25.488" clip-path="url(#clipPath2)"/>
      <path d="M452.7557 108.3317 C450.5465 108.3317 448.7557 106.5408 448.7557 104.3317 C448.7557 102.1225 450.5465 100.3317 452.7557 100.3317 C454.9648 100.3317 456.7557 102.1225 456.7557 104.3317 C456.7557 106.5408 454.9648 108.3317 452.7557 108.3317 Z" clip-path="url(#clipPath2)" stroke="none"/>
      <path d="M452.7557 -36.488 L446.7557 -24.488 L458.7557 -24.488 Z" clip-path="url(#clipPath2)" stroke="none"/>
      <rect x="356.1307" y="22.5258" clip-path="url(#clipPath2)" fill="white" width="193.25" height="22.8438" stroke="none"/>
      <text x="358.1307" font-size="16px" y="39.9946" clip-path="url(#clipPath2)" font-family="sans-serif" stroke="none" xml:space="preserve">schema:countryOfOrigin</text>
      <path fill="none" d="M525.0163 -58.7509 L843.5254 -60 L843.5254 84.887" clip-path="url(#clipPath2)"/>
      <path d="M517.0164 -58.7195 C517.0078 -60.9286 518.7916 -62.7265 521.0007 -62.7351 C523.2098 -62.7438 525.0077 -60.96 525.0163 -58.7509 C525.025 -56.5417 523.2411 -54.7439 521.032 -54.7352 C518.8229 -54.7265 517.025 -56.5104 517.0164 -58.7195 Z" clip-path="url(#clipPath2)" stroke="none"/>
      <path d="M843.5254 95.887 L849.5254 83.887 L837.5254 83.887 Z" clip-path="url(#clipPath2)" stroke="none"/>
      <rect x="600.3807" y="-70.8074" clip-path="url(#clipPath2)" fill="white" width="172.9297" height="22.8438" stroke="none"/>
      <text x="602.3807" font-size="16px" y="-53.3387" clip-path="url(#clipPath2)" font-family="sans-serif" stroke="none" xml:space="preserve">schema:containsPlace</text>
      <path fill="none" d="M342.4219 100.3602 L341.1872 -293.5783" clip-path="url(#clipPath2)"/>
      <path d="M342.447 108.3602 C340.2379 108.3671 338.4414 106.5819 338.4345 104.3728 C338.4276 102.1636 340.2128 100.3672 342.4219 100.3602 C344.631 100.3533 346.4275 102.1385 346.4344 104.3477 C346.4413 106.5568 344.6561 108.3533 342.447 108.3602 Z" clip-path="url(#clipPath2)" stroke="none"/>
      <path d="M341.1527 -304.5782 L335.1904 -292.5595 L347.1903 -292.5971 Z" clip-path="url(#clipPath2)" stroke="none"/>
      <rect x="268.9186" y="-111.5375" clip-path="url(#clipPath2)" fill="white" width="145.75" height="22.8438" stroke="none"/>
      <text x="270.9186" font-size="16px" y="-94.0688" clip-path="url(#clipPath2)" font-family="sans-serif" stroke="none" xml:space="preserve">schema:isBasedon</text>
      <path fill="none" d="M242.8351 -326.5942 L-14.7388 -326.5942" clip-path="url(#clipPath2)"/>
      <path d="M250.8351 -326.5942 C250.8351 -324.385 249.0442 -322.5942 246.8351 -322.5942 C244.626 -322.5942 242.8351 -324.385 242.8351 -326.5942 C242.8351 -328.8033 244.626 -330.5942 246.8351 -330.5942 C249.0442 -330.5942 250.8351 -328.8033 250.8351 -326.5942 Z" clip-path="url(#clipPath2)" stroke="none"/>
      <path d="M-25.7388 -326.5942 L-13.7388 -320.5942 L-13.7388 -332.5942 Z" clip-path="url(#clipPath2)" stroke="none"/>
      <rect x="45.8739" y="-338.0161" clip-path="url(#clipPath2)" fill="white" width="129.3359" height="22.8438" stroke="none"/>
      <text x="47.8739" font-size="16px" y="-320.5473" clip-path="url(#clipPath2)" font-family="sans-serif" stroke="none" xml:space="preserve">schema:isPartOf</text>
      <path fill="none" d="M-120 -300.6108 L-120 140.5593 L258.2786 140.5593" clip-path="url(#clipPath2)"/>
      <path d="M-120 -308.6108 C-117.7909 -308.6108 -116 -306.8199 -116 -304.6108 C-116 -302.4017 -117.7909 -300.6108 -120 -300.6108 C-122.2091 -300.6108 -124 -302.4017 -124 -304.6108 C-124 -306.8199 -122.2091 -308.6108 -120 -308.6108 Z" clip-path="url(#clipPath2)" stroke="none"/>
      <path d="M269.2786 140.5593 L257.2786 134.5593 L257.2786 146.5593 Z" clip-path="url(#clipPath2)" stroke="none"/>
      <rect x="-191.2305" y="-88.8768" clip-path="url(#clipPath2)" fill="white" width="142.4609" height="22.8438" stroke="none"/>
      <text x="-189.2305" font-size="16px" y="-71.4081" clip-path="url(#clipPath2)" font-family="sans-serif" stroke="none" xml:space="preserve">schema:subjectOf</text>
      <path fill="none" d="M323.9166 180.7624 L323.9166 228.5357 L40.628 228.5357" clip-path="url(#clipPath2)"/>
      <path d="M323.9166 172.7624 C326.1258 172.7624 327.9166 174.5532 327.9166 176.7624 C327.9166 178.9715 326.1258 180.7624 323.9166 180.7624 C321.7075 180.7624 319.9166 178.9715 319.9166 176.7624 C319.9166 174.5532 321.7075 172.7624 323.9166 172.7624 Z" clip-path="url(#clipPath2)" stroke="none"/>
      <path d="M29.628 228.5357 L41.628 234.5357 L41.628 222.5357 Z" clip-path="url(#clipPath2)" stroke="none"/>
      <rect x="103.583" y="217.1138" clip-path="url(#clipPath2)" fill="white" width="155.5" height="22.8438" stroke="none"/>
      <text x="105.583" font-size="16px" y="234.5826" clip-path="url(#clipPath2)" font-family="sans-serif" stroke="none" xml:space="preserve">schema:contributor</text>
      <path fill="none" d="M341.1874 180.7886 L341.1874 302.5357 L40.656 302.5357" clip-path="url(#clipPath2)"/>
      <path d="M341.1874 172.7886 C343.3965 172.7886 345.1874 174.5795 345.1874 176.7886 C345.1874 178.9978 343.3965 180.7886 341.1874 180.7886 C338.9782 180.7886 337.1874 178.9978 337.1874 176.7886 C337.1874 174.5795 338.9782 172.7886 341.1874 172.7886 Z" clip-path="url(#clipPath2)" stroke="none"/>
      <path d="M29.656 302.5357 L41.656 308.5357 L41.656 296.5357 Z" clip-path="url(#clipPath2)" stroke="none"/>
      <rect x="119.5191" y="291.1138" clip-path="url(#clipPath2)" fill="white" width="140.8984" height="22.8438" stroke="none"/>
      <text x="121.5191" font-size="16px" y="308.5826" clip-path="url(#clipPath2)" font-family="sans-serif" stroke="none" xml:space="preserve">schema:publisher</text>
      <path fill="none" d="M282.1469 100.3476 L282.1469 36.7017 L72.3641 36.7017" clip-path="url(#clipPath2)"/>
      <path d="M282.1469 108.3476 C279.9377 108.3476 278.1469 106.5568 278.1469 104.3476 C278.1469 102.1385 279.9377 100.3476 282.1469 100.3476 C284.356 100.3476 286.1469 102.1385 286.1469 104.3476 C286.1469 106.5568 284.356 108.3476 282.1469 108.3476 Z" clip-path="url(#clipPath2)" stroke="none"/>
      <path d="M61.3641 36.7017 L73.3641 42.7017 L73.3641 30.7017 Z" clip-path="url(#clipPath2)" stroke="none"/>
      <rect x="97.5703" y="25.2798" clip-path="url(#clipPath2)" fill="white" width="157.5156" height="22.8438" stroke="none"/>
      <text x="99.5703" font-size="16px" y="42.7486" clip-path="url(#clipPath2)" font-family="sans-serif" stroke="none" xml:space="preserve">schema:inLanguage</text>
      <path fill="none" d="M397.4143 180.7766 L397.4143 317.9135 L748.0355 317.9135" clip-path="url(#clipPath2)"/>
      <path d="M397.4143 172.7766 C399.6235 172.7766 401.4143 174.5675 401.4143 176.7766 C401.4143 178.9857 399.6235 180.7766 397.4143 180.7766 C395.2052 180.7766 393.4143 178.9857 393.4143 176.7766 C393.4143 174.5675 395.2052 172.7766 397.4143 172.7766 Z" clip-path="url(#clipPath2)" stroke="none"/>
      <path d="M759.0355 317.9135 L747.0355 311.9135 L747.0355 323.9135 Z" clip-path="url(#clipPath2)" stroke="none"/>
      <rect x="460.6302" y="306.4917" clip-path="url(#clipPath2)" fill="white" width="226.0703" height="22.8438" stroke="none"/>
      <text x="462.6302" font-size="16px" y="323.9604" clip-path="url(#clipPath2)" font-family="sans-serif" stroke="none" xml:space="preserve">schema:productionCompany</text>
      <path fill="none" d="M430.7469 180.7622 L430.7469 259.2914 L748.0499 259.2914" clip-path="url(#clipPath2)"/>
      <path d="M430.7469 172.7622 C432.9561 172.7622 434.7469 174.5531 434.7469 176.7622 C434.7469 178.9713 432.9561 180.7622 430.7469 180.7622 C428.5378 180.7622 426.7469 178.9713 426.7469 176.7622 C426.7469 174.5531 428.5378 172.7622 430.7469 172.7622 Z" clip-path="url(#clipPath2)" stroke="none"/>
      <path d="M759.0499 259.2914 L747.0499 253.2914 L747.0499 265.2914 Z" clip-path="url(#clipPath2)" stroke="none"/>
      <rect x="523.441" y="247.8695" clip-path="url(#clipPath2)" fill="white" width="133.7812" height="22.8438" stroke="none"/>
      <text x="525.441" font-size="16px" y="265.3382" clip-path="url(#clipPath2)" font-family="sans-serif" stroke="none" xml:space="preserve">schema:duration</text>
      <path fill="none" d="M452.7557 180.7984 L452.7557 200.6692 L748.0463 200.6692" clip-path="url(#clipPath2)"/>
      <path d="M452.7557 172.7984 C454.9648 172.7984 456.7557 174.5892 456.7557 176.7984 C456.7557 179.0075 454.9648 180.7984 452.7557 180.7984 C450.5465 180.7984 448.7557 179.0075 448.7557 176.7984 C448.7557 174.5892 450.5465 172.7984 452.7557 172.7984 Z" clip-path="url(#clipPath2)" stroke="none"/>
      <path d="M759.0463 200.6692 L747.0463 194.6692 L747.0463 206.6692 Z" clip-path="url(#clipPath2)" stroke="none"/>
      <rect x="536.9649" y="189.2473" clip-path="url(#clipPath2)" fill="white" width="128.7422" height="22.8438" stroke="none"/>
      <text x="538.9649" font-size="16px" y="206.7161" clip-path="url(#clipPath2)" font-family="sans-serif" stroke="none" xml:space="preserve">schema:director</text>
    </g>
    <g fill="rgb(210,210,210)" text-rendering="geometricPrecision" shape-rendering="geometricPrecision" transform="matrix(1,0,0,1,366,364) translate(4,4)" stroke="rgb(210,210,210)">
      <rect x="655.1398" width="272.8697" height="82.8105" y="-348.5942" clip-path="url(#clipPath3)" stroke="none"/>
    </g>
    <g fill="white" text-rendering="geometricPrecision" shape-rendering="geometricPrecision" transform="matrix(1,0,0,1,366,364)" stroke="white">
      <rect x="655.1398" width="272.8697" height="82.8105" y="-348.5942" clip-path="url(#clipPath2)" stroke="none"/>
      <rect x="655.1398" y="-348.5942" clip-path="url(#clipPath2)" fill="rgb(183,182,158)" width="272.8697" height="21.666" stroke="none"/>
    </g>
    <g font-size="15px" stroke-linecap="butt" transform="matrix(1,0,0,1,366,364)" text-rendering="geometricPrecision" font-family="sans-serif" shape-rendering="geometricPrecision" font-weight="bold" stroke-miterlimit="1.45">
      <text x="849.1418" xml:space="preserve" y="-332.0922" clip-path="url(#clipPath2)" stroke="none">Prefixes   </text>
      <rect fill="none" x="655.1398" width="272.8697" height="82.8105" y="-348.5942" clip-path="url(#clipPath2)"/>
      <text x="672.1398" xml:space="preserve" font-size="16px" y="-286.1586" clip-path="url(#clipPath2)" stroke="none">schema:</text>
      <text x="747.6055" font-size="16px" y="-286.1586" clip-path="url(#clipPath2)" stroke="none" font-weight="normal" xml:space="preserve">https://schema.org/</text>
    </g>
  </g>
</svg>
