<?xml version="1.0" encoding="UTF-8"?><svg xmlns="http://www.w3.org/2000/svg" xmlns:xlink="http://www.w3.org/1999/xlink" fill-opacity="1" color-rendering="auto" color-interpolation="auto" text-rendering="auto" stroke="black" stroke-linecap="square" width="876" stroke-miterlimit="10" shape-rendering="auto" stroke-opacity="1" fill="black" stroke-dasharray="none" font-weight="normal" stroke-width="1" height="636" font-family="'Dialog'" font-style="normal" stroke-linejoin="miter" font-size="12px" stroke-dashoffset="0" image-rendering="auto">
  <!--Generated by ySVG 2.5-->
  <defs id="genericDefs"/>
  <g>
    <defs id="defs1">
      <clipPath clipPathUnits="userSpaceOnUse" id="clipPath1">
        <path d="M0 0 L876 0 L876 636 L0 636 L0 0 Z"/>
      </clipPath>
      <clipPath clipPathUnits="userSpaceOnUse" id="clipPath2">
        <path d="M-146 -135 L1202 -135 L1202 843.6849 L-146 843.6849 L-146 -135 Z"/>
      </clipPath>
      <clipPath clipPathUnits="userSpaceOnUse" id="clipPath3">
        <path d="M-150 -139 L1198 -139 L1198 839.6849 L-150 839.6849 L-150 -139 Z"/>
      </clipPath>
    </defs>
    <g fill="yellow" text-rendering="geometricPrecision" shape-rendering="geometricPrecision" transform="matrix(0.6499,0,0,0.6499,94.8783,87.73)" stroke="yellow">
      <rect x="463.0159" y="311" clip-path="url(#clipPath2)" width="211.9682" rx="4" ry="4" height="44" stroke="none"/>
    </g>
    <g font-size="16px" stroke-linecap="butt" transform="matrix(0.6499,0,0,0.6499,94.8783,87.73)" text-rendering="geometricPrecision" font-family="sans-serif" shape-rendering="geometricPrecision" stroke-miterlimit="1.45">
      <text x="471.8789" xml:space="preserve" y="339.0469" clip-path="url(#clipPath2)" stroke="none">frbroo: F31_performance</text>
      <rect x="463.0159" y="311" clip-path="url(#clipPath2)" fill="none" width="211.9682" rx="4" ry="4" height="44"/>
    </g>
    <g fill="yellow" text-rendering="geometricPrecision" shape-rendering="geometricPrecision" transform="matrix(0.6499,0,0,0.6499,94.8783,87.73)" stroke="yellow">
      <rect x="938.907" y="115.2584" clip-path="url(#clipPath2)" width="252.6349" rx="4" ry="4" height="42" stroke="none"/>
    </g>
    <g font-size="16px" stroke-linecap="butt" transform="matrix(0.6499,0,0,0.6499,94.8783,87.73)" text-rendering="geometricPrecision" font-family="sans-serif" shape-rendering="geometricPrecision" stroke-miterlimit="1.45">
      <text x="948.8416" xml:space="preserve" y="142.3053" clip-path="url(#clipPath2)" stroke="none">frbroo: F25_performance plan</text>
      <rect x="938.907" y="115.2584" clip-path="url(#clipPath2)" fill="none" width="252.6349" rx="4" ry="4" height="42"/>
    </g>
    <g fill="yellow" text-rendering="geometricPrecision" shape-rendering="geometricPrecision" transform="matrix(0.6499,0,0,0.6499,94.8783,87.73)" stroke="yellow">
      <rect x="662.3544" y="19.4628" clip-path="url(#clipPath2)" width="138.9682" rx="4" ry="4" height="42" stroke="none"/>
    </g>
    <g font-size="16px" stroke-linecap="butt" transform="matrix(0.6499,0,0,0.6499,94.8783,87.73)" text-rendering="geometricPrecision" font-family="sans-serif" shape-rendering="geometricPrecision" stroke-miterlimit="1.45">
      <text x="673.1627" xml:space="preserve" y="46.5097" clip-path="url(#clipPath2)" stroke="none">crm: E53_place</text>
      <rect x="662.3544" y="19.4628" clip-path="url(#clipPath2)" fill="none" width="138.9682" rx="4" ry="4" height="42"/>
    </g>
    <g fill="yellow" text-rendering="geometricPrecision" shape-rendering="geometricPrecision" transform="matrix(0.6499,0,0,0.6499,94.8783,87.73)" stroke="yellow">
      <rect x="95.2551" y="59.5653" clip-path="url(#clipPath2)" width="155.9682" rx="4" ry="4" height="36" stroke="none"/>
    </g>
    <g font-size="16px" stroke-linecap="butt" transform="matrix(0.6499,0,0,0.6499,94.8783,87.73)" text-rendering="geometricPrecision" font-family="sans-serif" shape-rendering="geometricPrecision" stroke-miterlimit="1.45">
      <text x="97.0595" xml:space="preserve" y="83.6121" clip-path="url(#clipPath2)" stroke="none">crm:E52_time-span</text>
      <rect x="95.2551" y="59.5653" clip-path="url(#clipPath2)" fill="none" width="155.9682" rx="4" ry="4" height="36"/>
    </g>
    <g fill="yellow" text-rendering="geometricPrecision" shape-rendering="geometricPrecision" transform="matrix(0.6499,0,0,0.6499,94.8783,87.73)" stroke="yellow">
      <rect x="497.0159" y="558.9425" clip-path="url(#clipPath2)" width="143.9682" rx="4" ry="4" height="42" stroke="none"/>
    </g>
    <g font-size="16px" stroke-linecap="butt" transform="matrix(0.6499,0,0,0.6499,94.8783,87.73)" text-rendering="geometricPrecision" font-family="sans-serif" shape-rendering="geometricPrecision" stroke-miterlimit="1.45">
      <text x="507.4688" xml:space="preserve" y="585.9893" clip-path="url(#clipPath2)" stroke="none">crm: E74_group</text>
      <rect x="497.0159" y="558.9425" clip-path="url(#clipPath2)" fill="none" width="143.9682" rx="4" ry="4" height="42"/>
    </g>
    <g fill="yellow" text-rendering="geometricPrecision" shape-rendering="geometricPrecision" transform="matrix(0.6499,0,0,0.6499,94.8783,87.73)" stroke="yellow">
      <rect x="44.9793" y="475.4926" clip-path="url(#clipPath2)" width="141.9682" rx="4" ry="4" height="44" stroke="none"/>
    </g>
    <g font-size="16px" stroke-linecap="butt" transform="matrix(0.6499,0,0,0.6499,94.8783,87.73)" text-rendering="geometricPrecision" font-family="sans-serif" shape-rendering="geometricPrecision" stroke-miterlimit="1.45">
      <text x="63.0063" xml:space="preserve" y="503.5395" clip-path="url(#clipPath2)" stroke="none">crm:E35_Title</text>
      <rect x="44.9793" y="475.4926" clip-path="url(#clipPath2)" fill="none" width="141.9682" rx="4" ry="4" height="44"/>
    </g>
    <g fill="yellow" text-rendering="geometricPrecision" shape-rendering="geometricPrecision" transform="matrix(0.6499,0,0,0.6499,94.8783,87.73)" stroke="yellow">
      <rect x="634.0211" y="743.4547" clip-path="url(#clipPath2)" width="167.3016" rx="4" ry="4" height="44" stroke="none"/>
    </g>
    <g font-size="16px" stroke-linecap="butt" transform="matrix(0.6499,0,0,0.6499,94.8783,87.73)" text-rendering="geometricPrecision" font-family="sans-serif" shape-rendering="geometricPrecision" stroke-miterlimit="1.45">
      <text x="641.1172" xml:space="preserve" y="771.5016" clip-path="url(#clipPath2)" stroke="none">crm: E66_formation</text>
      <rect x="634.0211" y="743.4547" clip-path="url(#clipPath2)" fill="none" width="167.3016" rx="4" ry="4" height="44"/>
    </g>
    <g fill="yellow" text-rendering="geometricPrecision" shape-rendering="geometricPrecision" transform="matrix(0.6499,0,0,0.6499,94.8783,87.73)" stroke="yellow">
      <rect x="46.3429" y="311" clip-path="url(#clipPath2)" width="139.241" rx="4" ry="4" height="44" stroke="none"/>
    </g>
    <g font-size="16px" stroke-linecap="butt" transform="matrix(0.6499,0,0,0.6499,94.8783,87.73)" text-rendering="geometricPrecision" font-family="sans-serif" shape-rendering="geometricPrecision" stroke-miterlimit="1.45">
      <text x="58.5103" xml:space="preserve" y="339.0469" clip-path="url(#clipPath2)" stroke="none">frbroo:F5_Item</text>
      <rect x="46.3429" y="311" clip-path="url(#clipPath2)" fill="none" width="139.241" rx="4" ry="4" height="44"/>
    </g>
    <g fill="yellow" text-rendering="geometricPrecision" shape-rendering="geometricPrecision" transform="matrix(0.6499,0,0,0.6499,94.8783,87.73)" stroke="yellow">
      <rect x="-104.5423" y="237" clip-path="url(#clipPath2)" width="178.8189" rx="4" ry="4" height="44" stroke="none"/>
    </g>
    <g font-size="16px" stroke-linecap="butt" transform="matrix(0.6499,0,0,0.6499,94.8783,87.73)" text-rendering="geometricPrecision" font-family="sans-serif" shape-rendering="geometricPrecision" stroke-miterlimit="1.45">
      <text x="-93.9962" xml:space="preserve" y="265.0469" clip-path="url(#clipPath2)" stroke="none">crm: E54_dimension</text>
      <rect x="-104.5423" y="237" clip-path="url(#clipPath2)" fill="none" width="178.8189" rx="4" ry="4" height="44"/>
    </g>
    <g fill="yellow" text-rendering="geometricPrecision" shape-rendering="geometricPrecision" transform="matrix(0.6499,0,0,0.6499,94.8783,87.73)" stroke="yellow">
      <rect x="952.4161" y="311" clip-path="url(#clipPath2)" width="143.9682" rx="4" ry="4" height="44" stroke="none"/>
    </g>
    <g font-size="16px" stroke-linecap="butt" transform="matrix(0.6499,0,0,0.6499,94.8783,87.73)" text-rendering="geometricPrecision" font-family="sans-serif" shape-rendering="geometricPrecision" stroke-miterlimit="1.45">
      <text x="996.3417" xml:space="preserve" y="339.0469" clip-path="url(#clipPath2)" stroke="none">subject</text>
      <rect x="952.4161" y="311" clip-path="url(#clipPath2)" fill="none" width="143.9682" rx="4" ry="4" height="44"/>
    </g>
    <g fill="yellow" text-rendering="geometricPrecision" shape-rendering="geometricPrecision" transform="matrix(0.6499,0,0,0.6499,94.8783,87.73)" stroke="yellow">
      <rect x="1029.907" y="483.9425" clip-path="url(#clipPath2)" width="161.6349" rx="4" ry="4" height="44" stroke="none"/>
    </g>
    <g font-size="16px" stroke-linecap="butt" transform="matrix(0.6499,0,0,0.6499,94.8783,87.73)" text-rendering="geometricPrecision" font-family="sans-serif" shape-rendering="geometricPrecision" stroke-miterlimit="1.45">
      <text x="1052.4001" xml:space="preserve" y="511.9893" clip-path="url(#clipPath2)" stroke="none">crm: E4_period</text>
      <rect x="1029.907" y="483.9425" clip-path="url(#clipPath2)" fill="none" width="161.6349" rx="4" ry="4" height="44"/>
    </g>
    <g fill="yellow" text-rendering="geometricPrecision" shape-rendering="geometricPrecision" transform="matrix(0.6499,0,0,0.6499,94.8783,87.73)" stroke="yellow">
      <rect x="528.0159" y="93.1051" clip-path="url(#clipPath2)" width="81.9682" rx="4" ry="4" height="44" stroke="none"/>
    </g>
    <g font-size="16px" stroke-linecap="butt" transform="matrix(0.6499,0,0,0.6499,94.8783,87.73)" text-rendering="geometricPrecision" font-family="sans-serif" shape-rendering="geometricPrecision" stroke-miterlimit="1.45">
      <text x="541.5742" xml:space="preserve" y="121.1519" clip-path="url(#clipPath2)" stroke="none">creator</text>
      <rect x="528.0159" y="93.1051" clip-path="url(#clipPath2)" fill="none" width="81.9682" rx="4" ry="4" height="44"/>
    </g>
    <g fill="yellow" text-rendering="geometricPrecision" shape-rendering="geometricPrecision" transform="matrix(0.6499,0,0,0.6499,94.8783,87.73)" stroke="yellow">
      <rect x="861.0236" y="624.7639" clip-path="url(#clipPath2)" width="81.9682" rx="4" ry="4" height="44" stroke="none"/>
    </g>
    <g font-size="16px" stroke-linecap="butt" transform="matrix(0.6499,0,0,0.6499,94.8783,87.73)" text-rendering="geometricPrecision" font-family="sans-serif" shape-rendering="geometricPrecision" stroke-miterlimit="1.45">
      <text x="866.496" xml:space="preserve" y="652.8107" clip-path="url(#clipPath2)" stroke="none">language</text>
      <rect x="861.0236" y="624.7639" clip-path="url(#clipPath2)" fill="none" width="81.9682" rx="4" ry="4" height="44"/>
    </g>
    <g stroke-linecap="butt" transform="matrix(0.6499,0,0,0.6499,94.8783,87.73)" fill="navy" text-rendering="geometricPrecision" shape-rendering="geometricPrecision" stroke="navy" stroke-miterlimit="1.45">
      <path fill="none" d="M664.4352 309.4155 L1006.5191 161.6214" clip-path="url(#clipPath2)"/>
      <path d="M657.0913 312.5884 C656.2151 310.5604 657.1489 308.2062 659.1768 307.33 C661.2048 306.4538 663.559 307.3875 664.4352 309.4155 C665.3113 311.4435 664.3776 313.7977 662.3497 314.6739 C660.3217 315.5501 657.9675 314.6164 657.0913 312.5884 Z" clip-path="url(#clipPath2)" stroke="none"/>
      <path d="M1016.617 157.2588 L1003.2215 156.5101 L1007.9808 167.526 Z" clip-path="url(#clipPath2)" stroke="none"/>
      <rect x="720.2475" y="222.7073" clip-path="url(#clipPath2)" fill="white" width="236.8906" height="22.8438" stroke="none"/>
      <text x="722.2475" font-size="16px" y="240.1761" clip-path="url(#clipPath2)" font-family="sans-serif" stroke="none" xml:space="preserve">frbroo: R25_was performed in</text>
      <path fill="none" d="M633.3371 307.2395 L720.2857 71.7518" clip-path="url(#clipPath2)"/>
      <path d="M630.5661 314.7443 C628.4937 313.9791 627.434 311.6788 628.1992 309.6064 C628.9644 307.534 631.2647 306.4743 633.3371 307.2395 C635.4095 308.0047 636.4692 310.305 635.704 312.3774 C634.9388 314.4498 632.6385 315.5095 630.5661 314.7443 Z" clip-path="url(#clipPath2)" stroke="none"/>
      <path d="M724.0958 61.4328 L714.3107 70.6117 L725.5679 74.7682 Z" clip-path="url(#clipPath2)" stroke="none"/>
      <rect x="592.3448" y="174.8095" clip-path="url(#clipPath2)" fill="white" width="171.3438" height="22.8438" stroke="none"/>
      <text x="594.3448" font-size="16px" y="192.2783" clip-path="url(#clipPath2)" font-family="sans-serif" stroke="none" xml:space="preserve">crm: P7_took place at</text>
      <path fill="none" d="M779.6857 16.3994 L779.753 16.3254 L781.4146 14.1034 L784.4092 9.174 L786.9268 3.9478 L788.9373 -1.5451 L790.4105 -7.2747 L791.3165 -13.211 L791.6251 -19.3238 L791.3165 -25.4367 L790.4105 -31.3729 L788.9373 -37.1025 L786.9268 -42.5955 L784.4092 -47.8217 L781.4145 -52.7511 L777.9728 -57.3537 L774.114 -61.5994 L769.8683 -65.4581 L765.2657 -68.8998 L760.3364 -71.8945 L755.1102 -74.4121 L749.6172 -76.4226 L743.8876 -77.8958 L737.9513 -78.8018 L731.8385 -79.1104 L725.7256 -78.8018 L719.7894 -77.8958 L714.0598 -76.4225 L708.5668 -74.4121 L703.3406 -71.8945 L698.4112 -68.8998 L693.8087 -65.4581 L689.563 -61.5993 L685.7042 -57.3537 L682.2625 -52.7511 L679.2678 -47.8217 L676.7502 -42.5955 L674.7397 -37.1025 L673.2665 -31.3729 L672.3605 -25.4366 L672.0519 -19.3238 L672.3605 -13.211 L673.2665 -7.2747 L674.7397 -1.5451 L676.7502 3.9478 L679.2678 9.1741 L680.0601 10.4781 L680.1211 10.5573" clip-path="url(#clipPath2)"/>
      <path d="M774.7501 22.6954 C773.0115 21.3324 772.707 18.8181 774.0699 17.0796 C775.4329 15.341 777.9471 15.0365 779.6857 16.3994 C781.4243 17.7624 781.7288 20.2767 780.3658 22.0152 C779.0029 23.7538 776.4886 24.0583 774.7501 22.6954 Z" clip-path="url(#clipPath2)" stroke="none"/>
      <path d="M686.4551 19.5506 L684.4507 6.2848 L674.6398 13.1946 Z" clip-path="url(#clipPath2)" stroke="none"/>
      <rect x="641.0534" y="-45.8082" clip-path="url(#clipPath2)" fill="white" width="181.5703" height="22.8438" stroke="none"/>
      <text x="643.0533" font-size="16px" y="-28.3394" clip-path="url(#clipPath2)" font-family="sans-serif" stroke="none" xml:space="preserve">crm: P27_was origin of</text>
      <path fill="none" d="M531.9901 307.7349 L364.9978 77.5653 L262.188 77.5653" clip-path="url(#clipPath2)"/>
      <path d="M536.688 314.2102 C534.8999 315.5075 532.3987 315.1096 531.1014 313.3215 C529.8041 311.5334 530.202 309.0322 531.9901 307.7349 C533.7782 306.4376 536.2794 306.8355 537.5767 308.6236 C538.874 310.4117 538.4761 312.9129 536.688 314.2102 Z" clip-path="url(#clipPath2)" stroke="none"/>
      <path d="M251.188 77.5653 L263.188 83.5653 L263.188 71.5653 Z" clip-path="url(#clipPath2)" stroke="none"/>
      <rect x="356.7354" y="178.2983" clip-path="url(#clipPath2)" fill="white" width="179.2656" height="22.8438" stroke="none"/>
      <text x="358.7354" font-size="16px" y="195.767" clip-path="url(#clipPath2)" font-family="sans-serif" stroke="none" xml:space="preserve">crm: P4_has time span</text>
      <path fill="none" d="M569 358.9752 L569 547.9341" clip-path="url(#clipPath2)"/>
      <path d="M569 350.9752 C571.2092 350.9752 573 352.7661 573 354.9752 C573 357.1844 571.2092 358.9752 569 358.9752 C566.7908 358.9752 565 357.1844 565 354.9752 C565 352.7661 566.7908 350.9752 569 350.9752 Z" clip-path="url(#clipPath2)" stroke="none"/>
      <path d="M569 558.9341 L575 546.9341 L563 546.9341 Z" clip-path="url(#clipPath2)" stroke="none"/>
      <rect x="474.543" y="445.5494" clip-path="url(#clipPath2)" fill="white" width="188.9141" height="22.8438" stroke="none"/>
      <text x="476.543" font-size="16px" y="463.0181" clip-path="url(#clipPath2)" font-family="sans-serif" stroke="none" xml:space="preserve">crm: P14_carried out by</text>
      <path fill="none" d="M504.6565 356.3624 L186.8811 471.7431" clip-path="url(#clipPath2)"/>
      <path d="M512.1761 353.6321 C512.9301 355.7086 511.8579 358.0031 509.7815 358.7571 C507.705 359.511 505.4104 358.4389 504.6565 356.3624 C503.9025 354.2859 504.9746 351.9914 507.0511 351.2374 C509.1276 350.4835 511.4221 351.5556 512.1761 353.6321 Z" clip-path="url(#clipPath2)" stroke="none"/>
      <path d="M176.5416 475.4973 L189.8688 477.0416 L185.7734 465.7621 Z" clip-path="url(#clipPath2)" stroke="none"/>
      <rect x="263.1162" y="404.8435" clip-path="url(#clipPath2)" fill="white" width="153.1172" height="22.8438" stroke="none"/>
      <text x="265.1162" font-size="16px" y="422.3123" clip-path="url(#clipPath2)" font-family="sans-serif" stroke="none" xml:space="preserve">crm: P102_has title</text>
      <path fill="none" d="M645.0163 579.9424 L692.4135 579.9424 L719.4396 579.9424 L719.4396 617.9064 L718.0673 732.4457" clip-path="url(#clipPath2)"/>
      <path d="M637.0163 579.9424 C637.0163 577.7333 638.8071 575.9424 641.0163 575.9424 C643.2255 575.9424 645.0163 577.7333 645.0163 579.9424 C645.0163 582.1516 643.2255 583.9424 641.0163 583.9424 C638.8071 583.9424 637.0163 582.1516 637.0163 579.9424 Z" clip-path="url(#clipPath2)" stroke="none"/>
      <path d="M717.9355 743.4449 L724.0789 731.5177 L712.0797 731.3739 Z" clip-path="url(#clipPath2)" stroke="none"/>
      <rect x="621.2734" y="664.6962" clip-path="url(#clipPath2)" fill="white" width="194.9375" height="22.8438" stroke="none"/>
      <text x="623.2734" font-size="16px" y="682.1649" clip-path="url(#clipPath2)" font-family="sans-serif" stroke="none" xml:space="preserve">crm: P95_was formed by</text>
      <path fill="none" d="M189.5924 333 L451.9919 333" clip-path="url(#clipPath2)"/>
      <path d="M181.5924 333 C181.5924 330.7909 183.3833 329 185.5924 329 C187.8016 329 189.5924 330.7909 189.5924 333 C189.5924 335.2091 187.8016 337 185.5924 337 C183.3833 337 181.5924 335.2091 181.5924 333 Z" clip-path="url(#clipPath2)" stroke="none"/>
      <path d="M462.9919 333 L450.9919 327 L450.9919 339 Z" clip-path="url(#clipPath2)" stroke="none"/>
      <rect x="267.1592" y="321.5781" clip-path="url(#clipPath2)" fill="white" width="114.2812" height="22.8438" stroke="none"/>
      <text x="269.1592" font-size="16px" y="339.0469" clip-path="url(#clipPath2)" font-family="sans-serif" stroke="none" xml:space="preserve">dc:isVersionof</text>
      <path fill="none" d="M95.265 95.8038 L95.265 166.1989 L8.6927 166.1989 L8.6927 225.9967" clip-path="url(#clipPath2)"/>
      <path d="M95.265 87.8038 C97.4742 87.8038 99.265 89.5946 99.265 91.8038 C99.265 94.0129 97.4742 95.8038 95.265 95.8038 C93.0559 95.8038 91.265 94.0129 91.265 91.8038 C91.265 89.5946 93.0559 87.8038 95.265 87.8038 Z" clip-path="url(#clipPath2)" stroke="none"/>
      <path d="M8.6927 236.9967 L14.6927 224.9967 L2.6927 224.9967 Z" clip-path="url(#clipPath2)" stroke="none"/>
      <rect x="-43.3454" y="154.777" clip-path="url(#clipPath2)" fill="white" width="190.6484" height="22.8438" stroke="none"/>
      <text x="-41.3454" font-size="16px" y="172.2458" clip-path="url(#clipPath2)" font-family="sans-serif" stroke="none" xml:space="preserve">crm: P191_had duration</text>
      <path fill="none" d="M678.9839 333 L941.444 333" clip-path="url(#clipPath2)"/>
      <path d="M670.9839 333 C670.9839 330.7909 672.7748 329 674.9839 329 C677.1931 329 678.9839 330.7909 678.9839 333 C678.9839 335.2091 677.1931 337 674.9839 337 C672.7748 337 670.9839 335.2091 670.9839 333 Z" clip-path="url(#clipPath2)" stroke="none"/>
      <path d="M952.444 333 L940.444 327 L940.444 339 Z" clip-path="url(#clipPath2)" stroke="none"/>
      <rect x="771.9775" y="321.5781" clip-path="url(#clipPath2)" fill="white" width="83.4453" height="22.8438" stroke="none"/>
      <text x="773.9775" font-size="16px" y="339.0469" clip-path="url(#clipPath2)" font-family="sans-serif" stroke="none" xml:space="preserve">dc:subject</text>
      <path fill="none" d="M670.0155 356.5477 L1019.7134 501.7068" clip-path="url(#clipPath2)"/>
      <path d="M662.6268 353.4807 C663.4738 351.4403 665.8144 350.4729 667.8547 351.3198 C669.895 352.1668 670.8625 354.5074 670.0155 356.5477 C669.1686 358.5881 666.8279 359.5555 664.7876 358.7086 C662.7473 357.8616 661.7798 355.521 662.6268 353.4807 Z" clip-path="url(#clipPath2)" stroke="none"/>
      <path d="M1029.8728 505.9241 L1021.09 495.7819 L1016.4894 506.865 Z" clip-path="url(#clipPath2)" stroke="none"/>
      <rect x="742.5588" y="420.8523" clip-path="url(#clipPath2)" fill="white" width="219.7734" height="22.8438" stroke="none"/>
      <text x="744.5588" font-size="16px" y="438.3211" clip-path="url(#clipPath2)" font-family="sans-serif" stroke="none" xml:space="preserve">crm: P15_was influenced by</text>
      <path fill="none" d="M569 307.0031 L569 148.0575" clip-path="url(#clipPath2)"/>
      <path d="M569 315.0031 C566.7908 315.0031 565 313.2122 565 311.0031 C565 308.7939 566.7908 307.0031 569 307.0031 C571.2092 307.0031 573 308.7939 573 311.0031 C573 313.2122 571.2092 315.0031 569 315.0031 Z" clip-path="url(#clipPath2)" stroke="none"/>
      <path d="M569 137.0575 L563 149.0575 L575 149.0575 Z" clip-path="url(#clipPath2)" stroke="none"/>
      <rect x="527.9102" y="212.6307" clip-path="url(#clipPath2)" fill="white" width="82.1797" height="22.8438" stroke="none"/>
      <text x="529.9102" font-size="16px" y="230.0994" clip-path="url(#clipPath2)" font-family="sans-serif" stroke="none" xml:space="preserve">dc:creator</text>
      <path fill="none" d="M595.265 357.7471 L870.6605 617.2281" clip-path="url(#clipPath2)"/>
      <path d="M589.4423 352.261 C590.9573 350.6532 593.4888 350.5779 595.0967 352.0928 C596.7045 353.6077 596.7799 356.1393 595.265 357.7471 C593.75 359.355 591.2184 359.4303 589.6106 357.9154 C588.0027 356.4005 587.9274 353.8689 589.4423 352.261 Z" clip-path="url(#clipPath2)" stroke="none"/>
      <path d="M878.6665 624.7715 L874.0472 612.1754 L865.8181 620.9092 Z" clip-path="url(#clipPath2)" stroke="none"/>
      <rect x="686.3281" y="478.4601" clip-path="url(#clipPath2)" fill="white" width="98.3516" height="22.8438" stroke="none"/>
      <text x="688.3281" font-size="16px" y="495.9288" clip-path="url(#clipPath2)" font-family="sans-serif" stroke="none" xml:space="preserve">dc:language</text>
    </g>
    <g fill="rgb(210,210,210)" text-rendering="geometricPrecision" shape-rendering="geometricPrecision" transform="matrix(0.6499,0,0,0.6499,94.8783,87.73) translate(4,4)" stroke="rgb(210,210,210)">
      <rect x="-135.0859" width="671.1" height="123.3855" y="623.0684" clip-path="url(#clipPath3)" stroke="none"/>
    </g>
    <g fill="white" text-rendering="geometricPrecision" shape-rendering="geometricPrecision" transform="matrix(0.6499,0,0,0.6499,94.8783,87.73)" stroke="white">
      <rect x="-135.0859" width="671.1" height="123.3855" y="623.0684" clip-path="url(#clipPath2)" stroke="none"/>
      <rect x="-135.0859" y="623.0684" clip-path="url(#clipPath2)" fill="rgb(183,182,158)" width="671.1" height="21.666" stroke="none"/>
    </g>
    <g font-size="15px" stroke-linecap="butt" transform="matrix(0.6499,0,0,0.6499,94.8783,87.73)" text-rendering="geometricPrecision" font-family="sans-serif" shape-rendering="geometricPrecision" font-weight="bold" stroke-miterlimit="1.45">
      <text x="457.1464" xml:space="preserve" y="639.5703" clip-path="url(#clipPath2)" stroke="none">Prefixes   </text>
      <rect fill="none" x="-135.0859" width="671.1" height="123.3855" y="623.0684" clip-path="url(#clipPath2)"/>
      <text x="-118.0859" xml:space="preserve" font-size="16px" y="677.2031" clip-path="url(#clipPath2)" stroke="none">crm:</text>
      <text x="-118.0859" xml:space="preserve" font-size="16px" y="696.0469" clip-path="url(#clipPath2)" stroke="none">frbroo:</text>
      <text x="-118.0859" xml:space="preserve" font-size="16px" y="714.8906" clip-path="url(#clipPath2)" stroke="none">dc:</text>
      <text x="18.0844" font-size="16px" y="677.2031" clip-path="url(#clipPath2)" stroke="none" font-weight="normal" xml:space="preserve">http://www.cidoc-crm.org/Version/version-7.0.1/</text>
      <text x="18.0844" font-size="16px" y="696.0469" clip-path="url(#clipPath2)" stroke="none" font-weight="normal" xml:space="preserve">http://www.cidoc-crm.org/frbroo/ModelVersion/frbroo-v.-3.0/</text>
      <text x="18.0844" font-size="16px" y="714.8906" clip-path="url(#clipPath2)" stroke="none" font-weight="normal" xml:space="preserve">http://purl.org/dc/terms/</text>
    </g>
  </g>
</svg>
