<?xml version="1.0" encoding="UTF-8"?><svg xmlns="http://www.w3.org/2000/svg" xmlns:xlink="http://www.w3.org/1999/xlink" fill-opacity="1" color-rendering="auto" color-interpolation="auto" text-rendering="auto" stroke="black" stroke-linecap="square" width="876" stroke-miterlimit="10" shape-rendering="auto" stroke-opacity="1" fill="black" stroke-dasharray="none" font-weight="normal" stroke-width="1" height="564" font-family="'Dialog'" font-style="normal" stroke-linejoin="miter" font-size="12px" stroke-dashoffset="0" image-rendering="auto">
  <!--Generated by ySVG 2.5-->
  <defs id="genericDefs"/>
  <g>
    <defs id="defs1">
      <clipPath clipPathUnits="userSpaceOnUse" id="clipPath1">
        <path d="M0 0 L876 0 L876 564 L0 564 L0 0 Z"/>
      </clipPath>
      <clipPath clipPathUnits="userSpaceOnUse" id="clipPath2">
        <path d="M440 163 L2047 163 L2047 1197.6438 L440 1197.6438 L440 163 Z"/>
      </clipPath>
      <clipPath clipPathUnits="userSpaceOnUse" id="clipPath3">
        <path d="M436 159 L2043 159 L2043 1193.6438 L436 1193.6438 L436 159 Z"/>
      </clipPath>
    </defs>
    <g fill="yellow" text-rendering="geometricPrecision" shape-rendering="geometricPrecision" transform="matrix(0.5451,0,0,0.5451,-239.8507,-88.8538)" stroke="yellow">
      <rect x="1671.7145" y="526" clip-path="url(#clipPath2)" width="319.0972" rx="4" ry="4" height="44" stroke="none"/>
    </g>
    <g font-size="16px" stroke-linecap="butt" transform="matrix(0.5451,0,0,0.5451,-239.8507,-88.8538)" text-rendering="geometricPrecision" font-family="sans-serif" shape-rendering="geometricPrecision" stroke-miterlimit="1.45">
      <text x="1681.9467" xml:space="preserve" y="554.0469" clip-path="url(#clipPath2)" stroke="none">frbroo:F3_Manifestation_Product_Type</text>
      <rect x="1671.7145" y="526" clip-path="url(#clipPath2)" fill="none" width="319.0972" rx="4" ry="4" height="44"/>
    </g>
    <g fill="yellow" text-rendering="geometricPrecision" shape-rendering="geometricPrecision" transform="matrix(0.5451,0,0,0.5451,-239.8507,-88.8538)" stroke="yellow">
      <rect x="1411.4649" y="526" clip-path="url(#clipPath2)" width="141.0703" rx="4" ry="4" height="44" stroke="none"/>
    </g>
    <g font-size="16px" stroke-linecap="butt" transform="matrix(0.5451,0,0,0.5451,-239.8507,-88.8538)" text-rendering="geometricPrecision" font-family="sans-serif" shape-rendering="geometricPrecision" stroke-miterlimit="1.45">
      <text x="1429.043" xml:space="preserve" y="554.0469" clip-path="url(#clipPath2)" stroke="none">crm:E35_Title</text>
      <rect x="1411.4649" y="526" clip-path="url(#clipPath2)" fill="none" width="141.0703" rx="4" ry="4" height="44"/>
    </g>
    <g fill="yellow" text-rendering="geometricPrecision" shape-rendering="geometricPrecision" transform="matrix(0.5451,0,0,0.5451,-239.8507,-88.8538)" stroke="yellow">
      <rect x="1491.6426" y="766" clip-path="url(#clipPath2)" width="139.241" rx="4" ry="4" height="44" stroke="none"/>
    </g>
    <g font-size="16px" stroke-linecap="butt" transform="matrix(0.5451,0,0,0.5451,-239.8507,-88.8538)" text-rendering="geometricPrecision" font-family="sans-serif" shape-rendering="geometricPrecision" stroke-miterlimit="1.45">
      <text x="1503.8099" xml:space="preserve" y="794.0469" clip-path="url(#clipPath2)" stroke="none">frbroo:F5_Item</text>
      <rect x="1491.6426" y="766" clip-path="url(#clipPath2)" fill="none" width="139.241" rx="4" ry="4" height="44" stroke-width="2"/>
    </g>
    <g fill="yellow" text-rendering="geometricPrecision" shape-rendering="geometricPrecision" transform="matrix(0.5451,0,0,0.5451,-239.8507,-88.8538)" stroke="yellow">
      <rect x="1865.5921" y="826" clip-path="url(#clipPath2)" width="171.342" rx="4" ry="4" height="44" stroke="none"/>
    </g>
    <g font-size="16px" stroke-linecap="butt" transform="matrix(0.5451,0,0,0.5451,-239.8507,-88.8538)" text-rendering="geometricPrecision" font-family="sans-serif" shape-rendering="geometricPrecision" stroke-miterlimit="1.45">
      <text x="1873.974" xml:space="preserve" y="854.0469" clip-path="url(#clipPath2)" stroke="none">crm:E54_Dimension</text>
      <rect x="1865.5921" y="826" clip-path="url(#clipPath2)" fill="none" width="171.342" rx="4" ry="4" height="44"/>
    </g>
    <g fill="yellow" text-rendering="geometricPrecision" shape-rendering="geometricPrecision" transform="matrix(0.5451,0,0,0.5451,-239.8507,-88.8538)" stroke="yellow">
      <rect x="973.2486" y="526" clip-path="url(#clipPath2)" width="236.9313" rx="4" ry="4" height="44" stroke="none"/>
    </g>
    <g font-size="16px" stroke-linecap="butt" transform="matrix(0.5451,0,0,0.5451,-239.8507,-88.8538)" text-rendering="geometricPrecision" font-family="sans-serif" shape-rendering="geometricPrecision" stroke-miterlimit="1.45">
      <text x="984.8823" xml:space="preserve" y="554.0469" clip-path="url(#clipPath2)" stroke="none">frbroo:F11_Corporate_Body</text>
      <rect x="973.2486" y="526" clip-path="url(#clipPath2)" fill="none" width="236.9313" rx="4" ry="4" height="44"/>
    </g>
    <g fill="yellow" text-rendering="geometricPrecision" shape-rendering="geometricPrecision" transform="matrix(0.5451,0,0,0.5451,-239.8507,-88.8538)" stroke="yellow">
      <rect x="1760.779" y="1001.8275" clip-path="url(#clipPath2)" width="140.9682" rx="4" ry="4" height="52.3451" stroke="none"/>
    </g>
    <g font-size="16px" stroke-linecap="butt" transform="matrix(0.5451,0,0,0.5451,-239.8507,-88.8538)" text-rendering="geometricPrecision" font-family="sans-serif" shape-rendering="geometricPrecision" stroke-miterlimit="1.45">
      <text x="1764.3646" xml:space="preserve" y="1034.0469" clip-path="url(#clipPath2)" stroke="none">crm:E57_Material</text>
      <rect x="1760.779" y="1001.8275" clip-path="url(#clipPath2)" fill="none" width="140.9682" rx="4" ry="4" height="52.3451"/>
    </g>
    <g fill="yellow" text-rendering="geometricPrecision" shape-rendering="geometricPrecision" transform="matrix(0.5451,0,0,0.5451,-239.8507,-88.8538)" stroke="yellow">
      <rect x="1443.5576" y="377.7631" clip-path="url(#clipPath2)" width="196.3133" rx="4" ry="4" height="40.4739" stroke="none"/>
    </g>
    <g font-size="16px" stroke-linecap="butt" transform="matrix(0.5451,0,0,0.5451,-239.8507,-88.8538)" text-rendering="geometricPrecision" font-family="sans-serif" shape-rendering="geometricPrecision" stroke-miterlimit="1.45">
      <text x="1459.1283" xml:space="preserve" y="404.0469" clip-path="url(#clipPath2)" stroke="none">frbroo:F2_Expression</text>
      <rect x="1443.5576" y="377.7631" clip-path="url(#clipPath2)" fill="none" width="196.3133" rx="4" ry="4" height="40.4739"/>
    </g>
    <g fill="yellow" text-rendering="geometricPrecision" shape-rendering="geometricPrecision" transform="matrix(0.5451,0,0,0.5451,-239.8507,-88.8538)" stroke="yellow">
      <rect x="731.8363" y="286" clip-path="url(#clipPath2)" width="643.8741" rx="4" ry="4" height="44" stroke="none"/>
    </g>
    <g font-size="16px" stroke-linecap="butt" transform="matrix(0.5451,0,0,0.5451,-239.8507,-88.8538)" text-rendering="geometricPrecision" font-family="sans-serif" shape-rendering="geometricPrecision" stroke-miterlimit="1.45">
      <text x="747.0428" xml:space="preserve" y="314.0469" clip-path="url(#clipPath2)" stroke="none">crm:E12_Production /frbroo:F28_Expression_Creation [F_30_Publication_Event]</text>
      <rect x="731.8363" y="286" clip-path="url(#clipPath2)" fill="none" width="643.8741" rx="4" ry="4" height="44"/>
    </g>
    <g fill="yellow" text-rendering="geometricPrecision" shape-rendering="geometricPrecision" transform="matrix(0.5451,0,0,0.5451,-239.8507,-88.8538)" stroke="yellow">
      <rect x="590.7279" y="676" clip-path="url(#clipPath2)" width="141.0703" rx="4" ry="4" height="44" stroke="none"/>
    </g>
    <g font-size="16px" stroke-linecap="butt" transform="matrix(0.5451,0,0,0.5451,-239.8507,-88.8538)" text-rendering="geometricPrecision" font-family="sans-serif" shape-rendering="geometricPrecision" stroke-miterlimit="1.45">
      <text x="605.7318" xml:space="preserve" y="704.0469" clip-path="url(#clipPath2)" stroke="none">crm:E53_Place</text>
      <rect x="590.7279" y="676" clip-path="url(#clipPath2)" fill="none" width="141.0703" rx="4" ry="4" height="44"/>
    </g>
    <g fill="yellow" text-rendering="geometricPrecision" shape-rendering="geometricPrecision" transform="matrix(0.5451,0,0,0.5451,-239.8507,-88.8538)" stroke="yellow">
      <rect x="461.4639" y="407.1262" clip-path="url(#clipPath2)" width="181.0723" rx="4" ry="4" height="41.7476" stroke="none"/>
    </g>
    <g font-size="16px" stroke-linecap="butt" transform="matrix(0.5451,0,0,0.5451,-239.8507,-88.8538)" text-rendering="geometricPrecision" font-family="sans-serif" shape-rendering="geometricPrecision" stroke-miterlimit="1.45">
      <text x="473.5234" xml:space="preserve" y="434.0469" clip-path="url(#clipPath2)" stroke="none">crm:E52_Time-Span</text>
      <rect x="461.4639" y="407.1262" clip-path="url(#clipPath2)" fill="none" width="181.0723" rx="4" ry="4" height="41.7476"/>
    </g>
    <g fill="yellow" text-rendering="geometricPrecision" shape-rendering="geometricPrecision" transform="matrix(0.5451,0,0,0.5451,-239.8507,-88.8538)" stroke="yellow">
      <rect x="1047.6974" y="1024.4124" clip-path="url(#clipPath2)" width="268.9913" rx="4" ry="4" height="51.1752" stroke="none"/>
    </g>
    <g font-size="16px" stroke-linecap="butt" transform="matrix(0.5451,0,0,0.5451,-239.8507,-88.8538)" text-rendering="geometricPrecision" font-family="sans-serif" shape-rendering="geometricPrecision" stroke-miterlimit="1.45">
      <text x="1059.5251" xml:space="preserve" y="1056.0469" clip-path="url(#clipPath2)" stroke="none">crm:E55_Type="Commissioner"</text>
      <rect x="1047.6974" y="1024.4124" clip-path="url(#clipPath2)" fill="none" width="268.9913" rx="4" ry="4" height="51.1752"/>
    </g>
    <g fill="yellow" text-rendering="geometricPrecision" shape-rendering="geometricPrecision" transform="matrix(0.5451,0,0,0.5451,-239.8507,-88.8538)" stroke="yellow">
      <rect x="1478.3566" y="1028" clip-path="url(#clipPath2)" width="163.2867" rx="4" ry="4" height="44" stroke="none"/>
    </g>
    <g font-size="16px" stroke-linecap="butt" transform="matrix(0.5451,0,0,0.5451,-239.8507,-88.8538)" text-rendering="geometricPrecision" font-family="sans-serif" shape-rendering="geometricPrecision" stroke-miterlimit="1.45">
      <text x="1481.5234" xml:space="preserve" y="1056.0469" clip-path="url(#clipPath2)" stroke="none">crm:E52_Time-Span</text>
      <rect x="1478.3566" y="1028" clip-path="url(#clipPath2)" fill="none" width="163.2867" rx="4" ry="4" height="44"/>
    </g>
    <g fill="yellow" text-rendering="geometricPrecision" shape-rendering="geometricPrecision" transform="matrix(0.5451,0,0,0.5451,-239.8507,-88.8538)" stroke="yellow">
      <rect x="1766.2945" y="293.755" clip-path="url(#clipPath2)" width="127.4109" rx="4" ry="4" height="44" stroke="none"/>
    </g>
    <g font-size="16px" stroke-linecap="butt" transform="matrix(0.5451,0,0,0.5451,-239.8507,-88.8538)" text-rendering="geometricPrecision" font-family="sans-serif" shape-rendering="geometricPrecision" stroke-miterlimit="1.45">
      <text x="1775.4453" xml:space="preserve" y="321.8018" clip-path="url(#clipPath2)" stroke="none">crm:E55_Type</text>
      <rect x="1766.2945" y="293.755" clip-path="url(#clipPath2)" fill="none" width="127.4109" rx="4" ry="4" height="44"/>
    </g>
    <g stroke-linecap="butt" transform="matrix(0.5451,0,0,0.5451,-239.8507,-88.8538)" fill="navy" text-rendering="geometricPrecision" shape-rendering="geometricPrecision" stroke="navy" stroke-miterlimit="1.45">
      <path fill="none" d="M1589.0049 763.3406 L1798.2833 577.3154" clip-path="url(#clipPath2)"/>
      <path d="M1583.0256 768.6555 C1581.558 767.0044 1581.7067 764.4761 1583.3578 763.0084 C1585.0089 761.5408 1587.5372 761.6895 1589.0049 763.3406 C1590.4725 764.9917 1590.3239 767.52 1588.6727 768.9877 C1587.0216 770.4553 1584.4933 770.3066 1583.0256 768.6555 Z" clip-path="url(#clipPath2)" stroke="none"/>
      <path d="M1806.5048 570.0073 L1793.5497 573.4953 L1801.5221 582.4642 Z" clip-path="url(#clipPath2)" stroke="none"/>
      <rect x="1597.9623" y="656.5781" clip-path="url(#clipPath2)" fill="white" width="196.6016" height="22.8438" stroke="none"/>
      <text x="1599.9623" font-size="16px" y="674.0469" clip-path="url(#clipPath2)" font-family="sans-serif" stroke="none" xml:space="preserve">frbroo:R7_is_example_of</text>
      <path fill="none" d="M1552.7422 762.1998 L1492.7179 580.4525" clip-path="url(#clipPath2)"/>
      <path d="M1555.2512 769.7961 C1553.1536 770.489 1550.8914 769.3502 1550.1985 767.2525 C1549.5056 765.1548 1550.6445 762.8926 1552.7422 762.1998 C1554.8398 761.507 1557.1021 762.6458 1557.7949 764.7435 C1558.4878 766.8412 1557.3489 769.1033 1555.2512 769.7961 Z" clip-path="url(#clipPath2)" stroke="none"/>
      <path d="M1489.2682 570.0074 L1487.3342 583.2837 L1498.7288 579.5203 Z" clip-path="url(#clipPath2)" stroke="none"/>
      <rect x="1446.1354" y="656.5781" clip-path="url(#clipPath2)" fill="white" width="150.9922" height="22.8438" stroke="none"/>
      <text x="1448.1355" font-size="16px" y="674.0469" clip-path="url(#clipPath2)" font-family="sans-serif" stroke="none" xml:space="preserve">crm:P102_has_title</text>
      <path fill="none" d="M1634.8662 799.3235 L1854.7113 833.1459" clip-path="url(#clipPath2)"/>
      <path d="M1626.9592 798.1071 C1627.2952 795.9236 1629.3375 794.426 1631.5209 794.7618 C1633.7043 795.0978 1635.2021 797.1401 1634.8662 799.3235 C1634.5303 801.507 1632.4879 803.0047 1630.3046 802.6688 C1628.1211 802.3329 1626.6233 800.2906 1626.9592 798.1071 Z" clip-path="url(#clipPath2)" stroke="none"/>
      <path d="M1865.5834 834.8185 L1854.6353 827.0636 L1852.8105 838.9241 Z" clip-path="url(#clipPath2)" stroke="none"/>
      <rect x="1652.3589" y="805.3435" clip-path="url(#clipPath2)" fill="white" width="191.7578" height="22.8438" stroke="none"/>
      <text x="1654.3589" font-size="16px" y="822.8122" clip-path="url(#clipPath2)" font-family="sans-serif" stroke="none" xml:space="preserve">crm:P43_has_dimension</text>
      <path fill="none" d="M1514.6842 764.1922 L1144.5422 575.0019" clip-path="url(#clipPath2)"/>
      <path d="M1521.8077 767.8332 C1520.8022 769.8002 1518.3926 770.5798 1516.4255 769.5744 C1514.4584 768.569 1513.6788 766.1593 1514.6842 764.1922 C1515.6897 762.2252 1518.0994 761.4456 1520.0664 762.451 C1522.0336 763.4564 1522.8131 765.8661 1521.8077 767.8332 Z" clip-path="url(#clipPath2)" stroke="none"/>
      <path d="M1134.7476 569.9955 L1142.7019 580.7996 L1148.1635 570.1144 Z" clip-path="url(#clipPath2)" stroke="none"/>
      <rect x="1208.7387" y="656.5781" clip-path="url(#clipPath2)" fill="white" width="235.5" height="22.8438" stroke="none"/>
      <text x="1210.7386" font-size="16px" y="674.0469" clip-path="url(#clipPath2)" font-family="sans-serif" stroke="none" xml:space="preserve">crm:P_50_has_current_keeper</text>
      <path fill="none" d="M1589.0049 812.6594 L1793.613 994.5333" clip-path="url(#clipPath2)"/>
      <path d="M1583.0256 807.3445 C1584.4933 805.6934 1587.0216 805.5447 1588.6727 807.0123 C1590.3239 808.48 1590.4725 811.0083 1589.0049 812.6594 C1587.5372 814.3105 1585.0089 814.4592 1583.3578 812.9916 C1581.7067 811.5239 1581.558 808.9956 1583.0256 807.3445 Z" clip-path="url(#clipPath2)" stroke="none"/>
      <path d="M1801.8346 1001.8413 L1796.8518 989.3845 L1788.8795 998.3535 Z" clip-path="url(#clipPath2)" stroke="none"/>
      <rect x="1626.9395" y="894.4919" clip-path="url(#clipPath2)" fill="white" width="133.9531" height="22.8438" stroke="none"/>
      <text x="1628.9395" font-size="16px" y="911.9606" clip-path="url(#clipPath2)" font-family="sans-serif" stroke="none" xml:space="preserve">crm:P2_has_type</text>
      <path fill="none" d="M1584.3225 420.0731 L1779.0236 520.9374" clip-path="url(#clipPath2)"/>
      <path d="M1577.2192 416.3932 C1578.2354 414.4316 1580.6493 413.6653 1582.6108 414.6814 C1584.5724 415.6976 1585.3387 418.1115 1584.3225 420.0731 C1583.3064 422.0346 1580.8925 422.801 1578.9309 421.7848 C1576.9694 420.7686 1576.203 418.3547 1577.2192 416.3932 Z" clip-path="url(#clipPath2)" stroke="none"/>
      <path d="M1788.7908 525.9974 L1780.8956 515.15 L1775.3757 525.805 Z" clip-path="url(#clipPath2)" stroke="none"/>
      <rect x="1561.1855" y="460.6966" clip-path="url(#clipPath2)" fill="white" width="247.2031" height="22.8438" stroke="none"/>
      <text x="1563.1854" font-size="16px" y="478.1653" clip-path="url(#clipPath2)" font-family="sans-serif" stroke="none" xml:space="preserve">frbroo:R4_carriers_provided_by</text>
      <path fill="none" d="M1173.8655 330.8263 L1432.7865 385.1477" clip-path="url(#clipPath2)"/>
      <path d="M1166.0359 329.1836 C1166.4895 327.0215 1168.61 325.6366 1170.772 326.0902 C1172.9341 326.5438 1174.3191 328.6642 1173.8655 330.8263 C1173.4119 332.9883 1171.2914 334.3733 1169.1294 333.9197 C1166.9673 333.4661 1165.5823 331.3457 1166.0359 329.1836 Z" clip-path="url(#clipPath2)" stroke="none"/>
      <path d="M1443.5521 387.4063 L1433.0398 379.0702 L1430.5758 390.8145 Z" clip-path="url(#clipPath2)" stroke="none"/>
      <rect x="1247.1378" y="350.8872" clip-path="url(#clipPath2)" fill="white" width="153.5781" height="22.8438" stroke="none"/>
      <text x="1249.1378" font-size="16px" y="368.3559" clip-path="url(#clipPath2)" font-family="sans-serif" stroke="none" xml:space="preserve">frbroo:R17_created</text>
      <path fill="none" d="M1057.8761 333.9529 L1086.5176 515.1276" clip-path="url(#clipPath2)"/>
      <path d="M1056.6271 326.051 C1058.8091 325.7061 1060.8577 327.1954 1061.2025 329.3774 C1061.5475 331.5594 1060.0581 333.608 1057.8761 333.9529 C1055.6941 334.2978 1053.6455 332.8085 1053.3007 330.6264 C1052.9557 328.4444 1054.4451 326.3959 1056.6271 326.051 Z" clip-path="url(#clipPath2)" stroke="none"/>
      <path d="M1088.2352 525.9926 L1092.2878 513.2029 L1080.4351 515.0767 Z" clip-path="url(#clipPath2)" stroke="none"/>
      <rect x="973.8805" y="416.5781" clip-path="url(#clipPath2)" fill="white" width="197.7266" height="22.8438" stroke="none"/>
      <text x="975.8805" font-size="16px" y="434.0469" clip-path="url(#clipPath2)" font-family="sans-serif" stroke="none" xml:space="preserve">crm:P_14_carried_out_by</text>
      <path fill="none" d="M1024.8038 571.3164 L734.8281 672.3647" clip-path="url(#clipPath2)"/>
      <path d="M1032.3583 568.6838 C1033.0852 570.77 1031.9834 573.0504 1029.8973 573.7773 C1027.8113 574.5043 1025.5308 573.4025 1024.8038 571.3164 C1024.0769 569.2303 1025.1787 566.9499 1027.2648 566.2229 C1029.3508 565.4959 1031.6313 566.5977 1032.3583 568.6838 Z" clip-path="url(#clipPath2)" stroke="none"/>
      <path d="M724.4407 675.9844 L737.7468 677.7015 L733.798 666.3698 Z" clip-path="url(#clipPath2)" stroke="none"/>
      <rect x="704.6165" y="613.261" clip-path="url(#clipPath2)" fill="white" width="334.0859" height="22.8438" stroke="none"/>
      <text x="706.6165" font-size="16px" y="630.7297" clip-path="url(#clipPath2)" font-family="sans-serif" stroke="none" xml:space="preserve">crm:P74_has_current_or_former_residence</text>
      <path fill="none" d="M1028.7756 332.8378 L691.1959 668.2587" clip-path="url(#clipPath2)"/>
      <path d="M1034.4507 327.1992 C1036.0077 328.7663 1035.9996 331.2989 1034.4325 332.856 C1032.8654 334.413 1030.3328 334.4049 1028.7756 332.8378 C1027.2186 331.2707 1027.2267 328.738 1028.7938 327.181 C1030.361 325.6239 1032.8936 325.632 1034.4507 327.1992 Z" clip-path="url(#clipPath2)" stroke="none"/>
      <path d="M683.3928 676.0118 L696.1342 671.8101 L687.6762 663.2976 Z" clip-path="url(#clipPath2)" stroke="none"/>
      <rect x="771.4401" y="491.5781" clip-path="url(#clipPath2)" fill="white" width="172.1562" height="22.8438" stroke="none"/>
      <text x="773.4401" font-size="16px" y="509.0469" clip-path="url(#clipPath2)" font-family="sans-serif" stroke="none" xml:space="preserve">crm:P7_took_place_at</text>
      <path fill="none" d="M1487.6571 780.6394 L742.7325 706.147" clip-path="url(#clipPath2)"/>
      <path d="M1495.6173 781.4354 C1495.3976 783.6336 1493.4374 785.2374 1491.2391 785.0176 C1489.041 784.7977 1487.4373 782.8376 1487.6571 780.6394 C1487.8768 778.4412 1489.837 776.8375 1492.0353 777.0573 C1494.2334 777.2771 1495.8372 779.2372 1495.6173 781.4354 Z" clip-path="url(#clipPath2)" stroke="none"/>
      <path d="M731.7871 705.0524 L743.1306 712.2167 L744.3246 700.2762 Z" clip-path="url(#clipPath2)" stroke="none"/>
      <rect x="947.3688" y="731.6239" clip-path="url(#clipPath2)" fill="white" width="328.7031" height="22.8438" stroke="none"/>
      <text x="949.3688" font-size="16px" y="749.0926" clip-path="url(#clipPath2)" font-family="sans-serif" stroke="none" xml:space="preserve">crm:P54_has_current_permanent_location</text>
      <path fill="none" d="M957.9137 330.925 L649.8167 404.607" clip-path="url(#clipPath2)"/>
      <path d="M965.6943 329.0643 C966.2081 331.2128 964.8829 333.3711 962.7344 333.8849 C960.5858 334.3987 958.4276 333.0735 957.9137 330.925 C957.3999 328.7764 958.7251 326.6181 960.8737 326.1043 C963.0222 325.5905 965.1805 326.9157 965.6943 329.0643 Z" clip-path="url(#clipPath2)" stroke="none"/>
      <path d="M639.1184 407.1655 L652.1849 410.2098 L649.3937 398.5389 Z" clip-path="url(#clipPath2)" stroke="none"/>
      <rect x="696.9755" y="360.2236" clip-path="url(#clipPath2)" fill="white" width="181.3359" height="22.8438" stroke="none"/>
      <text x="698.9755" font-size="16px" y="377.6923" clip-path="url(#clipPath2)" font-family="sans-serif" stroke="none" xml:space="preserve">crm:P4_has_time-span</text>
      <path fill="none" d="M1526.1598 812.2622 L1228.2695 1018.1536" clip-path="url(#clipPath2)"/>
      <path d="M1532.7408 807.7136 C1533.9969 809.5309 1533.5419 812.0224 1531.7246 813.2784 C1529.9073 814.5345 1527.4159 814.0795 1526.1598 812.2622 C1524.9037 810.4449 1525.3588 807.9534 1527.176 806.6974 C1528.9933 805.4413 1531.4847 805.8963 1532.7408 807.7136 Z" clip-path="url(#clipPath2)" stroke="none"/>
      <path d="M1219.2206 1024.4078 L1232.5037 1022.5208 L1225.6808 1012.6492 Z" clip-path="url(#clipPath2)" stroke="none"/>
      <rect x="1265.4289" y="896.3625" clip-path="url(#clipPath2)" fill="white" width="217.7891" height="41.6875" stroke="none"/>
      <text x="1278.9288" font-size="16px" y="913.8312" clip-path="url(#clipPath2)" font-family="sans-serif" stroke="none" xml:space="preserve">crm:P14_carried_out_by </text>
      <text x="1267.4288" font-size="16px" y="932.675" clip-path="url(#clipPath2)" font-family="sans-serif" stroke="none" xml:space="preserve">&gt; crm:P14.1_in_the_role_of</text>
      <path fill="none" d="M1560 814.0294 L1560 1017.0007" clip-path="url(#clipPath2)"/>
      <path d="M1560 806.0294 C1562.2091 806.0294 1564 807.8203 1564 810.0294 C1564 812.2386 1562.2091 814.0294 1560 814.0294 C1557.7909 814.0294 1556 812.2386 1556 810.0294 C1556 807.8203 1557.7909 806.0294 1560 806.0294 Z" clip-path="url(#clipPath2)" stroke="none"/>
      <path d="M1560 1028.0007 L1566 1016.0007 L1554 1016.0007 Z" clip-path="url(#clipPath2)" stroke="none"/>
      <rect x="1495.3359" y="907.5781" clip-path="url(#clipPath2)" fill="white" width="129.3281" height="22.8438" stroke="none"/>
      <text x="1497.3359" font-size="16px" y="925.0469" clip-path="url(#clipPath2)" font-family="sans-serif" stroke="none" xml:space="preserve">dcterms:created</text>
      <path fill="none" d="M1379.7007 311.2562 L1755.3088 315.0088" clip-path="url(#clipPath2)"/>
      <path d="M1371.7012 311.1763 C1371.7231 308.9673 1373.5319 307.1944 1375.7408 307.2165 C1377.95 307.2385 1379.7228 309.0472 1379.7007 311.2562 C1379.6787 313.4652 1377.87 315.2381 1375.661 315.216 C1373.4519 315.194 1371.6791 313.3853 1371.7012 311.1763 Z" clip-path="url(#clipPath2)" stroke="none"/>
      <path d="M1766.3083 315.1187 L1754.3689 308.9991 L1754.249 320.9985 Z" clip-path="url(#clipPath2)" stroke="none"/>
      <rect x="1439.4399" y="301.7456" clip-path="url(#clipPath2)" fill="white" width="263.125" height="22.8438" stroke="none"/>
      <text x="1441.4399" font-size="16px" y="319.2143" clip-path="url(#clipPath2)" font-family="sans-serif" stroke="none" xml:space="preserve">crm:P32_used_general_technique</text>
    </g>
    <g fill="rgb(210,210,210)" text-rendering="geometricPrecision" shape-rendering="geometricPrecision" transform="matrix(0.5451,0,0,0.5451,-239.8507,-88.8538) translate(4,4)" stroke="rgb(210,210,210)">
      <rect x="450.1766" width="678.3969" height="123.3855" y="838.6625" clip-path="url(#clipPath3)" stroke="none"/>
    </g>
    <g fill="white" text-rendering="geometricPrecision" shape-rendering="geometricPrecision" transform="matrix(0.5451,0,0,0.5451,-239.8507,-88.8538)" stroke="white">
      <rect x="450.1766" width="678.3969" height="123.3855" y="838.6625" clip-path="url(#clipPath2)" stroke="none"/>
      <rect x="450.1766" y="838.6625" clip-path="url(#clipPath2)" fill="rgb(183,182,158)" width="678.3969" height="21.666" stroke="none"/>
    </g>
    <g font-size="15px" stroke-linecap="butt" transform="matrix(0.5451,0,0,0.5451,-239.8507,-88.8538)" text-rendering="geometricPrecision" font-family="sans-serif" shape-rendering="geometricPrecision" font-weight="bold" stroke-miterlimit="1.45">
      <text x="1049.7058" xml:space="preserve" y="855.1644" clip-path="url(#clipPath2)" stroke="none">Prefixes   </text>
      <rect fill="none" x="450.1766" width="678.3969" height="123.3855" y="838.6625" clip-path="url(#clipPath2)"/>
      <text x="467.1766" xml:space="preserve" font-size="16px" y="892.7972" clip-path="url(#clipPath2)" stroke="none">crm:</text>
      <text x="467.1766" xml:space="preserve" font-size="16px" y="911.641" clip-path="url(#clipPath2)" stroke="none">frbroo:</text>
      <text x="467.1766" xml:space="preserve" font-size="16px" y="930.4847" clip-path="url(#clipPath2)" stroke="none">dcterms:</text>
      <text x="610.6437" font-size="16px" y="892.7972" clip-path="url(#clipPath2)" stroke="none" font-weight="normal" xml:space="preserve">http://www.cidoc-crm.org/Version/version-7.0.1/</text>
      <text x="610.6437" font-size="16px" y="911.641" clip-path="url(#clipPath2)" stroke="none" font-weight="normal" xml:space="preserve">http://www.cidoc-crm.org/frbroo/ModelVersion/frbroo-v.-3.0/</text>
      <text x="610.6437" font-size="16px" y="930.4847" clip-path="url(#clipPath2)" stroke="none" font-weight="normal" xml:space="preserve">http://purl.org/dc/terms/</text>
    </g>
  </g>
</svg>
