<?xml version="1.0" encoding="UTF-8"?><svg xmlns="http://www.w3.org/2000/svg" xmlns:xlink="http://www.w3.org/1999/xlink" fill-opacity="1" color-rendering="auto" color-interpolation="auto" text-rendering="auto" stroke="black" stroke-linecap="square" width="876" stroke-miterlimit="10" shape-rendering="auto" stroke-opacity="1" fill="black" stroke-dasharray="none" font-weight="normal" stroke-width="1" height="636" font-family="'Dialog'" font-style="normal" stroke-linejoin="miter" font-size="12px" stroke-dashoffset="0" image-rendering="auto">
  <!--Generated by ySVG 2.5-->
  <defs id="genericDefs"/>
  <g>
    <defs id="defs1">
      <clipPath clipPathUnits="userSpaceOnUse" id="clipPath1">
        <path d="M0 0 L876 0 L876 636 L0 636 L0 0 Z"/>
      </clipPath>
      <clipPath clipPathUnits="userSpaceOnUse" id="clipPath2">
        <path d="M440 97 L2047 97 L2047 1263.7261 L440 1263.7261 L440 97 Z"/>
      </clipPath>
      <clipPath clipPathUnits="userSpaceOnUse" id="clipPath3">
        <path d="M436 93 L2043 93 L2043 1259.7261 L436 1259.7261 L436 93 Z"/>
      </clipPath>
    </defs>
    <g fill="yellow" text-rendering="geometricPrecision" shape-rendering="geometricPrecision" transform="matrix(0.5451,0,0,0.5451,-239.8507,-52.8762)" stroke="yellow">
      <rect x="1671.7145" y="526" clip-path="url(#clipPath2)" width="319.0972" rx="4" ry="4" height="44" stroke="none"/>
    </g>
    <g font-size="16px" stroke-linecap="butt" transform="matrix(0.5451,0,0,0.5451,-239.8507,-52.8762)" text-rendering="geometricPrecision" font-family="sans-serif" shape-rendering="geometricPrecision" stroke-miterlimit="1.45">
      <text x="1681.9467" xml:space="preserve" y="554.0469" clip-path="url(#clipPath2)" stroke="none">frbroo:F3_Manifestation_Product_Type</text>
      <rect x="1671.7145" y="526" clip-path="url(#clipPath2)" fill="none" width="319.0972" rx="4" ry="4" height="44"/>
    </g>
    <g fill="yellow" text-rendering="geometricPrecision" shape-rendering="geometricPrecision" transform="matrix(0.5451,0,0,0.5451,-239.8507,-52.8762)" stroke="yellow">
      <rect x="1411.4649" y="526" clip-path="url(#clipPath2)" width="141.0703" rx="4" ry="4" height="44" stroke="none"/>
    </g>
    <g font-size="16px" stroke-linecap="butt" transform="matrix(0.5451,0,0,0.5451,-239.8507,-52.8762)" text-rendering="geometricPrecision" font-family="sans-serif" shape-rendering="geometricPrecision" stroke-miterlimit="1.45">
      <text x="1429.043" xml:space="preserve" y="554.0469" clip-path="url(#clipPath2)" stroke="none">crm:E35_Title</text>
      <rect x="1411.4649" y="526" clip-path="url(#clipPath2)" fill="none" width="141.0703" rx="4" ry="4" height="44"/>
    </g>
    <g fill="yellow" text-rendering="geometricPrecision" shape-rendering="geometricPrecision" transform="matrix(0.5451,0,0,0.5451,-239.8507,-52.8762)" stroke="yellow">
      <rect x="1491.6426" y="766" clip-path="url(#clipPath2)" width="139.241" rx="4" ry="4" height="44" stroke="none"/>
    </g>
    <g font-size="16px" stroke-linecap="butt" transform="matrix(0.5451,0,0,0.5451,-239.8507,-52.8762)" text-rendering="geometricPrecision" font-family="sans-serif" shape-rendering="geometricPrecision" stroke-miterlimit="1.45">
      <text x="1503.8099" xml:space="preserve" y="794.0469" clip-path="url(#clipPath2)" stroke="none">frbroo:F5_Item</text>
      <rect x="1491.6426" y="766" clip-path="url(#clipPath2)" fill="none" width="139.241" rx="4" ry="4" height="44" stroke-width="2"/>
    </g>
    <g fill="yellow" text-rendering="geometricPrecision" shape-rendering="geometricPrecision" transform="matrix(0.5451,0,0,0.5451,-239.8507,-52.8762)" stroke="yellow">
      <rect x="1865.5921" y="826" clip-path="url(#clipPath2)" width="171.342" rx="4" ry="4" height="44" stroke="none"/>
    </g>
    <g font-size="16px" stroke-linecap="butt" transform="matrix(0.5451,0,0,0.5451,-239.8507,-52.8762)" text-rendering="geometricPrecision" font-family="sans-serif" shape-rendering="geometricPrecision" stroke-miterlimit="1.45">
      <text x="1873.974" xml:space="preserve" y="854.0469" clip-path="url(#clipPath2)" stroke="none">crm:E54_Dimension</text>
      <rect x="1865.5921" y="826" clip-path="url(#clipPath2)" fill="none" width="171.342" rx="4" ry="4" height="44"/>
    </g>
    <g fill="yellow" text-rendering="geometricPrecision" shape-rendering="geometricPrecision" transform="matrix(0.5451,0,0,0.5451,-239.8507,-52.8762)" stroke="yellow">
      <rect x="973.2486" y="526" clip-path="url(#clipPath2)" width="216.029" rx="4" ry="4" height="44" stroke="none"/>
    </g>
    <g font-size="16px" stroke-linecap="butt" transform="matrix(0.5451,0,0,0.5451,-239.8507,-52.8762)" text-rendering="geometricPrecision" font-family="sans-serif" shape-rendering="geometricPrecision" stroke-miterlimit="1.45">
      <text x="974.431" xml:space="preserve" y="554.0469" clip-path="url(#clipPath2)" stroke="none">frbroo:F11_Corporate_Body</text>
      <rect x="973.2486" y="526" clip-path="url(#clipPath2)" fill="none" width="216.029" rx="4" ry="4" height="44"/>
    </g>
    <g fill="yellow" text-rendering="geometricPrecision" shape-rendering="geometricPrecision" transform="matrix(0.5451,0,0,0.5451,-239.8507,-52.8762)" stroke="yellow">
      <rect x="1760.779" y="1001.8275" clip-path="url(#clipPath2)" width="140.9682" rx="4" ry="4" height="52.3451" stroke="none"/>
    </g>
    <g font-size="16px" stroke-linecap="butt" transform="matrix(0.5451,0,0,0.5451,-239.8507,-52.8762)" text-rendering="geometricPrecision" font-family="sans-serif" shape-rendering="geometricPrecision" stroke-miterlimit="1.45">
      <text x="1764.3646" xml:space="preserve" y="1034.0469" clip-path="url(#clipPath2)" stroke="none">crm:E57_Material</text>
      <rect x="1760.779" y="1001.8275" clip-path="url(#clipPath2)" fill="none" width="140.9682" rx="4" ry="4" height="52.3451"/>
    </g>
    <g fill="yellow" text-rendering="geometricPrecision" shape-rendering="geometricPrecision" transform="matrix(0.5451,0,0,0.5451,-239.8507,-52.8762)" stroke="yellow">
      <rect x="1443.5576" y="377.7631" clip-path="url(#clipPath2)" width="175.4109" rx="4" ry="4" height="40.4739" stroke="none"/>
    </g>
    <g font-size="16px" stroke-linecap="butt" transform="matrix(0.5451,0,0,0.5451,-239.8507,-52.8762)" text-rendering="geometricPrecision" font-family="sans-serif" shape-rendering="geometricPrecision" stroke-miterlimit="1.45">
      <text x="1448.6771" xml:space="preserve" y="404.0469" clip-path="url(#clipPath2)" stroke="none">frbroo:F2_Expression</text>
      <rect x="1443.5576" y="377.7631" clip-path="url(#clipPath2)" fill="none" width="175.4109" rx="4" ry="4" height="40.4739"/>
    </g>
    <g fill="yellow" text-rendering="geometricPrecision" shape-rendering="geometricPrecision" transform="matrix(0.5451,0,0,0.5451,-239.8507,-52.8762)" stroke="yellow">
      <rect x="731.8363" y="286" clip-path="url(#clipPath2)" width="600.3274" rx="4" ry="4" height="44" stroke="none"/>
    </g>
    <g font-size="16px" stroke-linecap="butt" transform="matrix(0.5451,0,0,0.5451,-239.8507,-52.8762)" text-rendering="geometricPrecision" font-family="sans-serif" shape-rendering="geometricPrecision" stroke-miterlimit="1.45">
      <text x="725.2695" xml:space="preserve" y="314.0469" clip-path="url(#clipPath2)" stroke="none">crm:E12_Production /frbroo:F28_Expression_Creation [F_30_Publication_Event]</text>
      <rect x="731.8363" y="286" clip-path="url(#clipPath2)" fill="none" width="600.3274" rx="4" ry="4" height="44"/>
    </g>
    <g fill="yellow" text-rendering="geometricPrecision" shape-rendering="geometricPrecision" transform="matrix(0.5451,0,0,0.5451,-239.8507,-52.8762)" stroke="yellow">
      <rect x="590.7279" y="676" clip-path="url(#clipPath2)" width="141.0703" rx="4" ry="4" height="44" stroke="none"/>
    </g>
    <g font-size="16px" stroke-linecap="butt" transform="matrix(0.5451,0,0,0.5451,-239.8507,-52.8762)" text-rendering="geometricPrecision" font-family="sans-serif" shape-rendering="geometricPrecision" stroke-miterlimit="1.45">
      <text x="605.7318" xml:space="preserve" y="704.0469" clip-path="url(#clipPath2)" stroke="none">crm:E53_Place</text>
      <rect x="590.7279" y="676" clip-path="url(#clipPath2)" fill="none" width="141.0703" rx="4" ry="4" height="44"/>
    </g>
    <g fill="yellow" text-rendering="geometricPrecision" shape-rendering="geometricPrecision" transform="matrix(0.5451,0,0,0.5451,-239.8507,-52.8762)" stroke="yellow">
      <rect x="461.4639" y="407.1262" clip-path="url(#clipPath2)" width="181.0723" rx="4" ry="4" height="41.7476" stroke="none"/>
    </g>
    <g font-size="16px" stroke-linecap="butt" transform="matrix(0.5451,0,0,0.5451,-239.8507,-52.8762)" text-rendering="geometricPrecision" font-family="sans-serif" shape-rendering="geometricPrecision" stroke-miterlimit="1.45">
      <text x="473.5234" xml:space="preserve" y="434.0469" clip-path="url(#clipPath2)" stroke="none">crm:E52_Time-Span</text>
      <rect x="461.4639" y="407.1262" clip-path="url(#clipPath2)" fill="none" width="181.0723" rx="4" ry="4" height="41.7476"/>
    </g>
    <g fill="yellow" text-rendering="geometricPrecision" shape-rendering="geometricPrecision" transform="matrix(0.5451,0,0,0.5451,-239.8507,-52.8762)" stroke="yellow">
      <rect x="1047.6974" y="1024.4124" clip-path="url(#clipPath2)" width="244.6052" rx="4" ry="4" height="51.1752" stroke="none"/>
    </g>
    <g font-size="16px" stroke-linecap="butt" transform="matrix(0.5451,0,0,0.5451,-239.8507,-52.8762)" text-rendering="geometricPrecision" font-family="sans-serif" shape-rendering="geometricPrecision" stroke-miterlimit="1.45">
      <text x="1047.332" xml:space="preserve" y="1056.0469" clip-path="url(#clipPath2)" stroke="none">crm:E55_Type="Commissioner"</text>
      <rect x="1047.6974" y="1024.4124" clip-path="url(#clipPath2)" fill="none" width="244.6052" rx="4" ry="4" height="51.1752"/>
    </g>
    <g fill="yellow" text-rendering="geometricPrecision" shape-rendering="geometricPrecision" transform="matrix(0.5451,0,0,0.5451,-239.8507,-52.8762)" stroke="yellow">
      <rect x="1478.3566" y="1028" clip-path="url(#clipPath2)" width="163.2867" rx="4" ry="4" height="44" stroke="none"/>
    </g>
    <g font-size="16px" stroke-linecap="butt" transform="matrix(0.5451,0,0,0.5451,-239.8507,-52.8762)" text-rendering="geometricPrecision" font-family="sans-serif" shape-rendering="geometricPrecision" stroke-miterlimit="1.45">
      <text x="1481.5234" xml:space="preserve" y="1056.0469" clip-path="url(#clipPath2)" stroke="none">crm:E52_Time-Span</text>
      <rect x="1478.3566" y="1028" clip-path="url(#clipPath2)" fill="none" width="163.2867" rx="4" ry="4" height="44"/>
    </g>
    <g fill="yellow" text-rendering="geometricPrecision" shape-rendering="geometricPrecision" transform="matrix(0.5451,0,0,0.5451,-239.8507,-52.8762)" stroke="yellow">
      <rect x="1766.2945" y="293.755" clip-path="url(#clipPath2)" width="127.4109" rx="4" ry="4" height="44" stroke="none"/>
    </g>
    <g font-size="16px" stroke-linecap="butt" transform="matrix(0.5451,0,0,0.5451,-239.8507,-52.8762)" text-rendering="geometricPrecision" font-family="sans-serif" shape-rendering="geometricPrecision" stroke-miterlimit="1.45">
      <text x="1775.4453" xml:space="preserve" y="321.8018" clip-path="url(#clipPath2)" stroke="none">crm:E55_Type</text>
      <rect x="1766.2945" y="293.755" clip-path="url(#clipPath2)" fill="none" width="127.4109" rx="4" ry="4" height="44"/>
    </g>
    <g stroke-linecap="butt" transform="matrix(0.5451,0,0,0.5451,-239.8507,-52.8762)" fill="navy" text-rendering="geometricPrecision" shape-rendering="geometricPrecision" stroke="navy" stroke-miterlimit="1.45">
      <path fill="none" d="M1589.0049 763.3406 L1798.2833 577.3154" clip-path="url(#clipPath2)"/>
      <path d="M1583.0256 768.6555 C1581.558 767.0044 1581.7067 764.4761 1583.3578 763.0084 C1585.0089 761.5408 1587.5372 761.6895 1589.0049 763.3406 C1590.4725 764.9917 1590.3239 767.52 1588.6727 768.9877 C1587.0216 770.4553 1584.4933 770.3066 1583.0256 768.6555 Z" clip-path="url(#clipPath2)" stroke="none"/>
      <path d="M1806.5048 570.0073 L1793.5497 573.4953 L1801.5221 582.4642 Z" clip-path="url(#clipPath2)" stroke="none"/>
      <rect x="1597.9623" y="656.5781" clip-path="url(#clipPath2)" fill="white" width="196.6016" height="22.8438" stroke="none"/>
      <text x="1599.9623" font-size="16px" y="674.0469" clip-path="url(#clipPath2)" font-family="sans-serif" stroke="none" xml:space="preserve">frbroo:R7_is_example_of</text>
      <path fill="none" d="M1552.7422 762.1998 L1492.7179 580.4525" clip-path="url(#clipPath2)"/>
      <path d="M1555.2512 769.7961 C1553.1536 770.489 1550.8914 769.3502 1550.1985 767.2525 C1549.5056 765.1548 1550.6445 762.8926 1552.7422 762.1998 C1554.8398 761.507 1557.1021 762.6458 1557.7949 764.7435 C1558.4878 766.8412 1557.3489 769.1033 1555.2512 769.7961 Z" clip-path="url(#clipPath2)" stroke="none"/>
      <path d="M1489.2682 570.0074 L1487.3342 583.2837 L1498.7288 579.5203 Z" clip-path="url(#clipPath2)" stroke="none"/>
      <rect x="1446.1354" y="656.5781" clip-path="url(#clipPath2)" fill="white" width="150.9922" height="22.8438" stroke="none"/>
      <text x="1448.1355" font-size="16px" y="674.0469" clip-path="url(#clipPath2)" font-family="sans-serif" stroke="none" xml:space="preserve">crm:P102_has_title</text>
      <path fill="none" d="M1634.8662 799.3235 L1854.7113 833.1459" clip-path="url(#clipPath2)"/>
      <path d="M1626.9592 798.1071 C1627.2952 795.9236 1629.3375 794.426 1631.5209 794.7618 C1633.7043 795.0978 1635.2021 797.1401 1634.8662 799.3235 C1634.5303 801.507 1632.4879 803.0047 1630.3046 802.6688 C1628.1211 802.3329 1626.6233 800.2906 1626.9592 798.1071 Z" clip-path="url(#clipPath2)" stroke="none"/>
      <path d="M1865.5834 834.8185 L1854.6353 827.0636 L1852.8105 838.9241 Z" clip-path="url(#clipPath2)" stroke="none"/>
      <rect x="1652.3589" y="805.3435" clip-path="url(#clipPath2)" fill="white" width="191.7578" height="22.8438" stroke="none"/>
      <text x="1654.3589" font-size="16px" y="822.8122" clip-path="url(#clipPath2)" font-family="sans-serif" stroke="none" xml:space="preserve">crm:P43_has_dimension</text>
      <path fill="none" d="M1513.7108 764.2238 L1135.0929 574.9149" clip-path="url(#clipPath2)"/>
      <path d="M1520.8661 767.8016 C1519.8782 769.7775 1517.4755 770.5784 1515.4995 769.5904 C1513.5237 768.6024 1512.7228 766.1997 1513.7108 764.2238 C1514.6987 762.2479 1517.1014 761.447 1519.0774 762.435 C1521.0532 763.423 1521.8541 765.8257 1520.8661 767.8016 Z" clip-path="url(#clipPath2)" stroke="none"/>
      <path d="M1125.2542 569.9955 L1133.304 580.7287 L1138.6705 569.9955 Z" clip-path="url(#clipPath2)" stroke="none"/>
      <rect x="1203.5131" y="656.5781" clip-path="url(#clipPath2)" fill="white" width="235.5" height="22.8438" stroke="none"/>
      <text x="1205.5131" font-size="16px" y="674.0469" clip-path="url(#clipPath2)" font-family="sans-serif" stroke="none" xml:space="preserve">crm:P_50_has_current_keeper</text>
      <path fill="none" d="M1589.0049 812.6594 L1793.613 994.5333" clip-path="url(#clipPath2)"/>
      <path d="M1583.0256 807.3445 C1584.4933 805.6934 1587.0216 805.5447 1588.6727 807.0123 C1590.3239 808.48 1590.4725 811.0083 1589.0049 812.6594 C1587.5372 814.3105 1585.0089 814.4592 1583.3578 812.9916 C1581.7067 811.5239 1581.558 808.9956 1583.0256 807.3445 Z" clip-path="url(#clipPath2)" stroke="none"/>
      <path d="M1801.8346 1001.8413 L1796.8518 989.3845 L1788.8795 998.3535 Z" clip-path="url(#clipPath2)" stroke="none"/>
      <rect x="1626.9395" y="894.4919" clip-path="url(#clipPath2)" fill="white" width="133.9531" height="22.8438" stroke="none"/>
      <text x="1628.9395" font-size="16px" y="911.9606" clip-path="url(#clipPath2)" font-family="sans-serif" stroke="none" xml:space="preserve">crm:P2_has_type</text>
      <path fill="none" d="M1575.3071 420.022 L1777.4189 521.0779" clip-path="url(#clipPath2)"/>
      <path d="M1568.1516 416.4444 C1569.1396 414.4684 1571.5422 413.6675 1573.5182 414.6555 C1575.4941 415.6434 1576.295 418.0461 1575.3071 420.022 C1574.3191 421.9979 1571.9165 422.7989 1569.9406 421.8109 C1567.9646 420.823 1567.1637 418.4203 1568.1516 416.4444 Z" clip-path="url(#clipPath2)" stroke="none"/>
      <path d="M1787.2577 525.9973 L1779.2079 515.2642 L1773.8413 525.9973 Z" clip-path="url(#clipPath2)" stroke="none"/>
      <rect x="1555.8984" y="460.6966" clip-path="url(#clipPath2)" fill="white" width="247.2031" height="22.8438" stroke="none"/>
      <text x="1557.8984" font-size="16px" y="478.1653" clip-path="url(#clipPath2)" font-family="sans-serif" stroke="none" xml:space="preserve">frbroo:R4_carriers_provided_by</text>
      <path fill="none" d="M1152.5728 330.8158 L1432.7976 388.8276" clip-path="url(#clipPath2)"/>
      <path d="M1144.7388 329.1941 C1145.1866 327.0308 1147.3033 325.6402 1149.4667 326.088 C1151.6299 326.5358 1153.0205 328.6526 1152.5728 330.8158 C1152.1249 332.9791 1150.0082 334.3697 1147.8448 333.9219 C1145.6816 333.4741 1144.291 331.3573 1144.7388 329.1941 Z" clip-path="url(#clipPath2)" stroke="none"/>
      <path d="M1443.5692 391.0575 L1433.0347 382.7495 L1430.6021 394.5003 Z" clip-path="url(#clipPath2)" stroke="none"/>
      <rect x="1236.7823" y="352.7237" clip-path="url(#clipPath2)" fill="white" width="153.5781" height="22.8438" stroke="none"/>
      <text x="1238.7823" font-size="16px" y="370.1924" clip-path="url(#clipPath2)" font-family="sans-serif" stroke="none" xml:space="preserve">frbroo:R17_created</text>
      <path fill="none" d="M1037.3204 333.9203 L1074.5341 515.2173" clip-path="url(#clipPath2)"/>
      <path d="M1035.712 326.0836 C1037.8761 325.6395 1039.9904 327.0337 1040.4346 329.1977 C1040.8787 331.3618 1039.4845 333.4761 1037.3204 333.9203 C1035.1564 334.3644 1033.0421 332.9702 1032.5979 330.8061 C1032.1538 328.6421 1033.548 326.5277 1035.712 326.0836 Z" clip-path="url(#clipPath2)" stroke="none"/>
      <path d="M1076.7457 525.9927 L1080.2104 513.0314 L1068.4556 515.4441 Z" clip-path="url(#clipPath2)" stroke="none"/>
      <rect x="957.7683" y="416.5781" clip-path="url(#clipPath2)" fill="white" width="197.7266" height="22.8438" stroke="none"/>
      <text x="959.7682" font-size="16px" y="434.0469" clip-path="url(#clipPath2)" font-family="sans-serif" stroke="none" xml:space="preserve">crm:P_14_carried_out_by</text>
      <path fill="none" d="M1015.8958 571.3455 L733.2659 672.2847" clip-path="url(#clipPath2)"/>
      <path d="M1023.4297 568.6548 C1024.1727 570.7352 1023.0885 573.0241 1021.0081 573.7671 C1018.9276 574.5101 1016.6387 573.4259 1015.8958 571.3455 C1015.1527 569.265 1016.2369 566.9761 1018.3174 566.2332 C1020.3978 565.4901 1022.6867 566.5743 1023.4297 568.6548 Z" clip-path="url(#clipPath2)" stroke="none"/>
      <path d="M722.9068 675.9844 L736.2257 677.5988 L732.1897 666.2979 Z" clip-path="url(#clipPath2)" stroke="none"/>
      <rect x="700.4752" y="612.9156" clip-path="url(#clipPath2)" fill="white" width="334.0859" height="22.8438" stroke="none"/>
      <text x="702.4752" font-size="16px" y="630.3843" clip-path="url(#clipPath2)" font-family="sans-serif" stroke="none" xml:space="preserve">crm:P74_has_current_or_former_residence</text>
      <path fill="none" d="M1008.3132 332.9175 L689.744 668.0392" clip-path="url(#clipPath2)"/>
      <path d="M1013.825 327.1193 C1015.4261 328.6414 1015.4902 331.1732 1013.9682 332.7744 C1012.4462 334.3755 1009.9143 334.4396 1008.3132 332.9175 C1006.712 331.3955 1006.6479 328.8636 1008.17 327.2625 C1009.692 325.6614 1012.2239 325.5973 1013.825 327.1193 Z" clip-path="url(#clipPath2)" stroke="none"/>
      <path d="M682.1652 676.0118 L694.7816 671.4484 L686.0842 663.1806 Z" clip-path="url(#clipPath2)" stroke="none"/>
      <rect x="760.5534" y="491.5781" clip-path="url(#clipPath2)" fill="white" width="172.1562" height="22.8438" stroke="none"/>
      <text x="762.5534" font-size="16px" y="509.0469" clip-path="url(#clipPath2)" font-family="sans-serif" stroke="none" xml:space="preserve">crm:P7_took_place_at</text>
      <path fill="none" d="M1487.6571 780.6394 L742.7325 706.147" clip-path="url(#clipPath2)"/>
      <path d="M1495.6173 781.4354 C1495.3976 783.6336 1493.4374 785.2374 1491.2391 785.0176 C1489.041 784.7977 1487.4373 782.8376 1487.6571 780.6394 C1487.8768 778.4412 1489.837 776.8375 1492.0353 777.0573 C1494.2334 777.2771 1495.8372 779.2372 1495.6173 781.4354 Z" clip-path="url(#clipPath2)" stroke="none"/>
      <path d="M731.7871 705.0524 L743.1306 712.2167 L744.3246 700.2762 Z" clip-path="url(#clipPath2)" stroke="none"/>
      <rect x="947.3688" y="731.6239" clip-path="url(#clipPath2)" fill="white" width="328.7031" height="22.8438" stroke="none"/>
      <text x="949.3688" font-size="16px" y="749.0926" clip-path="url(#clipPath2)" font-family="sans-serif" stroke="none" xml:space="preserve">crm:P54_has_current_permanent_location</text>
      <path fill="none" d="M940.1409 330.9648 L646.1771 404.4557" clip-path="url(#clipPath2)"/>
      <path d="M947.902 329.0245 C948.4379 331.1677 947.1348 333.3394 944.9916 333.8752 C942.8484 334.411 940.6767 333.108 940.1409 330.9648 C939.6051 328.8216 940.9081 326.6499 943.0513 326.1141 C945.1945 325.5782 947.3663 326.8813 947.902 329.0245 Z" clip-path="url(#clipPath2)" stroke="none"/>
      <path d="M635.5056 407.1236 L648.6025 410.034 L645.692 398.3923 Z" clip-path="url(#clipPath2)" stroke="none"/>
      <rect x="688.9126" y="359.683" clip-path="url(#clipPath2)" fill="white" width="181.3359" height="22.8438" stroke="none"/>
      <text x="690.9126" font-size="16px" y="377.1517" clip-path="url(#clipPath2)" font-family="sans-serif" stroke="none" xml:space="preserve">crm:P4_has_time-span</text>
      <path fill="none" d="M1525.1033 812.2135 L1217.3585 1018.2875" clip-path="url(#clipPath2)"/>
      <path d="M1531.7507 807.7623 C1532.9799 809.598 1532.4882 812.0825 1530.6526 813.3116 C1528.8169 814.5408 1526.3324 814.0491 1525.1033 812.2135 C1523.8741 810.3779 1524.3658 807.8934 1526.2014 806.6642 C1528.0371 805.4351 1530.5216 805.9268 1531.7507 807.7623 Z" clip-path="url(#clipPath2)" stroke="none"/>
      <path d="M1208.2185 1024.4078 L1221.5278 1022.7166 L1214.8511 1012.7455 Z" clip-path="url(#clipPath2)" stroke="none"/>
      <rect x="1259.4158" y="896.3625" clip-path="url(#clipPath2)" fill="white" width="217.7891" height="41.6875" stroke="none"/>
      <text x="1272.9158" font-size="16px" y="913.8312" clip-path="url(#clipPath2)" font-family="sans-serif" stroke="none" xml:space="preserve">crm:P14_carried_out_by </text>
      <text x="1261.4158" font-size="16px" y="932.675" clip-path="url(#clipPath2)" font-family="sans-serif" stroke="none" xml:space="preserve">&gt; crm:P14.1_in_the_role_of</text>
      <path fill="none" d="M1560 814.0294 L1560 1017.0007" clip-path="url(#clipPath2)"/>
      <path d="M1560 806.0294 C1562.2091 806.0294 1564 807.8203 1564 810.0294 C1564 812.2386 1562.2091 814.0294 1560 814.0294 C1557.7909 814.0294 1556 812.2386 1556 810.0294 C1556 807.8203 1557.7909 806.0294 1560 806.0294 Z" clip-path="url(#clipPath2)" stroke="none"/>
      <path d="M1560 1028.0007 L1566 1016.0007 L1554 1016.0007 Z" clip-path="url(#clipPath2)" stroke="none"/>
      <rect x="1495.3359" y="907.5781" clip-path="url(#clipPath2)" fill="white" width="129.3281" height="22.8438" stroke="none"/>
      <text x="1497.3359" font-size="16px" y="925.0469" clip-path="url(#clipPath2)" font-family="sans-serif" stroke="none" xml:space="preserve">dcterms:created</text>
      <path fill="none" d="M1336.1752 310.956 L1755.2836 315.0289" clip-path="url(#clipPath2)"/>
      <path d="M1328.1757 310.8783 C1328.197 308.6692 1330.0052 306.8958 1332.2142 306.9173 C1334.4233 306.9388 1336.1967 308.7469 1336.1752 310.956 C1336.1538 313.165 1334.3456 314.9384 1332.1366 314.9169 C1329.9275 314.8955 1328.1542 313.0873 1328.1757 310.8783 Z" clip-path="url(#clipPath2)" stroke="none"/>
      <path d="M1766.2831 315.1358 L1754.3419 309.0194 L1754.2253 321.0189 Z" clip-path="url(#clipPath2)" stroke="none"/>
      <rect x="1417.6666" y="301.6046" clip-path="url(#clipPath2)" fill="white" width="263.125" height="22.8438" stroke="none"/>
      <text x="1419.6666" font-size="16px" y="319.0733" clip-path="url(#clipPath2)" font-family="sans-serif" stroke="none" xml:space="preserve">crm:P32_used_general_technique</text>
    </g>
    <g fill="rgb(210,210,210)" text-rendering="geometricPrecision" shape-rendering="geometricPrecision" transform="matrix(0.5451,0,0,0.5451,-239.8507,-52.8762) translate(4,4)" stroke="rgb(210,210,210)">
      <rect x="450.1766" width="678.3969" height="123.3855" y="838.6625" clip-path="url(#clipPath3)" stroke="none"/>
    </g>
    <g fill="white" text-rendering="geometricPrecision" shape-rendering="geometricPrecision" transform="matrix(0.5451,0,0,0.5451,-239.8507,-52.8762)" stroke="white">
      <rect x="450.1766" width="678.3969" height="123.3855" y="838.6625" clip-path="url(#clipPath2)" stroke="none"/>
      <rect x="450.1766" y="838.6625" clip-path="url(#clipPath2)" fill="rgb(183,182,158)" width="678.3969" height="21.666" stroke="none"/>
    </g>
    <g font-size="15px" stroke-linecap="butt" transform="matrix(0.5451,0,0,0.5451,-239.8507,-52.8762)" text-rendering="geometricPrecision" font-family="sans-serif" shape-rendering="geometricPrecision" font-weight="bold" stroke-miterlimit="1.45">
      <text x="1049.7058" xml:space="preserve" y="855.1644" clip-path="url(#clipPath2)" stroke="none">Prefixes   </text>
      <rect fill="none" x="450.1766" width="678.3969" height="123.3855" y="838.6625" clip-path="url(#clipPath2)"/>
      <text x="467.1766" xml:space="preserve" font-size="16px" y="892.7972" clip-path="url(#clipPath2)" stroke="none">crm:</text>
      <text x="467.1766" xml:space="preserve" font-size="16px" y="911.641" clip-path="url(#clipPath2)" stroke="none">frbroo:</text>
      <text x="467.1766" xml:space="preserve" font-size="16px" y="930.4847" clip-path="url(#clipPath2)" stroke="none">dcterms:</text>
      <text x="610.6437" font-size="16px" y="892.7972" clip-path="url(#clipPath2)" stroke="none" font-weight="normal" xml:space="preserve">http://www.cidoc-crm.org/Version/version-7.0.1/</text>
      <text x="610.6437" font-size="16px" y="911.641" clip-path="url(#clipPath2)" stroke="none" font-weight="normal" xml:space="preserve">http://www.cidoc-crm.org/frbroo/ModelVersion/frbroo-v.-3.0/</text>
      <text x="610.6437" font-size="16px" y="930.4847" clip-path="url(#clipPath2)" stroke="none" font-weight="normal" xml:space="preserve">http://purl.org/dc/terms/</text>
    </g>
  </g>
</svg>
