<?xml version="1.0" encoding="UTF-8"?><svg xmlns="http://www.w3.org/2000/svg" xmlns:xlink="http://www.w3.org/1999/xlink" fill-opacity="1" color-rendering="auto" color-interpolation="auto" text-rendering="auto" stroke="black" stroke-linecap="square" width="876" stroke-miterlimit="10" shape-rendering="auto" stroke-opacity="1" fill="black" stroke-dasharray="none" font-weight="normal" stroke-width="1" height="564" font-family="'Dialog'" font-style="normal" stroke-linejoin="miter" font-size="12px" stroke-dashoffset="0" image-rendering="auto">
  <!--Generated by ySVG 2.5-->
  <defs id="genericDefs"/>
  <g>
    <defs id="defs1">
      <clipPath clipPathUnits="userSpaceOnUse" id="clipPath1">
        <path d="M0 0 L876 0 L876 564 L0 564 L0 0 Z"/>
      </clipPath>
      <clipPath clipPathUnits="userSpaceOnUse" id="clipPath2">
        <path d="M751 268 L2241 268 L2241 1227.3151 L751 1227.3151 L751 268 Z"/>
      </clipPath>
      <clipPath clipPathUnits="userSpaceOnUse" id="clipPath3">
        <path d="M747 264 L2237 264 L2237 1223.3151 L747 1223.3151 L747 264 Z"/>
      </clipPath>
    </defs>
    <g fill="yellow" text-rendering="geometricPrecision" shape-rendering="geometricPrecision" transform="matrix(0.5879,0,0,0.5879,-441.5275,-157.5624)" stroke="yellow">
      <rect x="1919.8663" y="551.4389" clip-path="url(#clipPath2)" width="158.6211" rx="4" ry="4" height="44" stroke="none"/>
    </g>
    <g font-size="16px" stroke-linecap="butt" transform="matrix(0.5879,0,0,0.5879,-441.5275,-157.5624)" text-rendering="geometricPrecision" font-family="sans-serif" shape-rendering="geometricPrecision" stroke-miterlimit="1.45">
      <text x="1971.1182" xml:space="preserve" y="579.4858" clip-path="url(#clipPath2)" stroke="none">subject</text>
      <rect x="1919.8663" y="551.4389" clip-path="url(#clipPath2)" fill="none" width="158.6211" rx="4" ry="4" height="44"/>
    </g>
    <g fill="rgb(204,255,204)" text-rendering="geometricPrecision" shape-rendering="geometricPrecision" transform="matrix(0.5879,0,0,0.5879,-441.5275,-157.5624)" stroke="rgb(204,255,204)">
      <path d="M1479.411 405.6864 L1865.5531 405.6864 L1822.6484 449.6864 L1436.5063 449.6864 Z" fill-rule="evenodd" clip-path="url(#clipPath2)" stroke="none"/>
    </g>
    <g font-size="16px" stroke-linecap="butt" transform="matrix(0.5879,0,0,0.5879,-441.5275,-157.5624)" text-rendering="geometricPrecision" font-family="sans-serif" shape-rendering="geometricPrecision" stroke-miterlimit="1.45">
      <text x="1458.7797" xml:space="preserve" y="433.7333" clip-path="url(#clipPath2)" stroke="none">http://www.w3.org/2000/01/rdf-schema#Literal</text>
      <path fill="none" d="M1479.411 405.6864 L1865.5531 405.6864 L1822.6484 449.6864 L1436.5063 449.6864 Z" fill-rule="evenodd" clip-path="url(#clipPath2)"/>
    </g>
    <g fill="yellow" text-rendering="geometricPrecision" shape-rendering="geometricPrecision" transform="matrix(0.5879,0,0,0.5879,-441.5275,-157.5624)" stroke="yellow">
      <rect x="1584.6426" y="703.5" clip-path="url(#clipPath2)" width="139.241" rx="4" ry="4" height="44" stroke="none"/>
    </g>
    <g font-size="16px" stroke-linecap="butt" transform="matrix(0.5879,0,0,0.5879,-441.5275,-157.5624)" text-rendering="geometricPrecision" font-family="sans-serif" shape-rendering="geometricPrecision" stroke-miterlimit="1.45">
      <text x="1591.3021" xml:space="preserve" y="731.5469" clip-path="url(#clipPath2)" stroke="none">audio_recording</text>
      <rect x="1584.6426" y="703.5" clip-path="url(#clipPath2)" fill="none" width="139.241" rx="4" ry="4" height="44" stroke-width="2"/>
    </g>
    <g fill="yellow" text-rendering="geometricPrecision" shape-rendering="geometricPrecision" transform="matrix(0.5879,0,0,0.5879,-441.5275,-157.5624)" stroke="yellow">
      <rect x="1951.429" y="829.4004" clip-path="url(#clipPath2)" width="278.7883" rx="4" ry="4" height="44" stroke="none"/>
    </g>
    <g font-size="16px" stroke-linecap="butt" transform="matrix(0.5879,0,0,0.5879,-441.5275,-157.5624)" text-rendering="geometricPrecision" font-family="sans-serif" shape-rendering="geometricPrecision" stroke-miterlimit="1.45">
      <text x="1993.4442" xml:space="preserve" y="857.4473" clip-path="url(#clipPath2)" stroke="none">dcterms:RightsStatement</text>
      <rect x="1951.429" y="829.4004" clip-path="url(#clipPath2)" fill="none" width="278.7883" rx="4" ry="4" height="44"/>
    </g>
    <g fill="yellow" text-rendering="geometricPrecision" shape-rendering="geometricPrecision" transform="matrix(0.5879,0,0,0.5879,-441.5275,-157.5624)" stroke="yellow">
      <rect x="1066.2486" y="463.5" clip-path="url(#clipPath2)" width="216.029" rx="4" ry="4" height="44" stroke="none"/>
    </g>
    <g font-size="16px" stroke-linecap="butt" transform="matrix(0.5879,0,0,0.5879,-441.5275,-157.5624)" text-rendering="geometricPrecision" font-family="sans-serif" shape-rendering="geometricPrecision" stroke-miterlimit="1.45">
      <text x="1107.4506" xml:space="preserve" y="491.5469" clip-path="url(#clipPath2)" stroke="none">dcterms:Location</text>
      <rect x="1066.2486" y="463.5" clip-path="url(#clipPath2)" fill="none" width="216.029" rx="4" ry="4" height="44"/>
    </g>
    <g fill="rgb(204,255,204)" text-rendering="geometricPrecision" shape-rendering="geometricPrecision" transform="matrix(0.5879,0,0,0.5879,-441.5275,-157.5624)" stroke="rgb(204,255,204)">
      <path d="M1441.9835 1018.2469 L1821.123 1018.2469 L1778.9965 1070.592 L1399.8569 1070.592 Z" fill-rule="evenodd" clip-path="url(#clipPath2)" stroke="none"/>
    </g>
    <g font-size="16px" stroke-linecap="butt" transform="matrix(0.5879,0,0,0.5879,-441.5275,-157.5624)" text-rendering="geometricPrecision" font-family="sans-serif" shape-rendering="geometricPrecision" stroke-miterlimit="1.45">
      <text x="1560.615" xml:space="preserve" y="1041.0444" clip-path="url(#clipPath2)" stroke="none">schema:Date</text>
      <text x="1526.9236" xml:space="preserve" y="1059.8882" clip-path="url(#clipPath2)" stroke="none">ISO 8601 date format</text>
      <path fill="none" d="M1441.9835 1018.2469 L1821.123 1018.2469 L1778.9965 1070.592 L1399.8569 1070.592 Z" fill-rule="evenodd" clip-path="url(#clipPath2)"/>
    </g>
    <g fill="yellow" text-rendering="geometricPrecision" shape-rendering="geometricPrecision" transform="matrix(0.5879,0,0,0.5879,-441.5275,-157.5624)" stroke="yellow">
      <rect x="959.4843" y="619.1779" clip-path="url(#clipPath2)" width="181.6171" rx="4" ry="4" height="44" stroke="none"/>
    </g>
    <g font-size="16px" stroke-linecap="butt" transform="matrix(0.5879,0,0,0.5879,-441.5275,-157.5624)" text-rendering="geometricPrecision" font-family="sans-serif" shape-rendering="geometricPrecision" stroke-miterlimit="1.45">
      <text x="963.4921" xml:space="preserve" y="647.2247" clip-path="url(#clipPath2)" stroke="none">dcterms:PeriodOfTime</text>
      <rect x="959.4843" y="619.1779" clip-path="url(#clipPath2)" fill="none" width="181.6171" rx="4" ry="4" height="44"/>
    </g>
    <g fill="yellow" text-rendering="geometricPrecision" shape-rendering="geometricPrecision" transform="matrix(0.5879,0,0,0.5879,-441.5275,-157.5624)" stroke="yellow">
      <rect x="781.1256" y="799.041" clip-path="url(#clipPath2)" width="196.3453" rx="4" ry="4" height="52.3451" stroke="none"/>
    </g>
    <g font-size="16px" stroke-linecap="butt" transform="matrix(0.5879,0,0,0.5879,-441.5275,-157.5624)" text-rendering="geometricPrecision" font-family="sans-serif" shape-rendering="geometricPrecision" stroke-miterlimit="1.45">
      <text x="822.4427" xml:space="preserve" y="831.2604" clip-path="url(#clipPath2)" stroke="none">dcterms:Agent</text>
      <rect x="781.1256" y="799.041" clip-path="url(#clipPath2)" fill="none" width="196.3453" rx="4" ry="4" height="52.3451"/>
    </g>
    <g fill="yellow" text-rendering="geometricPrecision" shape-rendering="geometricPrecision" transform="matrix(0.5879,0,0,0.5879,-441.5275,-157.5624)" stroke="yellow">
      <rect x="1978.6497" y="1010.7399" clip-path="url(#clipPath2)" width="175.1382" rx="4" ry="4" height="52.3451" stroke="none"/>
    </g>
    <g font-size="16px" stroke-linecap="butt" transform="matrix(0.5879,0,0,0.5879,-441.5275,-157.5624)" text-rendering="geometricPrecision" font-family="sans-serif" shape-rendering="geometricPrecision" stroke-miterlimit="1.45">
      <text x="1996.7384" xml:space="preserve" y="1042.9592" clip-path="url(#clipPath2)" stroke="none">schema:Language</text>
      <rect x="1978.6497" y="1010.7399" clip-path="url(#clipPath2)" fill="none" width="175.1382" rx="4" ry="4" height="52.3451"/>
    </g>
    <g stroke-linecap="butt" transform="matrix(0.5879,0,0,0.5879,-441.5275,-157.5624)" fill="navy" text-rendering="geometricPrecision" shape-rendering="geometricPrecision" stroke="navy" stroke-miterlimit="1.45">
      <path fill="none" d="M1708.4493 701.9022 L1933.7031 603.8052 L1941.787 600.056" clip-path="url(#clipPath2)"/>
      <path d="M1701.1146 705.0964 C1700.2325 703.0709 1701.1594 700.714 1703.1849 699.832 C1705.2103 698.9499 1707.5673 699.8768 1708.4493 701.9022 C1709.3314 703.9276 1708.4045 706.2845 1706.379 707.1666 C1704.3536 708.0486 1701.9967 707.1218 1701.1146 705.0964 Z" clip-path="url(#clipPath2)" stroke="none"/>
      <path d="M1951.766 595.4278 L1938.3553 595.0336 L1943.4043 605.9198 Z" clip-path="url(#clipPath2)" stroke="none"/>
      <rect x="1764.855" y="638.0476" clip-path="url(#clipPath2)" fill="white" width="127.9844" height="22.8438" stroke="none"/>
      <text x="1766.855" font-size="16px" y="655.5164" clip-path="url(#clipPath2)" font-family="sans-serif" stroke="none" xml:space="preserve">dcterms:subject</text>
      <path fill="none" d="M1653.9808 699.5059 L1651.4313 464.6716" clip-path="url(#clipPath2)" stroke="green"/>
    </g>
    <g stroke-linecap="butt" transform="matrix(0.5879,0,0,0.5879,-441.5275,-157.5624)" fill-opacity="0" fill="rgb(0,0,0)" text-rendering="geometricPrecision" shape-rendering="geometricPrecision" stroke="rgb(0,0,0)" stroke-opacity="0" stroke-miterlimit="1.45">
      <path d="M1654.0677 707.5054 C1651.8588 707.5294 1650.0486 705.7581 1650.0245 703.5491 C1650.0005 701.3401 1651.7719 699.5299 1653.9808 699.5059 C1656.1898 699.4819 1658 701.2532 1658.024 703.4622 C1658.0481 705.6712 1656.2767 707.4814 1654.0677 707.5054 Z" stroke="none" clip-path="url(#clipPath2)"/>
    </g>
    <g stroke-linecap="butt" transform="matrix(0.5879,0,0,0.5879,-441.5275,-157.5624)" fill="green" text-rendering="geometricPrecision" shape-rendering="geometricPrecision" stroke="green" stroke-miterlimit="1.45">
      <path fill="none" d="M1654.0677 707.5054 C1651.8588 707.5294 1650.0486 705.7581 1650.0245 703.5491 C1650.0005 701.3401 1651.7719 699.5299 1653.9808 699.5059 C1656.1898 699.4819 1658 701.2532 1658.024 703.4622 C1658.0481 705.6712 1656.2767 707.4814 1654.0677 707.5054 Z" clip-path="url(#clipPath2)"/>
      <path fill="white" d="M1651.2684 449.6725 L1645.4425 465.7367 L1657.4418 465.6064 Z" clip-path="url(#clipPath2)" stroke="none"/>
      <path fill="none" d="M1651.2684 449.6725 L1645.4425 465.7367 L1657.4418 465.6064 Z" clip-path="url(#clipPath2)"/>
      <rect x="1601.6464" y="565.1713" clip-path="url(#clipPath2)" fill="white" width="102" height="22.8438" stroke="none"/>
      <text x="1603.6464" font-size="16px" y="582.6401" clip-path="url(#clipPath2)" font-family="sans-serif" stroke="none" xml:space="preserve">dcterms:title</text>
      <path fill="none" d="M1727.2516 746.5493 L2003.9633 826.3507" clip-path="url(#clipPath2)" stroke="navy"/>
      <path fill="navy" d="M1719.5648 744.3326 C1720.1769 742.21 1722.3939 740.9854 1724.5165 741.5975 C1726.6392 742.2097 1727.8636 744.4266 1727.2516 746.5493 C1726.6395 748.6719 1724.4225 749.8964 1722.2999 749.2843 C1720.1772 748.6722 1718.9528 746.4552 1719.5648 744.3326 Z" clip-path="url(#clipPath2)" stroke="none"/>
      <path fill="navy" d="M2014.5325 829.3988 L2004.665 820.3085 L2001.3397 831.8386 Z" clip-path="url(#clipPath2)" stroke="none"/>
      <rect x="1772.3981" y="772.8206" clip-path="url(#clipPath2)" fill="white" width="171.1094" height="22.8438" stroke="none"/>
    </g>
    <g stroke-linecap="butt" font-size="16px" transform="matrix(0.5879,0,0,0.5879,-441.5275,-157.5624)" fill="navy" text-rendering="geometricPrecision" font-family="sans-serif" shape-rendering="geometricPrecision" stroke="navy" stroke-miterlimit="1.45">
      <text x="1774.3982" xml:space="preserve" y="790.2894" clip-path="url(#clipPath2)" stroke="none">dcterms:accessRights</text>
      <path fill="none" d="M1607.1642 701.6929 L1232.7755 512.4501" clip-path="url(#clipPath2)"/>
      <path d="M1614.3041 705.3018 C1613.3075 707.2733 1610.9014 708.0638 1608.9297 707.0672 C1606.9581 706.0707 1606.1677 703.6645 1607.1642 701.6929 C1608.1608 699.7213 1610.5669 698.9308 1612.5386 699.9274 C1614.5101 700.924 1615.3005 703.3301 1614.3041 705.3018 Z" stroke="none" clip-path="url(#clipPath2)"/>
      <path d="M1222.9584 507.4878 L1230.9612 518.256 L1236.3746 507.5465 Z" stroke="none" clip-path="url(#clipPath2)"/>
    </g>
    <g stroke-linecap="butt" transform="matrix(0.5879,0,0,0.5879,-441.5275,-157.5624)" fill="white" text-rendering="geometricPrecision" shape-rendering="geometricPrecision" stroke="white" stroke-miterlimit="1.45">
      <rect x="1355.3609" width="123" height="22.8438" y="594.0781" clip-path="url(#clipPath2)" stroke="none"/>
    </g>
    <g stroke-linecap="butt" font-size="16px" transform="matrix(0.5879,0,0,0.5879,-441.5275,-157.5624)" fill="navy" text-rendering="geometricPrecision" font-family="sans-serif" shape-rendering="geometricPrecision" stroke="navy" stroke-miterlimit="1.45">
      <text x="1357.361" xml:space="preserve" y="611.5469" clip-path="url(#clipPath2)" stroke="none">dcterms:spatial</text>
    </g>
    <g stroke-linecap="butt" transform="matrix(0.5879,0,0,0.5879,-441.5275,-157.5624)" fill="green" text-rendering="geometricPrecision" shape-rendering="geometricPrecision" stroke="green" stroke-miterlimit="1.45">
      <path fill="none" d="M1665.5773 751.1546 L1754.4691 952.7138 L1778.8627 1004.6607" clip-path="url(#clipPath2)"/>
    </g>
    <g stroke-linecap="butt" transform="matrix(0.5879,0,0,0.5879,-441.5275,-157.5624)" fill-opacity="0" fill="rgb(0,0,0)" text-rendering="geometricPrecision" shape-rendering="geometricPrecision" stroke="rgb(0,0,0)" stroke-opacity="0" stroke-miterlimit="1.45">
      <path d="M1662.3492 743.8348 C1664.3706 742.9434 1666.7318 743.8594 1667.6232 745.8807 C1668.5145 747.902 1667.5986 750.2632 1665.5773 751.1546 C1663.5559 752.046 1661.1947 751.13 1660.3033 749.1087 C1659.412 747.0874 1660.3279 744.7262 1662.3492 743.8348 Z" stroke="none" clip-path="url(#clipPath2)"/>
    </g>
    <g stroke-linecap="butt" transform="matrix(0.5879,0,0,0.5879,-441.5275,-157.5624)" fill="green" text-rendering="geometricPrecision" shape-rendering="geometricPrecision" stroke="green" stroke-miterlimit="1.45">
      <path fill="none" d="M1662.3492 743.8348 C1664.3706 742.9434 1666.7318 743.8594 1667.6232 745.8807 C1668.5145 747.902 1667.5986 750.2632 1665.5773 751.1546 C1663.5559 752.046 1661.1947 751.13 1660.3033 749.1087 C1659.412 747.0874 1660.3279 744.7262 1662.3492 743.8348 Z" clip-path="url(#clipPath2)"/>
      <path fill="white" d="M1785.2385 1018.2382 L1783.8687 1001.2052 L1773.0066 1006.3059 Z" clip-path="url(#clipPath2)" stroke="none"/>
      <path fill="none" d="M1785.2385 1018.2382 L1783.8687 1001.2052 L1773.0066 1006.3059 Z" clip-path="url(#clipPath2)"/>
      <rect x="1630.1436" y="843.2475" clip-path="url(#clipPath2)" fill="white" width="162.1719" height="22.8438" stroke="none"/>
      <text x="1632.1436" font-size="16px" y="860.7163" clip-path="url(#clipPath2)" font-family="sans-serif" stroke="none" xml:space="preserve">schema:dateCreated</text>
      <path fill="none" d="M1623.6204 750.0125 L1463.0529 878.4579 L1396.9846 928.2356 L1509.5244 1009.4572" clip-path="url(#clipPath2)"/>
    </g>
    <g stroke-linecap="butt" transform="matrix(0.5879,0,0,0.5879,-441.5275,-157.5624)" fill-opacity="0" fill="rgb(0,0,0)" text-rendering="geometricPrecision" shape-rendering="geometricPrecision" stroke="rgb(0,0,0)" stroke-opacity="0" stroke-miterlimit="1.45">
      <path d="M1629.8674 745.0152 C1631.2474 746.7403 1630.9677 749.2574 1629.2426 750.6374 C1627.5175 752.0174 1625.0004 751.7376 1623.6204 750.0125 C1622.2404 748.2874 1622.5201 745.7703 1624.2452 744.3903 C1625.9703 743.0103 1628.4874 743.2901 1629.8674 745.0152 Z" stroke="none" clip-path="url(#clipPath2)"/>
    </g>
    <g stroke-linecap="butt" transform="matrix(0.5879,0,0,0.5879,-441.5275,-157.5624)" fill="green" text-rendering="geometricPrecision" shape-rendering="geometricPrecision" stroke="green" stroke-miterlimit="1.45">
      <path fill="none" d="M1629.8674 745.0152 C1631.2474 746.7403 1630.9677 749.2574 1629.2426 750.6374 C1627.5175 752.0174 1625.0004 751.7376 1623.6204 750.0125 C1622.2404 748.2874 1622.5201 745.7703 1624.2452 744.3903 C1625.9703 743.0103 1628.4874 743.2901 1629.8674 745.0152 Z" clip-path="url(#clipPath2)"/>
      <path fill="white" d="M1521.6875 1018.2355 L1512.2249 1004.0068 L1505.2021 1013.7372 Z" clip-path="url(#clipPath2)" stroke="none"/>
      <path fill="none" d="M1521.6875 1018.2355 L1512.2249 1004.0068 L1505.2021 1013.7372 Z" clip-path="url(#clipPath2)"/>
      <rect x="1450.7035" y="806.1196" clip-path="url(#clipPath2)" fill="white" width="177" height="22.8438" stroke="none"/>
      <text x="1452.7035" font-size="16px" y="823.5883" clip-path="url(#clipPath2)" font-family="sans-serif" stroke="none" xml:space="preserve">schema:datePublished</text>
      <path fill="none" d="M1644.6833 751.2267 L1550.4978 1004.1669" clip-path="url(#clipPath2)"/>
    </g>
    <g stroke-linecap="butt" transform="matrix(0.5879,0,0,0.5879,-441.5275,-157.5624)" fill-opacity="0" fill="rgb(0,0,0)" text-rendering="geometricPrecision" shape-rendering="geometricPrecision" stroke="rgb(0,0,0)" stroke-opacity="0" stroke-miterlimit="1.45">
      <path d="M1647.4751 743.7297 C1649.5454 744.5006 1650.5986 746.8038 1649.8278 748.8741 C1649.0569 750.9443 1646.7537 751.9977 1644.6833 751.2267 C1642.613 750.4558 1641.5598 748.1526 1642.3307 746.0823 C1643.1016 744.0121 1645.4048 742.9587 1647.4751 743.7297 Z" stroke="none" clip-path="url(#clipPath2)"/>
    </g>
    <g stroke-linecap="butt" transform="matrix(0.5879,0,0,0.5879,-441.5275,-157.5624)" fill="green" text-rendering="geometricPrecision" shape-rendering="geometricPrecision" stroke="green" stroke-miterlimit="1.45">
      <path fill="none" d="M1647.4751 743.7297 C1649.5454 744.5006 1650.5986 746.8038 1649.8278 748.8741 C1649.0569 750.9443 1646.7537 751.9977 1644.6833 751.2267 C1642.613 750.4558 1641.5598 748.1526 1642.3307 746.0823 C1643.1016 744.0121 1645.4048 742.9587 1647.4751 743.7297 Z" clip-path="url(#clipPath2)"/>
      <path fill="white" d="M1545.2635 1018.224 L1556.4696 1005.3234 L1545.2239 1001.136 Z" clip-path="url(#clipPath2)" stroke="none"/>
      <path fill="none" d="M1545.2635 1018.224 L1556.4696 1005.3234 L1545.2239 1001.136 Z" clip-path="url(#clipPath2)"/>
      <rect x="1528.7724" y="871.4516" clip-path="url(#clipPath2)" fill="white" width="133.7812" height="22.8438" stroke="none"/>
      <text x="1530.7725" font-size="16px" y="888.9203" clip-path="url(#clipPath2)" font-family="sans-serif" stroke="none" xml:space="preserve">schema:duration</text>
      <path fill="none" d="M1580.6665 715.225 L1152.0151 655.3796" clip-path="url(#clipPath2)" stroke="navy"/>
      <path fill="navy" d="M1588.5896 716.3312 C1588.2842 718.5191 1586.2628 720.0451 1584.075 719.7396 C1581.8871 719.4342 1580.361 717.4129 1580.6665 715.225 C1580.9719 713.037 1582.9933 711.511 1585.1812 711.8165 C1587.369 712.1219 1588.8951 714.1432 1588.5896 716.3312 Z" clip-path="url(#clipPath2)" stroke="none"/>
      <path fill="navy" d="M1141.1208 653.8586 L1152.1759 661.4603 L1153.8352 649.5756 Z" clip-path="url(#clipPath2)" stroke="none"/>
      <rect x="1292.0674" y="673.3961" clip-path="url(#clipPath2)" fill="white" width="141.6094" height="22.8438" stroke="none"/>
    </g>
    <g stroke-linecap="butt" font-size="16px" transform="matrix(0.5879,0,0,0.5879,-441.5275,-157.5624)" fill="navy" text-rendering="geometricPrecision" font-family="sans-serif" shape-rendering="geometricPrecision" stroke="navy" stroke-miterlimit="1.45">
      <text x="1294.0674" xml:space="preserve" y="690.8649" clip-path="url(#clipPath2)" stroke="none">dcterms:temporal</text>
      <path fill="none" d="M1580.6689 724.9764 L881.2243 720 L881.2243 788.0336" clip-path="url(#clipPath2)"/>
      <path d="M1588.6687 725.0334 C1588.653 727.2425 1586.8494 729.0205 1584.6403 729.0048 C1582.4313 728.989 1580.6532 727.1855 1580.6689 724.9764 C1580.6847 722.7673 1582.4883 720.9893 1584.6974 721.005 C1586.9064 721.0208 1588.6844 722.8243 1588.6687 725.0334 Z" stroke="none" clip-path="url(#clipPath2)"/>
      <path d="M881.2243 799.0336 L887.2243 787.0336 L875.2243 787.0336 Z" stroke="none" clip-path="url(#clipPath2)"/>
    </g>
    <g stroke-linecap="butt" transform="matrix(0.5879,0,0,0.5879,-441.5275,-157.5624)" fill="white" text-rendering="geometricPrecision" shape-rendering="geometricPrecision" stroke="white" stroke-miterlimit="1.45">
      <rect x="1148.703" width="159.3359" height="22.8438" y="711.048" clip-path="url(#clipPath2)" stroke="none"/>
    </g>
    <g stroke-linecap="butt" font-size="16px" transform="matrix(0.5879,0,0,0.5879,-441.5275,-157.5624)" fill="navy" text-rendering="geometricPrecision" font-family="sans-serif" shape-rendering="geometricPrecision" stroke="navy" stroke-miterlimit="1.45">
      <text x="1150.703" xml:space="preserve" y="728.5167" clip-path="url(#clipPath2)" stroke="none">dcterms:contributor</text>
      <path fill="none" d="M1580.7013 736.3414 L988.3872 823.6358" clip-path="url(#clipPath2)"/>
      <path d="M1588.6158 735.175 C1588.9379 737.3606 1587.4272 739.3934 1585.2417 739.7155 C1583.0563 740.0376 1581.0234 738.527 1580.7013 736.3414 C1580.3793 734.1559 1581.8899 732.123 1584.0754 731.801 C1586.2609 731.4789 1588.2937 732.9895 1588.6158 735.175 Z" stroke="none" clip-path="url(#clipPath2)"/>
      <path d="M977.5048 825.2397 L990.2513 829.4259 L988.5016 817.5541 Z" stroke="none" clip-path="url(#clipPath2)"/>
    </g>
    <g stroke-linecap="butt" transform="matrix(0.5879,0,0,0.5879,-441.5275,-157.5624)" fill="white" text-rendering="geometricPrecision" shape-rendering="geometricPrecision" stroke="white" stroke-miterlimit="1.45">
      <rect x="1217.6974" width="126.7188" height="22.8438" y="769.0807" clip-path="url(#clipPath2)" stroke="none"/>
    </g>
    <g stroke-linecap="butt" font-size="16px" transform="matrix(0.5879,0,0,0.5879,-441.5275,-157.5624)" fill="navy" text-rendering="geometricPrecision" font-family="sans-serif" shape-rendering="geometricPrecision" stroke="navy" stroke-miterlimit="1.45">
      <text x="1219.6974" xml:space="preserve" y="786.5495" clip-path="url(#clipPath2)" stroke="none">dcterms:creator</text>
      <path fill="none" d="M1593.1671 748.9383 L1201.3438 899.2539 L881.7395 900 L881.7395 862.3982" clip-path="url(#clipPath2)"/>
      <path d="M1600.6364 746.0728 C1601.4276 748.1354 1600.397 750.4489 1598.3345 751.2402 C1596.2719 752.0314 1593.9584 751.0009 1593.1671 748.9383 C1592.3759 746.8757 1593.4065 744.5623 1595.469 743.7709 C1597.5316 742.9797 1599.8451 744.0103 1600.6364 746.0728 Z" stroke="none" clip-path="url(#clipPath2)"/>
      <path d="M881.7395 851.3982 L875.7395 863.3982 L887.7395 863.3982 Z" stroke="none" clip-path="url(#clipPath2)"/>
    </g>
    <g stroke-linecap="butt" transform="matrix(0.5879,0,0,0.5879,-441.5275,-157.5624)" fill="white" text-rendering="geometricPrecision" shape-rendering="geometricPrecision" stroke="white" stroke-miterlimit="1.45">
      <rect x="1316.0635" width="144.7344" height="22.8438" y="816.0597" clip-path="url(#clipPath2)" stroke="none"/>
    </g>
    <g stroke-linecap="butt" font-size="16px" transform="matrix(0.5879,0,0,0.5879,-441.5275,-157.5624)" fill="navy" text-rendering="geometricPrecision" font-family="sans-serif" shape-rendering="geometricPrecision" stroke="navy" stroke-miterlimit="1.45">
      <text x="1318.0635" xml:space="preserve" y="833.5284" clip-path="url(#clipPath2)" stroke="none">dcterms:publisher</text>
      <path fill="none" d="M1686.5453 749.9033 L2022.8356 1004.1174" clip-path="url(#clipPath2)"/>
      <path d="M1680.1637 745.079 C1681.4958 743.3167 1684.0044 742.9681 1685.7666 744.3003 C1687.5289 745.6325 1687.8776 748.1411 1686.5453 749.9033 C1685.2131 751.6656 1682.7046 752.0142 1680.9424 750.682 C1679.1801 749.3498 1678.8314 746.8412 1680.1637 745.079 Z" stroke="none" clip-path="url(#clipPath2)"/>
      <path d="M2031.6105 1010.7507 L2025.6559 998.728 L2018.4197 1008.3007 Z" stroke="none" clip-path="url(#clipPath2)"/>
    </g>
    <g stroke-linecap="butt" transform="matrix(0.5879,0,0,0.5879,-441.5275,-157.5624)" fill="white" text-rendering="geometricPrecision" shape-rendering="geometricPrecision" stroke="white" stroke-miterlimit="1.45">
      <rect x="1778.7233" width="157.5156" height="22.8438" y="867.6981" clip-path="url(#clipPath2)" stroke="none"/>
    </g>
    <g stroke-linecap="butt" font-size="16px" transform="matrix(0.5879,0,0,0.5879,-441.5275,-157.5624)" fill="navy" text-rendering="geometricPrecision" font-family="sans-serif" shape-rendering="geometricPrecision" stroke="navy" stroke-miterlimit="1.45">
      <text x="1780.7233" xml:space="preserve" y="885.1668" clip-path="url(#clipPath2)" stroke="none">schema:inLanguage</text>
    </g>
    <g fill="rgb(210,210,210)" text-rendering="geometricPrecision" shape-rendering="geometricPrecision" transform="matrix(0.5879,0,0,0.5879,-441.5275,-157.5624) translate(4,4)" stroke="rgb(210,210,210)">
      <rect x="761.7298" width="437.4577" height="94.741" y="992.4902" clip-path="url(#clipPath3)" stroke="none"/>
    </g>
    <g fill="white" text-rendering="geometricPrecision" shape-rendering="geometricPrecision" transform="matrix(0.5879,0,0,0.5879,-441.5275,-157.5624)" stroke="white">
      <rect x="761.7298" width="437.4577" height="94.741" y="992.4902" clip-path="url(#clipPath2)" stroke="none"/>
      <rect x="761.7298" y="992.4902" clip-path="url(#clipPath2)" fill="rgb(183,182,158)" width="437.4577" height="21.666" stroke="none"/>
    </g>
    <g font-size="15px" stroke-linecap="butt" transform="matrix(0.5879,0,0,0.5879,-441.5275,-157.5624)" text-rendering="geometricPrecision" font-family="sans-serif" shape-rendering="geometricPrecision" font-weight="bold" stroke-miterlimit="1.45">
      <text x="1120.3198" xml:space="preserve" y="1008.9922" clip-path="url(#clipPath2)" stroke="none">Prefixes   </text>
      <rect fill="none" x="761.7298" width="437.4577" height="94.741" y="992.4902" clip-path="url(#clipPath2)"/>
      <text x="804.6172" xml:space="preserve" font-size="16px" y="1046.625" clip-path="url(#clipPath2)" stroke="none">dcterms:</text>
      <text x="804.6172" xml:space="preserve" font-size="16px" y="1065.4688" clip-path="url(#clipPath2)" stroke="none">schema:</text>
      <text x="977.8125" font-size="16px" y="1046.625" clip-path="url(#clipPath2)" stroke="none" font-weight="normal" xml:space="preserve">http://purl.org/dc/terms/</text>
      <text x="977.8125" font-size="16px" y="1065.4688" clip-path="url(#clipPath2)" stroke="none" font-weight="normal" xml:space="preserve">https://schema.org/</text>
    </g>
  </g>
</svg>
